<svg width="960" height="810" xmlns="http://www.w3.org/2000/svg" style="animation-delay: 0s; animation-direction: normal; animation-duration: 0s; animation-fill-mode: none; animation-iteration-count: 1; animation-name: none; animation-play-state: running; animation-timing-function: ease; background-attachment: scroll; background-blend-mode: normal; background-clip: border-box; background-color: rgba(0, 0, 0, 0); background-image: none; background-origin: padding-box; background-position: 0% 0%; background-repeat: repeat; background-size: auto; border-bottom-color: rgb(0, 0, 0); border-bottom-left-radius: 0px; border-bottom-right-radius: 0px; border-bottom-style: none; border-bottom-width: 0px; border-collapse: separate; border-image-outset: 0px; border-image-repeat: stretch; border-image-slice: 100%; border-image-source: none; border-image-width: 1; border-left-color: rgb(0, 0, 0); border-left-style: none; border-left-width: 0px; border-right-color: rgb(0, 0, 0); border-right-style: none; border-right-width: 0px; border-top-color: rgb(0, 0, 0); border-top-left-radius: 0px; border-top-right-radius: 0px; border-top-style: none; border-top-width: 0px; bottom: auto; box-shadow: none; box-sizing: content-box; caption-side: top; clear: none; clip: auto; color: rgb(0, 0, 0); cursor: auto; direction: ltr; display: inline; empty-cells: show; float: none; font-family: 'Times New Roman'; font-kerning: auto; font-size: 16px; font-stretch: normal; font-style: normal; font-variant: normal; font-variant-ligatures: normal; font-weight: normal; height: 810px; image-rendering: auto; isolation: auto; left: auto; letter-spacing: normal; line-height: normal; list-style-image: none; list-style-position: outside; list-style-type: disc; margin-bottom: 0px; margin-left: 0px; margin-right: 0px; margin-top: 0px; max-height: none; max-width: none; min-height: 0px; min-width: 0px; mix-blend-mode: normal; motion-offset: 0px; motion-path: none; motion-rotation: auto 0deg; object-fit: fill; object-position: 50% 50%; opacity: 1; orphans: auto; outline-color: rgb(0, 0, 0); outline-offset: 0px; outline-style: none; outline-width: 0px; overflow-wrap: normal; overflow-x: hidden; overflow-y: hidden; padding-bottom: 0px; padding-left: 0px; padding-right: 0px; padding-top: 0px; page-break-after: auto; page-break-before: auto; page-break-inside: auto; pointer-events: auto; position: static; resize: none; right: auto; speak: normal; table-layout: auto; tab-size: 8; text-align: start; text-decoration: none; text-indent: 0px; text-rendering: auto; text-shadow: none; text-overflow: clip; text-transform: none; top: auto; touch-action: auto; transition-delay: 0s; transition-duration: 0s; transition-property: all; transition-timing-function: ease; unicode-bidi: normal; vertical-align: baseline; visibility: visible; white-space: normal; widows: 1; width: 960px; will-change: auto; word-break: normal; word-spacing: 0px; word-wrap: normal; z-index: auto; zoom: 1; -webkit-appearance: none; backface-visibility: visible; -webkit-background-clip: border-box; -webkit-background-composite: source-over; -webkit-background-origin: padding-box; -webkit-border-horizontal-spacing: 0px; -webkit-border-image: none; -webkit-border-vertical-spacing: 0px; -webkit-box-align: stretch; -webkit-box-decoration-break: slice; -webkit-box-direction: normal; -webkit-box-flex: 0; -webkit-box-flex-group: 1; -webkit-box-lines: single; -webkit-box-ordinal-group: 1; -webkit-box-orient: horizontal; -webkit-box-pack: start; -webkit-box-reflect: none; -webkit-clip-path: none; -webkit-column-break-after: auto; -webkit-column-break-before: auto; -webkit-column-break-inside: auto; -webkit-column-count: auto; -webkit-column-gap: normal; -webkit-column-rule-color: rgb(0, 0, 0); -webkit-column-rule-style: none; -webkit-column-rule-width: 0px; -webkit-column-span: none; -webkit-column-width: auto; -webkit-filter: none; align-content: start; align-items: start; align-self: start; flex-basis: auto; flex-grow: 0; flex-shrink: 1; flex-direction: row; flex-wrap: nowrap; justify-content: start; -webkit-font-smoothing: auto; -webkit-highlight: none; -webkit-hyphenate-character: auto; -webkit-line-box-contain: block inline replaced; -webkit-line-break: auto; -webkit-line-clamp: none; -webkit-locale: auto; -webkit-margin-before-collapse: collapse; -webkit-margin-after-collapse: collapse; -webkit-mask-box-image: none; -webkit-mask-box-image-outset: 0px; -webkit-mask-box-image-repeat: stretch; -webkit-mask-box-image-slice: 0 fill; -webkit-mask-box-image-source: none; -webkit-mask-box-image-width: auto; -webkit-mask-clip: border-box; -webkit-mask-composite: source-over; -webkit-mask-image: none; -webkit-mask-origin: border-box; -webkit-mask-position: 0% 0%; -webkit-mask-repeat: repeat; -webkit-mask-size: auto; order: 0; perspective: none; perspective-origin: 480px 405px; -webkit-print-color-adjust: economy; -webkit-rtl-ordering: logical; shape-outside: none; shape-image-threshold: 0; shape-margin: 0px; -webkit-tap-highlight-color: rgba(0, 0, 0, 0.180392); -webkit-text-combine: none; -webkit-text-decorations-in-effect: none; -webkit-text-emphasis-color: rgb(0, 0, 0); -webkit-text-emphasis-position: over; -webkit-text-emphasis-style: none; -webkit-text-fill-color: rgb(0, 0, 0); -webkit-text-orientation: vertical-right; -webkit-text-security: none; -webkit-text-stroke-color: rgb(0, 0, 0); -webkit-text-stroke-width: 0px; transform: none; transform-origin: 480px 405px; transform-style: flat; -webkit-user-drag: auto; -webkit-user-modify: read-only; -webkit-user-select: text; -webkit-writing-mode: horizontal-tb; -webkit-app-region: no-drag; buffered-rendering: auto; clip-path: none; clip-rule: nonzero; mask: none; filter: none; flood-color: rgb(0, 0, 0); flood-opacity: 1; lighting-color: rgb(255, 255, 255); stop-color: rgb(0, 0, 0); stop-opacity: 1; color-interpolation: sRGB; color-interpolation-filters: linearRGB; color-rendering: auto; fill: rgb(0, 0, 0); fill-opacity: 1; fill-rule: nonzero; marker-end: none; marker-mid: none; marker-start: none; mask-type: luminance; shape-rendering: auto; stroke: none; stroke-dasharray: none; stroke-dashoffset: 0px; stroke-linecap: butt; stroke-linejoin: miter; stroke-miterlimit: 4; stroke-opacity: 1; stroke-width: 1px; alignment-baseline: auto; baseline-shift: 0px; dominant-baseline: auto; text-anchor: start; writing-mode: lr-tb; glyph-orientation-horizontal: 0deg; glyph-orientation-vertical: auto; vector-effect: none; paint-order: fill stroke markers; cx: 0px; cy: 0px; x: 0px; y: 0px; r: 0px; rx: 0px; ry: 0px;" version="1.1" xmlns:xlink="http://www.w3.org/1999/xlink"><style type="text/css">.node { font-style: normal; font-variant: normal; font-weight: normal; font-stretch: normal; font-size: 10px; line-height: normal; font-family: sans-serif; }
.link { fill: none; stroke: rgb(204, 204, 204); stroke-width: 1.5px; }</style><svg xmlns="http://www.w3.org/2000/svg"><g transform="translate(480,480)"><path class="link" d="M0,0C2.4492935982947065e-15,40 40,-8.881784197001252e-15 80,-1.7763568394002505e-14"/><path class="link" d="M0,0C2.4492935982947065e-15,40 -40,-3.06285495914156e-14 -80,-6.12570991828312e-14"/><path class="link" d="M80,-1.7763568394002505e-14C120,-2.6645352591003757e-14 37.08203932499367,-114.12678195541844 49.442719099991564,-152.16904260722458"/><path class="link" d="M80,-1.7763568394002505e-14C120,-2.6645352591003757e-14 97.0820393249937,-70.53423027509676 129.4427190999916,-94.04564036679568"/><path class="link" d="M80,-1.7763568394002505e-14C120,-2.6645352591003757e-14 120,0 160,0"/><path class="link" d="M80,-1.7763568394002505e-14C120,-2.6645352591003757e-14 97.0820393249937,70.53423027509677 129.4427190999916,94.04564036679571"/><path class="link" d="M80,-1.7763568394002505e-14C120,-2.6645352591003757e-14 37.082039324993694,114.12678195541842 49.44271909999159,152.16904260722455"/><path class="link" d="M49.442719099991564,-152.16904260722458C61.803398874989455,-190.21130325903073 7.851963151813688,-199.84580724814458 9.422355782176426,-239.8149686977735"/><path class="link" d="M49.442719099991564,-152.16904260722458C61.803398874989455,-190.21130325903073 15.691819145568955,-199.3834667466256 18.830182974682746,-239.2601600959507"/><path class="link" d="M49.442719099991564,-152.16904260722458C61.803398874989455,-190.21130325903073 23.50747949156754,-198.61369139098525 28.208975389881047,-238.3364296691823"/><path class="link" d="M49.442719099991564,-152.16904260722458C61.803398874989455,-190.21130325903073 31.286893008046185,-197.53766811902756 37.544271609655425,-237.04520174283306"/><path class="link" d="M49.442719099991564,-152.16904260722458C61.803398874989455,-190.21130325903073 39.01806440322562,-196.1570560806461 46.82167728387075,-235.3884672967753"/><path class="link" d="M49.442719099991564,-152.16904260722458C61.803398874989455,-190.21130325903073 46.689072771181095,-194.4739840795353 56.02688732541731,-233.36878089544237"/><path class="link" d="M49.442719099991564,-152.16904260722458C61.803398874989455,-190.21130325903073 54.28808997301482,-192.49104729072948 65.14570796761778,-230.98925674887536"/><path class="link" d="M49.442719099991564,-152.16904260722458C61.803398874989455,-190.21130325903073 61.803398874989455,-190.21130325903073 74.16407864998735,-228.25356391083687"/><path class="link" d="M49.442719099991564,-152.16904260722458C61.803398874989455,-190.21130325903073 69.2234114154986,-187.63826718449684 83.06809369859832,-225.1659206213962"/><path class="link" d="M49.442719099991564,-152.16904260722458C61.803398874989455,-190.21130325903073 76.53668647301797,-184.77590650225736 91.84402376762156,-221.73108780270883"/><path class="link" d="M49.442719099991564,-152.16904260722458C61.803398874989455,-190.21130325903073 83.73194750748559,-181.62863476501627 100.47833700898269,-217.95436171801953"/><path class="link" d="M49.442719099991564,-152.16904260722458C61.803398874989455,-190.21130325903073 90.79809994790938,-178.20130483767355 108.95771993749125,-213.84156580520826"/><path class="link" d="M49.442719099991564,-152.16904260722458C61.803398874989455,-190.21130325903073 97.72424829939096,-174.49920141455942 117.26909795926915,-209.39904169747132"/><path class="link" d="M49.442719099991564,-152.16904260722458C61.803398874989455,-190.21130325903073 104.49971294318973,-170.52803287081846 125.39965553182769,-204.63363944498215"/><path class="link" d="M49.442719099991564,-152.16904260722458C61.803398874989455,-190.21130325903073 111.11404660392049,-166.29392246050904 133.33685592470457,-199.55270695261083"/><path class="link" d="M129.4427190999916,-94.04564036679568C161.80339887498948,-117.5570504584946 123.81878986196675,-157.063386176149 148.5825478343601,-188.47606341137882"/><path class="link" d="M129.4427190999916,-94.04564036679568C161.80339887498948,-117.5570504584946 129.88960966603668,-152.08119312000622 155.86753159924402,-182.49743174400749"/><path class="link" d="M129.4427190999916,-94.04564036679568C161.80339887498948,-117.5570504584946 135.76014910658836,-146.86450188713712 162.91217892790604,-176.23740226456454"/><path class="link" d="M129.4427190999916,-94.04564036679568C161.80339887498948,-117.5570504584946 141.42135623730948,-141.4213562373095 169.70562748477138,-169.7056274847714"/><path class="link" d="M129.4427190999916,-94.04564036679568C161.80339887498948,-117.5570504584946 146.86450188713707,-135.76014910658841 176.23740226456448,-162.91217892790607"/><path class="link" d="M129.4427190999916,-94.04564036679568C161.80339887498948,-117.5570504584946 152.08119312000622,-129.8896096660367 182.49743174400746,-155.86753159924405"/><path class="link" d="M129.4427190999916,-94.04564036679568C161.80339887498948,-117.5570504584946 157.06338617614898,-123.81878986196682 188.47606341137876,-148.58254783436018"/><path class="link" d="M129.4427190999916,-94.04564036679568C161.80339887498948,-117.5570504584946 161.80339887498945,-117.55705045849464 194.16407864998735,-141.06846055019358"/><path class="link" d="M129.4427190999916,-94.04564036679568C161.80339887498948,-117.5570504584946 166.29392246050904,-111.11404660392043 199.55270695261086,-133.33685592470454"/><path class="link" d="M129.4427190999916,-94.04564036679568C161.80339887498948,-117.5570504584946 170.52803287081844,-104.4997129431898 204.63363944498212,-125.39965553182776"/><path class="link" d="M129.4427190999916,-94.04564036679568C161.80339887498948,-117.5570504584946 174.49920141455942,-97.72424829939102 209.3990416974713,-117.26909795926923"/><path class="link" d="M129.4427190999916,-94.04564036679568C161.80339887498948,-117.5570504584946 178.20130483767358,-90.79809994790935 213.8415658052083,-108.95771993749122"/><path class="link" d="M129.4427190999916,-94.04564036679568C161.80339887498948,-117.5570504584946 181.62863476501622,-83.73194750748566 217.95436171801947,-100.47833700898279"/><path class="link" d="M129.4427190999916,-94.04564036679568C161.80339887498948,-117.5570504584946 184.77590650225736,-76.536686473018 221.73108780270883,-91.8440237676216"/><path class="link" d="M129.4427190999916,-94.04564036679568C161.80339887498948,-117.5570504584946 187.63826718449678,-69.22341141549867 225.16592062139614,-83.06809369859842"/><path class="link" d="M160,0C200,0 192.49104729072948,-54.288089973014806 230.98925674887536,-65.14570796761777"/><path class="link" d="M160,0C200,0 194.47398407953534,-46.68907277118104 233.3687808954424,-56.02688732541725"/><path class="link" d="M160,0C200,0 196.1570560806461,-39.01806440322565 235.3884672967753,-46.82167728387078"/><path class="link" d="M160,0C200,0 197.53766811902756,-31.28689300804613 237.04520174283306,-37.544271609655354"/><path class="link" d="M160,0C200,0 198.61369139098525,-23.507479491567484 238.3364296691823,-28.208975389880983"/><path class="link" d="M160,0C200,0 199.3834667466256,-15.691819145568944 239.2601600959507,-18.83018297468273"/><path class="link" d="M160,0C200,0 199.84580724814458,-7.851963151813678 239.8149686977735,-9.422355782176414"/><path class="link" d="M160,0C200,0 200,0 240,0"/><path class="link" d="M160,0C200,0 199.84580724814458,7.8519631518137665 239.8149686977735,9.42235578217652"/><path class="link" d="M160,0C200,0 199.3834667466256,15.691819145569077 239.2601600959507,18.83018297468289"/><path class="link" d="M160,0C200,0 198.61369139098525,23.507479491567572 238.3364296691823,28.20897538988109"/><path class="link" d="M160,0C200,0 197.53766811902753,31.286893008046217 237.04520174283303,37.54427160965546"/><path class="link" d="M160,0C200,0 196.15705608064607,39.018064403225736 235.38846729677527,46.82167728387088"/><path class="link" d="M160,0C200,0 194.47398407953534,46.68907277118104 233.3687808954424,56.02688732541725"/><path class="link" d="M160,0C200,0 192.49104729072943,54.288089973014934 230.98925674887533,65.14570796761791"/><path class="link" d="M129.4427190999916,94.04564036679571C161.80339887498948,117.55705045849463 187.6382671844968,69.22341141549863 225.16592062139617,83.06809369859836"/><path class="link" d="M129.4427190999916,94.04564036679571C161.80339887498948,117.55705045849463 184.77590650225736,76.53668647301795 221.73108780270883,91.84402376762155"/><path class="link" d="M129.4427190999916,94.04564036679571C161.80339887498948,117.55705045849463 181.62863476501624,83.73194750748566 217.9543617180195,100.47833700898279"/><path class="link" d="M129.4427190999916,94.04564036679571C161.80339887498948,117.55705045849463 178.20130483767355,90.79809994790944 213.84156580520823,108.95771993749133"/><path class="link" d="M129.4427190999916,94.04564036679571C161.80339887498948,117.55705045849463 174.49920141455945,97.72424829939095 209.39904169747135,117.26909795926913"/><path class="link" d="M129.4427190999916,94.04564036679571C161.80339887498948,117.55705045849463 170.52803287081846,104.49971294318976 204.63363944498215,125.3996555318277"/><path class="link" d="M129.4427190999916,94.04564036679571C161.80339887498948,117.55705045849463 166.29392246050904,111.11404660392049 199.55270695261083,133.33685592470457"/><path class="link" d="M129.4427190999916,94.04564036679571C161.80339887498948,117.55705045849463 161.80339887498948,117.55705045849463 194.1640786499874,141.06846055019355"/><path class="link" d="M129.4427190999916,94.04564036679571C161.80339887498948,117.55705045849463 157.06338617614898,123.81878986196683 188.47606341137876,148.5825478343602"/><path class="link" d="M129.4427190999916,94.04564036679571C161.80339887498948,117.55705045849463 152.0811931200062,129.88960966603673 182.49743174400743,155.86753159924407"/><path class="link" d="M129.4427190999916,94.04564036679571C161.80339887498948,117.55705045849463 146.8645018871371,135.7601491065884 176.2374022645645,162.91217892790604"/><path class="link" d="M129.4427190999916,94.04564036679571C161.80339887498948,117.55705045849463 141.42135623730945,141.42135623730957 169.70562748477133,169.70562748477147"/><path class="link" d="M129.4427190999916,94.04564036679571C161.80339887498948,117.55705045849463 135.7601491065884,146.86450188713707 162.91217892790604,176.23740226456448"/><path class="link" d="M129.4427190999916,94.04564036679571C161.80339887498948,117.55705045849463 129.88960966603673,152.08119312000616 155.86753159924407,182.4974317440074"/><path class="link" d="M129.4427190999916,94.04564036679571C161.80339887498948,117.55705045849463 123.8187898619667,157.06338617614907 148.58254783436004,188.47606341137887"/><path class="link" d="M49.44271909999159,152.16904260722455C61.80339887498949,190.2113032590307 111.11404660392041,166.29392246050907 133.3368559247045,199.5527069526109"/><path class="link" d="M49.44271909999159,152.16904260722455C61.80339887498949,190.2113032590307 104.49971294318978,170.52803287081844 125.39965553182773,204.63363944498212"/><path class="link" d="M49.44271909999159,152.16904260722455C61.80339887498949,190.2113032590307 97.72424829939096,174.49920141455942 117.26909795926915,209.39904169747132"/><path class="link" d="M49.44271909999159,152.16904260722455C61.80339887498949,190.2113032590307 90.79809994790938,178.20130483767355 108.95771993749125,213.84156580520826"/><path class="link" d="M49.44271909999159,152.16904260722455C61.80339887498949,190.2113032590307 83.73194750748559,181.62863476501627 100.47833700898269,217.95436171801953"/><path class="link" d="M49.44271909999159,152.16904260722455C61.80339887498949,190.2113032590307 76.53668647301797,184.77590650225736 91.84402376762156,221.73108780270883"/><path class="link" d="M49.44271909999159,152.16904260722455C61.80339887498949,190.2113032590307 69.22341141549865,187.6382671844968 83.06809369859837,225.16592062139617"/><path class="link" d="M49.44271909999159,152.16904260722455C61.80339887498949,190.2113032590307 61.80339887498949,190.2113032590307 74.16407864998739,228.25356391083685"/><path class="link" d="M49.44271909999159,152.16904260722455C61.80339887498949,190.2113032590307 54.288089973014905,192.49104729072943 65.1457079676179,230.98925674887533"/><path class="link" d="M49.44271909999159,152.16904260722455C61.80339887498949,190.2113032590307 46.689072771181095,194.4739840795353 56.02688732541731,233.36878089544237"/><path class="link" d="M49.44271909999159,152.16904260722455C61.80339887498949,190.2113032590307 39.01806440322571,196.1570560806461 46.82167728387085,235.3884672967753"/><path class="link" d="M49.44271909999159,152.16904260722455C61.80339887498949,190.2113032590307 31.286893008046096,197.53766811902756 37.54427160965532,237.04520174283306"/><path class="link" d="M49.44271909999159,152.16904260722455C61.80339887498949,190.2113032590307 23.507479491567494,198.61369139098525 28.208975389880994,238.3364296691823"/><path class="link" d="M49.44271909999159,152.16904260722455C61.80339887498949,190.2113032590307 15.691819145569,199.3834667466256 18.8301829746828,239.2601600959507"/><path class="link" d="M49.44271909999159,152.16904260722455C61.80339887498949,190.2113032590307 7.851963151813688,199.84580724814458 9.422355782176426,239.8149686977735"/><path class="link" d="M-80,-6.12570991828312e-14C-120,-9.188564877424678e-14 -37.08203932499374,114.12678195541841 -49.44271909999165,152.16904260722455"/><path class="link" d="M-80,-6.12570991828312e-14C-120,-9.188564877424678e-14 -97.08203932499374,70.53423027509669 -129.44271909999168,94.0456403667956"/><path class="link" d="M-80,-6.12570991828312e-14C-120,-9.188564877424678e-14 -120,-9.188564877424678e-14 -160,-1.225141983656624e-13"/><path class="link" d="M-80,-6.12570991828312e-14C-120,-9.188564877424678e-14 -97.0820393249937,-70.53423027509676 -129.4427190999916,-94.04564036679568"/><path class="link" d="M-80,-6.12570991828312e-14C-120,-9.188564877424678e-14 -37.08203932499361,-114.12678195541845 -49.44271909999148,-152.1690426072246"/><path class="link" d="M-49.44271909999165,152.16904260722455C-61.803398874989554,190.21130325903067 -7.851963151813843,199.84580724814458 -9.422355782176611,239.8149686977735"/><path class="link" d="M-49.44271909999165,152.16904260722455C-61.803398874989554,190.21130325903067 -15.691819145569063,199.3834667466256 -18.830182974682877,239.2601600959507"/><path class="link" d="M-49.44271909999165,152.16904260722455C-61.803398874989554,190.21130325903067 -23.50747949156756,198.61369139098525 -28.208975389881072,238.3364296691823"/><path class="link" d="M-49.44271909999165,152.16904260722455C-61.803398874989554,190.21130325903067 -31.286893008046334,197.5376681190275 -37.5442716096556,237.045201742833"/><path class="link" d="M-49.44271909999165,152.16904260722455C-61.803398874989554,190.21130325903067 -39.01806440322577,196.15705608064607 -46.821677283870926,235.38846729677527"/><path class="link" d="M-49.44271909999165,152.16904260722455C-61.803398874989554,190.21130325903067 -46.68907277118116,194.4739840795353 -56.026887325417384,233.36878089544237"/><path class="link" d="M-49.44271909999165,152.16904260722455C-61.803398874989554,190.21130325903067 -54.28808997301488,192.49104729072945 -65.14570796761785,230.98925674887533"/><path class="link" d="M-49.44271909999165,152.16904260722455C-61.803398874989554,190.21130325903067 -61.803398874989554,190.21130325903067 -74.16407864998747,228.25356391083682"/><path class="link" d="M-49.44271909999165,152.16904260722455C-61.803398874989554,190.21130325903067 -69.2234114154987,187.63826718449678 -83.06809369859845,225.16592062139614"/><path class="link" d="M-49.44271909999165,152.16904260722455C-61.803398874989554,190.21130325903067 -76.53668647301811,184.77590650225727 -91.84402376762172,221.73108780270874"/><path class="link" d="M-49.44271909999165,152.16904260722455C-61.803398874989554,190.21130325903067 -83.73194750748573,181.62863476501622 -100.47833700898288,217.95436171801944"/><path class="link" d="M-49.44271909999165,152.16904260722455C-61.803398874989554,190.21130325903067 -90.79809994790942,178.20130483767355 -108.95771993749132,213.84156580520823"/><path class="link" d="M-49.44271909999165,152.16904260722455C-61.803398874989554,190.21130325903067 -97.72424829939101,174.49920141455942 -117.26909795926922,209.3990416974713"/><path class="link" d="M-49.44271909999165,152.16904260722455C-61.803398874989554,190.21130325903067 -104.49971294318992,170.52803287081838 -125.3996555318279,204.63363944498204"/><path class="link" d="M-49.44271909999165,152.16904260722455C-61.803398874989554,190.21130325903067 -111.11404660392039,166.29392246050907 -133.33685592470448,199.5527069526109"/><path class="link" d="M-129.44271909999168,94.0456403667956C-161.80339887498957,117.5570504584945 -123.81878986196695,157.06338617614887 -148.58254783436033,188.47606341137862"/><path class="link" d="M-129.44271909999168,94.0456403667956C-161.80339887498957,117.5570504584945 -129.8896096660368,152.08119312000613 -155.86753159924413,182.49743174400737"/><path class="link" d="M-129.44271909999168,94.0456403667956C-161.80339887498957,117.5570504584945 -135.76014910658841,146.864501887137 -162.9121789279061,176.23740226456442"/><path class="link" d="M-129.44271909999168,94.0456403667956C-161.80339887498957,117.5570504584945 -141.42135623730962,141.4213562373094 -169.70562748477155,169.7056274847713"/><path class="link" d="M-129.44271909999168,94.0456403667956C-161.80339887498957,117.5570504584945 -146.86450188713707,135.76014910658841 -176.23740226456448,162.91217892790607"/><path class="link" d="M-129.44271909999168,94.0456403667956C-161.80339887498957,117.5570504584945 -152.08119312000622,129.88960966603668 -182.49743174400749,155.86753159924402"/><path class="link" d="M-129.44271909999168,94.0456403667956C-161.80339887498957,117.5570504584945 -157.06338617614907,123.8187898619667 -188.47606341137887,148.58254783436004"/><path class="link" d="M-129.44271909999168,94.0456403667956C-161.80339887498957,117.5570504584945 -161.80339887498957,117.5570504584945 -194.1640786499875,141.06846055019338"/><path class="link" d="M-129.44271909999168,94.0456403667956C-161.80339887498957,117.5570504584945 -166.29392246050915,111.11404660392029 -199.552706952611,133.33685592470434"/><path class="link" d="M-129.44271909999168,94.0456403667956C-161.80339887498957,117.5570504584945 -170.52803287081838,104.49971294318988 -204.63363944498207,125.39965553182785"/><path class="link" d="M-129.44271909999168,94.0456403667956C-161.80339887498957,117.5570504584945 -174.49920141455948,97.7242482993909 -209.39904169747138,117.26909795926908"/><path class="link" d="M-129.44271909999168,94.0456403667956C-161.80339887498957,117.5570504584945 -178.20130483767355,90.79809994790938 -213.84156580520826,108.95771993749125"/><path class="link" d="M-129.44271909999168,94.0456403667956C-161.80339887498957,117.5570504584945 -181.62863476501627,83.7319475074856 -217.95436171801953,100.4783370089827"/><path class="link" d="M-129.44271909999168,94.0456403667956C-161.80339887498957,117.5570504584945 -184.77590650225739,76.5366864730179 -221.73108780270888,91.84402376762147"/><path class="link" d="M-129.44271909999168,94.0456403667956C-161.80339887498957,117.5570504584945 -187.63826718449684,69.22341141549849 -225.16592062139622,83.06809369859819"/><path class="link" d="M-160,-1.225141983656624e-13C-200,-1.5314274795707797e-13 -192.4910472907295,54.288089973014664 -230.98925674887542,65.1457079676176"/><path class="link" d="M-160,-1.225141983656624e-13C-200,-1.5314274795707797e-13 -194.47398407953534,46.68907277118102 -233.3687808954424,56.02688732541722"/><path class="link" d="M-160,-1.225141983656624e-13C-200,-1.5314274795707797e-13 -196.1570560806461,39.018064403225544 -235.38846729677533,46.821677283870656"/><path class="link" d="M-160,-1.225141983656624e-13C-200,-1.5314274795707797e-13 -197.5376681190276,31.286893008046025 -237.0452017428331,37.544271609655226"/><path class="link" d="M-160,-1.225141983656624e-13C-200,-1.5314274795707797e-13 -198.61369139098528,23.50747949156733 -238.33642966918234,28.2089753898808"/><path class="link" d="M-160,-1.225141983656624e-13C-200,-1.5314274795707797e-13 -199.38346674662563,15.691819145568747 -239.26016009595074,18.830182974682497"/><path class="link" d="M-160,-1.225141983656624e-13C-200,-1.5314274795707797e-13 -199.84580724814458,7.851963151813612 -239.8149686977735,9.422355782176336"/><path class="link" d="M-160,-1.225141983656624e-13C-200,-1.5314274795707797e-13 -200,-1.5314274795707797e-13 -240,-1.8377129754849357e-13"/><path class="link" d="M-160,-1.225141983656624e-13C-200,-1.5314274795707797e-13 -199.84580724814458,-7.851963151813919 -239.8149686977735,-9.422355782176703"/><path class="link" d="M-160,-1.225141983656624e-13C-200,-1.5314274795707797e-13 -199.38346674662557,-15.69181914556923 -239.26016009595068,-18.830182974683076"/><path class="link" d="M-160,-1.225141983656624e-13C-200,-1.5314274795707797e-13 -198.61369139098522,-23.507479491567636 -238.33642966918228,-28.208975389881164"/><path class="link" d="M-160,-1.225141983656624e-13C-200,-1.5314274795707797e-13 -197.53766811902753,-31.286893008046324 -237.04520174283303,-37.54427160965559"/><path class="link" d="M-160,-1.225141983656624e-13C-200,-1.5314274795707797e-13 -196.15705608064604,-39.01806440322584 -235.38846729677525,-46.82167728387101"/><path class="link" d="M-160,-1.225141983656624e-13C-200,-1.5314274795707797e-13 -194.47398407953526,-46.689072771181316 -233.3687808954423,-56.02688732541758"/><path class="link" d="M-160,-1.225141983656624e-13C-200,-1.5314274795707797e-13 -192.4910472907294,-54.28808997301512 -230.98925674887528,-65.14570796761814"/><path class="link" d="M-129.4427190999916,-94.04564036679568C-161.80339887498948,-117.5570504584946 -187.63826718449675,-69.22341141549879 -225.1659206213961,-83.06809369859853"/><path class="link" d="M-129.4427190999916,-94.04564036679568C-161.80339887498948,-117.5570504584946 -184.77590650225733,-76.53668647301801 -221.7310878027088,-91.84402376762162"/><path class="link" d="M-129.4427190999916,-94.04564036679568C-161.80339887498948,-117.5570504584946 -181.62863476501613,-83.73194750748587 -217.95436171801936,-100.47833700898305"/><path class="link" d="M-129.4427190999916,-94.04564036679568C-161.80339887498948,-117.5570504584946 -178.20130483767352,-90.79809994790949 -213.8415658052082,-108.95771993749139"/><path class="link" d="M-129.4427190999916,-94.04564036679568C-161.80339887498948,-117.5570504584946 -174.49920141455942,-97.72424829939101 -209.3990416974713,-117.2690979592692"/><path class="link" d="M-129.4427190999916,-94.04564036679568C-161.80339887498948,-117.5570504584946 -170.5280328708184,-104.49971294318982 -204.6336394449821,-125.39965553182779"/><path class="link" d="M-129.4427190999916,-94.04564036679568C-161.80339887498948,-117.5570504584946 -166.29392246050898,-111.11404660392053 -199.55270695261078,-133.33685592470462"/><path class="link" d="M-129.4427190999916,-94.04564036679568C-161.80339887498948,-117.5570504584946 -161.80339887498948,-117.5570504584946 -194.1640786499874,-141.06846055019352"/><path class="link" d="M-129.4427190999916,-94.04564036679568C-161.80339887498948,-117.5570504584946 -157.06338617614887,-123.81878986196695 -188.47606341137865,-148.58254783436033"/><path class="link" d="M-129.4427190999916,-94.04564036679568C-161.80339887498948,-117.5570504584946 -152.08119312000602,-129.8896096660369 -182.49743174400723,-155.8675315992443"/><path class="link" d="M-129.4427190999916,-94.04564036679568C-161.80339887498948,-117.5570504584946 -146.86450188713715,-135.7601491065883 -176.2374022645646,-162.91217892790596"/><path class="link" d="M-129.4427190999916,-94.04564036679568C-161.80339887498948,-117.5570504584946 -141.4213562373094,-141.42135623730962 -169.7056274847713,-169.70562748477155"/><path class="link" d="M-129.4427190999916,-94.04564036679568C-161.80339887498948,-117.5570504584946 -135.7601491065882,-146.86450188713724 -162.91217892790584,-176.2374022645647"/><path class="link" d="M-129.4427190999916,-94.04564036679568C-161.80339887498948,-117.5570504584946 -129.88960966603682,-152.0811931200061 -155.8675315992442,-182.49743174400734"/><path class="link" d="M-129.4427190999916,-94.04564036679568C-161.80339887498948,-117.5570504584946 -123.81878986196672,-157.06338617614907 -148.58254783436007,-188.47606341137887"/><path class="link" d="M-49.44271909999148,-152.1690426072246C-61.80339887498935,-190.21130325903076 -111.11404660392043,-166.29392246050904 -133.33685592470454,-199.55270695261086"/><path class="link" d="M-49.44271909999148,-152.1690426072246C-61.80339887498935,-190.21130325903076 -104.49971294318988,-170.52803287081838 -125.39965553182785,-204.63363944498204"/><path class="link" d="M-49.44271909999148,-152.1690426072246C-61.80339887498935,-190.21130325903076 -97.72424829939075,-174.49920141455956 -117.26909795926889,-209.3990416974715"/><path class="link" d="M-49.44271909999148,-152.1690426072246C-61.80339887498935,-190.21130325903076 -90.79809994790938,-178.20130483767355 -108.95771993749126,-213.84156580520826"/><path class="link" d="M-49.44271909999148,-152.1690426072246C-61.80339887498935,-190.21130325903076 -83.7319475074856,-181.62863476501627 -100.47833700898272,-217.95436171801953"/><path class="link" d="M-49.44271909999148,-152.1690426072246C-61.80339887498935,-190.21130325903076 -76.5366864730179,-184.77590650225736 -91.84402376762148,-221.73108780270886"/><path class="link" d="M-49.44271909999148,-152.1690426072246C-61.80339887498935,-190.21130325903076 -69.22341141549867,-187.6382671844968 -83.0680936985984,-225.16592062139617"/><path class="link" d="M-49.44271909999148,-152.1690426072246C-61.80339887498935,-190.21130325903076 -61.80339887498935,-190.21130325903076 -74.16407864998722,-228.2535639108369"/><path class="link" d="M-49.44271909999148,-152.1690426072246C-61.80339887498935,-190.21130325903076 -54.28808997301468,-192.4910472907295 -65.14570796761761,-230.9892567488754"/><path class="link" d="M-49.44271909999148,-152.1690426072246C-61.80339887498935,-190.21130325903076 -46.68907277118103,-194.47398407953534 -56.026887325417235,-233.3687808954424"/><path class="link" d="M-49.44271909999148,-152.1690426072246C-61.80339887498935,-190.21130325903076 -39.01806440322556,-196.1570560806461 -46.82167728387066,-235.38846729677533"/><path class="link" d="M-49.44271909999148,-152.1690426072246C-61.80339887498935,-190.21130325903076 -31.286893008046036,-197.5376681190276 -37.54427160965524,-237.0452017428331"/><path class="link" d="M-49.44271909999148,-152.1690426072246C-61.80339887498935,-190.21130325903076 -23.507479491567697,-198.61369139098522 -28.208975389881235,-238.33642966918228"/><path class="link" d="M-49.44271909999148,-152.1690426072246C-61.80339887498935,-190.21130325903076 -15.691819145568758,-199.38346674662563 -18.83018297468251,-239.26016009595074"/><path class="link" d="M-49.44271909999148,-152.1690426072246C-61.80339887498935,-190.21130325903076 -7.851963151813625,-199.84580724814458 -9.42235578217635,-239.8149686977735"/><g class="node" transform="rotate(90)translate(0)"><circle r="6" style="fill: white;"/><text dy=".31em" text-anchor="end" transform="rotate(180)translate(-8)">Ratings</text></g><g class="node" transform="rotate(-1.4210854715202004e-14)translate(80)"><circle r="6" style="opacity: 1; fill: red;"/><text dy=".31em" text-anchor="start" transform="translate(8)">Low</text></g><g class="node" transform="rotate(-72.00000000000001)translate(160)"><circle r="6" style="opacity: 1; fill: red;"/><text dy=".31em" text-anchor="start" transform="translate(8)">Topic 0</text></g><g class="node" transform="rotate(-87.75000000000001)translate(240)"><circle r="6" style="opacity: 1; fill: red;"/><text dy=".31em" text-anchor="start" transform="translate(8)">food</text></g><g class="node" transform="rotate(-85.50000000000001)translate(240)"><circle r="6" style="opacity: 0.95; fill: red;"/><text dy=".31em" text-anchor="start" transform="translate(8)">place</text></g><g class="node" transform="rotate(-83.25)translate(240)"><circle r="6" style="opacity: 0.9; fill: red;"/><text dy=".31em" text-anchor="start" transform="translate(8)">minutes</text></g><g class="node" transform="rotate(-81)translate(240)"><circle r="6" style="opacity: 0.85; fill: red;"/><text dy=".31em" text-anchor="start" transform="translate(8)">bar</text></g><g class="node" transform="rotate(-78.75000000000001)translate(240)"><circle r="6" style="opacity: 0.8; fill: red;"/><text dy=".31em" text-anchor="start" transform="translate(8)">drinks</text></g><g class="node" transform="rotate(-76.5)translate(240)"><circle r="6" style="opacity: 0.75; fill: red;"/><text dy=".31em" text-anchor="start" transform="translate(8)">people</text></g><g class="node" transform="rotate(-74.25)translate(240)"><circle r="6" style="opacity: 0.7; fill: red;"/><text dy=".31em" text-anchor="start" transform="translate(8)">table</text></g><g class="node" transform="rotate(-72.00000000000001)translate(240)"><circle r="6" style="opacity: 0.65; fill: red;"/><text dy=".31em" text-anchor="start" transform="translate(8)">drink</text></g><g class="node" transform="rotate(-69.75)translate(240)"><circle r="6" style="opacity: 0.6; fill: red;"/><text dy=".31em" text-anchor="start" transform="translate(8)">time</text></g><g class="node" transform="rotate(-67.5)translate(240)"><circle r="6" style="opacity: 0.55; fill: red;"/><text dy=".31em" text-anchor="start" transform="translate(8)">wait</text></g><g class="node" transform="rotate(-65.25000000000001)translate(240)"><circle r="6" style="opacity: 0.5; fill: red;"/><text dy=".31em" text-anchor="start" transform="translate(8)">just</text></g><g class="node" transform="rotate(-63)translate(240)"><circle r="6" style="opacity: 0.45; fill: red;"/><text dy=".31em" text-anchor="start" transform="translate(8)">service</text></g><g class="node" transform="rotate(-60.75)translate(240)"><circle r="6" style="opacity: 0.4; fill: red;"/><text dy=".31em" text-anchor="start" transform="translate(8)">good</text></g><g class="node" transform="rotate(-58.500000000000014)translate(240)"><circle r="6" style="opacity: 0.35; fill: red;"/><text dy=".31em" text-anchor="start" transform="translate(8)">took</text></g><g class="node" transform="rotate(-56.24999999999999)translate(240)"><circle r="6" style="opacity: 0.3; fill: red;"/><text dy=".31em" text-anchor="start" transform="translate(8)">15</text></g><g class="node" transform="rotate(-35.99999999999999)translate(160)"><circle r="6" style="opacity: 1; fill: red;"/><text dy=".31em" text-anchor="start" transform="translate(8)">Topic 1</text></g><g class="node" transform="rotate(-51.750000000000014)translate(240)"><circle r="6" style="opacity: 1; fill: red;"/><text dy=".31em" text-anchor="start" transform="translate(8)">slices</text></g><g class="node" transform="rotate(-49.50000000000002)translate(240)"><circle r="6" style="opacity: 0.95; fill: red;"/><text dy=".31em" text-anchor="start" transform="translate(8)">margarita</text></g><g class="node" transform="rotate(-47.25)translate(240)"><circle r="6" style="opacity: 0.9; fill: red;"/><text dy=".31em" text-anchor="start" transform="translate(8)">heart</text></g><g class="node" transform="rotate(-45.00000000000001)translate(240)"><circle r="6" style="opacity: 0.85; fill: red;"/><text dy=".31em" text-anchor="start" transform="translate(8)">update</text></g><g class="node" transform="rotate(-42.75000000000002)translate(240)"><circle r="6" style="opacity: 0.8; fill: red;"/><text dy=".31em" text-anchor="start" transform="translate(8)">cons</text></g><g class="node" transform="rotate(-40.5)translate(240)"><circle r="6" style="opacity: 0.75; fill: red;"/><text dy=".31em" text-anchor="start" transform="translate(8)">ordered</text></g><g class="node" transform="rotate(-38.25000000000001)translate(240)"><circle r="6" style="opacity: 0.7; fill: red;"/><text dy=".31em" text-anchor="start" transform="translate(8)">refilled</text></g><g class="node" transform="rotate(-36.000000000000014)translate(240)"><circle r="6" style="opacity: 0.65; fill: red;"/><text dy=".31em" text-anchor="start" transform="translate(8)">bautista</text></g><g class="node" transform="rotate(-33.75)translate(240)"><circle r="6" style="opacity: 0.6; fill: red;"/><text dy=".31em" text-anchor="start" transform="translate(8)">listed</text></g><g class="node" transform="rotate(-31.500000000000007)translate(240)"><circle r="6" style="opacity: 0.55; fill: red;"/><text dy=".31em" text-anchor="start" transform="translate(8)">site</text></g><g class="node" transform="rotate(-29.250000000000014)translate(240)"><circle r="6" style="opacity: 0.5; fill: red;"/><text dy=".31em" text-anchor="start" transform="translate(8)">warming</text></g><g class="node" transform="rotate(-27)translate(240)"><circle r="6" style="opacity: 0.45; fill: red;"/><text dy=".31em" text-anchor="start" transform="translate(8)">enjoying</text></g><g class="node" transform="rotate(-24.750000000000014)translate(240)"><circle r="6" style="opacity: 0.4; fill: red;"/><text dy=".31em" text-anchor="start" transform="translate(8)">south</text></g><g class="node" transform="rotate(-22.500000000000014)translate(240)"><circle r="6" style="opacity: 0.35; fill: red;"/><text dy=".31em" text-anchor="start" transform="translate(8)">additionally</text></g><g class="node" transform="rotate(-20.25000000000003)translate(240)"><circle r="6" style="opacity: 0.3; fill: red;"/><text dy=".31em" text-anchor="start" transform="translate(8)">harbor</text></g><g class="node" transform="rotate(0)translate(160)"><circle r="6" style="opacity: 1; fill: red;"/><text dy=".31em" text-anchor="start" transform="translate(8)">Topic 2</text></g><g class="node" transform="rotate(-15.749999999999986)translate(240)"><circle r="6" style="opacity: 1; fill: red;"/><text dy=".31em" text-anchor="start" transform="translate(8)">food</text></g><g class="node" transform="rotate(-13.499999999999986)translate(240)"><circle r="6" style="opacity: 0.95; fill: red;"/><text dy=".31em" text-anchor="start" transform="translate(8)">chicken</text></g><g class="node" transform="rotate(-11.25)translate(240)"><circle r="6" style="opacity: 0.9; fill: red;"/><text dy=".31em" text-anchor="start" transform="translate(8)">good</text></g><g class="node" transform="rotate(-8.999999999999986)translate(240)"><circle r="6" style="opacity: 0.85; fill: red;"/><text dy=".31em" text-anchor="start" transform="translate(8)">place</text></g><g class="node" transform="rotate(-6.749999999999986)translate(240)"><circle r="6" style="opacity: 0.8; fill: red;"/><text dy=".31em" text-anchor="start" transform="translate(8)">like</text></g><g class="node" transform="rotate(-4.499999999999986)translate(240)"><circle r="6" style="opacity: 0.75; fill: red;"/><text dy=".31em" text-anchor="start" transform="translate(8)">rice</text></g><g class="node" transform="rotate(-2.249999999999986)translate(240)"><circle r="6" style="opacity: 0.7; fill: red;"/><text dy=".31em" text-anchor="start" transform="translate(8)">sauce</text></g><g class="node" transform="rotate(0)translate(240)"><circle r="6" style="opacity: 0.65; fill: red;"/><text dy=".31em" text-anchor="start" transform="translate(8)">fried</text></g><g class="node" transform="rotate(2.250000000000014)translate(240)"><circle r="6" style="opacity: 0.6; fill: red;"/><text dy=".31em" text-anchor="start" transform="translate(8)">bland</text></g><g class="node" transform="rotate(4.500000000000014)translate(240)"><circle r="6" style="opacity: 0.55; fill: red;"/><text dy=".31em" text-anchor="start" transform="translate(8)">ordered</text></g><g class="node" transform="rotate(6.750000000000014)translate(240)"><circle r="6" style="opacity: 0.5; fill: red;"/><text dy=".31em" text-anchor="start" transform="translate(8)">chinese</text></g><g class="node" transform="rotate(9.000000000000014)translate(240)"><circle r="6" style="opacity: 0.45; fill: red;"/><text dy=".31em" text-anchor="start" transform="translate(8)">bad</text></g><g class="node" transform="rotate(11.250000000000014)translate(240)"><circle r="6" style="opacity: 0.4; fill: red;"/><text dy=".31em" text-anchor="start" transform="translate(8)">burrito</text></g><g class="node" transform="rotate(13.5)translate(240)"><circle r="6" style="opacity: 0.35; fill: red;"/><text dy=".31em" text-anchor="start" transform="translate(8)">flavor</text></g><g class="node" transform="rotate(15.750000000000014)translate(240)"><circle r="6" style="opacity: 0.3; fill: red;"/><text dy=".31em" text-anchor="start" transform="translate(8)">pretty</text></g><g class="node" transform="rotate(36)translate(160)"><circle r="6" style="opacity: 1; fill: red;"/><text dy=".31em" text-anchor="start" transform="translate(8)">Topic 3</text></g><g class="node" transform="rotate(20.25)translate(240)"><circle r="6" style="opacity: 1; fill: red;"/><text dy=".31em" text-anchor="start" transform="translate(8)">food</text></g><g class="node" transform="rotate(22.5)translate(240)"><circle r="6" style="opacity: 0.95; fill: red;"/><text dy=".31em" text-anchor="start" transform="translate(8)">service</text></g><g class="node" transform="rotate(24.750000000000014)translate(240)"><circle r="6" style="opacity: 0.9; fill: red;"/><text dy=".31em" text-anchor="start" transform="translate(8)">order</text></g><g class="node" transform="rotate(27.000000000000014)translate(240)"><circle r="6" style="opacity: 0.85; fill: red;"/><text dy=".31em" text-anchor="start" transform="translate(8)">place</text></g><g class="node" transform="rotate(29.25)translate(240)"><circle r="6" style="opacity: 0.8; fill: red;"/><text dy=".31em" text-anchor="start" transform="translate(8)">good</text></g><g class="node" transform="rotate(31.500000000000014)translate(240)"><circle r="6" style="opacity: 0.75; fill: red;"/><text dy=".31em" text-anchor="start" transform="translate(8)">just</text></g><g class="node" transform="rotate(33.750000000000014)translate(240)"><circle r="6" style="opacity: 0.7; fill: red;"/><text dy=".31em" text-anchor="start" transform="translate(8)">like</text></g><g class="node" transform="rotate(36)translate(240)"><circle r="6" style="opacity: 0.65; fill: red;"/><text dy=".31em" text-anchor="start" transform="translate(8)">time</text></g><g class="node" transform="rotate(38.25000000000003)translate(240)"><circle r="6" style="opacity: 0.6; fill: red;"/><text dy=".31em" text-anchor="start" transform="translate(8)">ordered</text></g><g class="node" transform="rotate(40.5)translate(240)"><circle r="6" style="opacity: 0.55; fill: red;"/><text dy=".31em" text-anchor="start" transform="translate(8)">got</text></g><g class="node" transform="rotate(42.75)translate(240)"><circle r="6" style="opacity: 0.5; fill: red;"/><text dy=".31em" text-anchor="start" transform="translate(8)">didn</text></g><g class="node" transform="rotate(45.00000000000003)translate(240)"><circle r="6" style="opacity: 0.45; fill: red;"/><text dy=".31em" text-anchor="start" transform="translate(8)">cheese</text></g><g class="node" transform="rotate(47.25)translate(240)"><circle r="6" style="opacity: 0.4; fill: red;"/><text dy=".31em" text-anchor="start" transform="translate(8)">pizza</text></g><g class="node" transform="rotate(49.5)translate(240)"><circle r="6" style="opacity: 0.35; fill: red;"/><text dy=".31em" text-anchor="start" transform="translate(8)">don</text></g><g class="node" transform="rotate(51.75000000000003)translate(240)"><circle r="6" style="opacity: 0.3; fill: red;"/><text dy=".31em" text-anchor="start" transform="translate(8)">really</text></g><g class="node" transform="rotate(72)translate(160)"><circle r="6" style="opacity: 1; fill: red;"/><text dy=".31em" text-anchor="start" transform="translate(8)">Topic 4</text></g><g class="node" transform="rotate(56.25)translate(240)"><circle r="6" style="opacity: 1; fill: red;"/><text dy=".31em" text-anchor="start" transform="translate(8)">good</text></g><g class="node" transform="rotate(58.5)translate(240)"><circle r="6" style="opacity: 0.95; fill: red;"/><text dy=".31em" text-anchor="start" transform="translate(8)">salad</text></g><g class="node" transform="rotate(60.75)translate(240)"><circle r="6" style="opacity: 0.9; fill: red;"/><text dy=".31em" text-anchor="start" transform="translate(8)">carne</text></g><g class="node" transform="rotate(63)translate(240)"><circle r="6" style="opacity: 0.85; fill: red;"/><text dy=".31em" text-anchor="start" transform="translate(8)">entrees</text></g><g class="node" transform="rotate(65.25)translate(240)"><circle r="6" style="opacity: 0.8; fill: red;"/><text dy=".31em" text-anchor="start" transform="translate(8)">chicken</text></g><g class="node" transform="rotate(67.5)translate(240)"><circle r="6" style="opacity: 0.75; fill: red;"/><text dy=".31em" text-anchor="start" transform="translate(8)">asada</text></g><g class="node" transform="rotate(69.75)translate(240)"><circle r="6" style="opacity: 0.7; fill: red;"/><text dy=".31em" text-anchor="start" transform="translate(8)">food</text></g><g class="node" transform="rotate(72)translate(240)"><circle r="6" style="opacity: 0.65; fill: red;"/><text dy=".31em" text-anchor="start" transform="translate(8)">thai</text></g><g class="node" transform="rotate(74.25)translate(240)"><circle r="6" style="opacity: 0.6; fill: red;"/><text dy=".31em" text-anchor="start" transform="translate(8)">muffin</text></g><g class="node" transform="rotate(76.5)translate(240)"><circle r="6" style="opacity: 0.55; fill: red;"/><text dy=".31em" text-anchor="start" transform="translate(8)">entree</text></g><g class="node" transform="rotate(78.75)translate(240)"><circle r="6" style="opacity: 0.5; fill: red;"/><text dy=".31em" text-anchor="start" transform="translate(8)">chipotle</text></g><g class="node" transform="rotate(81.00000000000003)translate(240)"><circle r="6" style="opacity: 0.45; fill: red;"/><text dy=".31em" text-anchor="start" transform="translate(8)">cobb</text></g><g class="node" transform="rotate(83.25)translate(240)"><circle r="6" style="opacity: 0.4; fill: red;"/><text dy=".31em" text-anchor="start" transform="translate(8)">imagine</text></g><g class="node" transform="rotate(85.5)translate(240)"><circle r="6" style="opacity: 0.35; fill: red;"/><text dy=".31em" text-anchor="start" transform="translate(8)">yummy</text></g><g class="node" transform="rotate(87.75)translate(240)"><circle r="6" style="opacity: 0.3; fill: red;"/><text dy=".31em" text-anchor="start" transform="translate(8)">bold</text></g><g class="node" transform="rotate(180.00000000000006)translate(80)"><circle r="6" style="fill: green;"/><text dy=".31em" text-anchor="end" transform="rotate(180)translate(-8)">High</text></g><g class="node" transform="rotate(108.00000000000003)translate(160)"><circle r="6" style="opacity: 1; fill: green;"/><text dy=".31em" text-anchor="end" transform="rotate(180)translate(-8)">Topic 0</text></g><g class="node" transform="rotate(92.25000000000003)translate(240)"><circle r="6" style="opacity: 1; fill: green;"/><text dy=".31em" text-anchor="end" transform="rotate(180)translate(-8)">wines</text></g><g class="node" transform="rotate(94.50000000000003)translate(240)"><circle r="6" style="opacity: 0.95; fill: green;"/><text dy=".31em" text-anchor="end" transform="rotate(180)translate(-8)">filet</text></g><g class="node" transform="rotate(96.75000000000003)translate(240)"><circle r="6" style="opacity: 0.9; fill: green;"/><text dy=".31em" text-anchor="end" transform="rotate(180)translate(-8)">cons</text></g><g class="node" transform="rotate(99.00000000000003)translate(240)"><circle r="6" style="opacity: 0.85; fill: green;"/><text dy=".31em" text-anchor="end" transform="rotate(180)translate(-8)">sides</text></g><g class="node" transform="rotate(101.25000000000003)translate(240)"><circle r="6" style="opacity: 0.8; fill: green;"/><text dy=".31em" text-anchor="end" transform="rotate(180)translate(-8)">word</text></g><g class="node" transform="rotate(103.50000000000003)translate(240)"><circle r="6" style="opacity: 0.75; fill: green;"/><text dy=".31em" text-anchor="end" transform="rotate(180)translate(-8)">post</text></g><g class="node" transform="rotate(105.75000000000003)translate(240)"><circle r="6" style="opacity: 0.7; fill: green;"/><text dy=".31em" text-anchor="end" transform="rotate(180)translate(-8)">baby</text></g><g class="node" transform="rotate(108.00000000000003)translate(240)"><circle r="6" style="opacity: 0.65; fill: green;"/><text dy=".31em" text-anchor="end" transform="rotate(180)translate(-8)">wrapped</text></g><g class="node" transform="rotate(110.25000000000003)translate(240)"><circle r="6" style="opacity: 0.6; fill: green;"/><text dy=".31em" text-anchor="end" transform="rotate(180)translate(-8)">turned</text></g><g class="node" transform="rotate(112.50000000000003)translate(240)"><circle r="6" style="opacity: 0.55; fill: green;"/><text dy=".31em" text-anchor="end" transform="rotate(180)translate(-8)">pretentious</text></g><g class="node" transform="rotate(114.75000000000003)translate(240)"><circle r="6" style="opacity: 0.5; fill: green;"/><text dy=".31em" text-anchor="end" transform="rotate(180)translate(-8)">tv</text></g><g class="node" transform="rotate(117.00000000000003)translate(240)"><circle r="6" style="opacity: 0.45; fill: green;"/><text dy=".31em" text-anchor="end" transform="rotate(180)translate(-8)">spent</text></g><g class="node" transform="rotate(119.25000000000003)translate(240)"><circle r="6" style="opacity: 0.4; fill: green;"/><text dy=".31em" text-anchor="end" transform="rotate(180)translate(-8)">tart</text></g><g class="node" transform="rotate(121.50000000000003)translate(240)"><circle r="6" style="opacity: 0.35; fill: green;"/><text dy=".31em" text-anchor="end" transform="rotate(180)translate(-8)">pickle</text></g><g class="node" transform="rotate(123.75)translate(240)"><circle r="6" style="opacity: 0.3; fill: green;"/><text dy=".31em" text-anchor="end" transform="rotate(180)translate(-8)">planning</text></g><g class="node" transform="rotate(144.00000000000003)translate(160)"><circle r="6" style="opacity: 1; fill: green;"/><text dy=".31em" text-anchor="end" transform="rotate(180)translate(-8)">Topic 1</text></g><g class="node" transform="rotate(128.25000000000006)translate(240)"><circle r="6" style="opacity: 1; fill: green;"/><text dy=".31em" text-anchor="end" transform="rotate(180)translate(-8)">board</text></g><g class="node" transform="rotate(130.5)translate(240)"><circle r="6" style="opacity: 0.95; fill: green;"/><text dy=".31em" text-anchor="end" transform="rotate(180)translate(-8)">panini</text></g><g class="node" transform="rotate(132.75000000000003)translate(240)"><circle r="6" style="opacity: 0.9; fill: green;"/><text dy=".31em" text-anchor="end" transform="rotate(180)translate(-8)">smoked</text></g><g class="node" transform="rotate(135.00000000000006)translate(240)"><circle r="6" style="opacity: 0.85; fill: green;"/><text dy=".31em" text-anchor="end" transform="rotate(180)translate(-8)">olives</text></g><g class="node" transform="rotate(137.25)translate(240)"><circle r="6" style="opacity: 0.8; fill: green;"/><text dy=".31em" text-anchor="end" transform="rotate(180)translate(-8)">muffin</text></g><g class="node" transform="rotate(139.50000000000003)translate(240)"><circle r="6" style="opacity: 0.75; fill: green;"/><text dy=".31em" text-anchor="end" transform="rotate(180)translate(-8)">gelato</text></g><g class="node" transform="rotate(141.75000000000006)translate(240)"><circle r="6" style="opacity: 0.7; fill: green;"/><text dy=".31em" text-anchor="end" transform="rotate(180)translate(-8)">lgo</text></g><g class="node" transform="rotate(144.00000000000003)translate(240)"><circle r="6" style="opacity: 0.65; fill: green;"/><text dy=".31em" text-anchor="end" transform="rotate(180)translate(-8)">walls</text></g><g class="node" transform="rotate(146.25000000000003)translate(240)"><circle r="6" style="opacity: 0.6; fill: green;"/><text dy=".31em" text-anchor="end" transform="rotate(180)translate(-8)">taco</text></g><g class="node" transform="rotate(148.5)translate(240)"><circle r="6" style="opacity: 0.55; fill: green;"/><text dy=".31em" text-anchor="end" transform="rotate(180)translate(-8)">presented</text></g><g class="node" transform="rotate(150.75000000000003)translate(240)"><circle r="6" style="opacity: 0.5; fill: green;"/><text dy=".31em" text-anchor="end" transform="rotate(180)translate(-8)">mile</text></g><g class="node" transform="rotate(153.00000000000003)translate(240)"><circle r="6" style="opacity: 0.45; fill: green;"/><text dy=".31em" text-anchor="end" transform="rotate(180)translate(-8)">girl</text></g><g class="node" transform="rotate(155.25)translate(240)"><circle r="6" style="opacity: 0.4; fill: green;"/><text dy=".31em" text-anchor="end" transform="rotate(180)translate(-8)">dollar</text></g><g class="node" transform="rotate(157.50000000000003)translate(240)"><circle r="6" style="opacity: 0.35; fill: green;"/><text dy=".31em" text-anchor="end" transform="rotate(180)translate(-8)">pain</text></g><g class="node" transform="rotate(159.75000000000003)translate(240)"><circle r="6" style="opacity: 0.3; fill: green;"/><text dy=".31em" text-anchor="end" transform="rotate(180)translate(-8)">sugar</text></g><g class="node" transform="rotate(180.00000000000006)translate(160)"><circle r="6" style="opacity: 1; fill: green;"/><text dy=".31em" text-anchor="end" transform="rotate(180)translate(-8)">Topic 2</text></g><g class="node" transform="rotate(164.25000000000006)translate(240)"><circle r="6" style="opacity: 1; fill: green;"/><text dy=".31em" text-anchor="end" transform="rotate(180)translate(-8)">bruschetta</text></g><g class="node" transform="rotate(166.50000000000006)translate(240)"><circle r="6" style="opacity: 0.95; fill: green;"/><text dy=".31em" text-anchor="end" transform="rotate(180)translate(-8)">wine</text></g><g class="node" transform="rotate(168.75000000000006)translate(240)"><circle r="6" style="opacity: 0.9; fill: green;"/><text dy=".31em" text-anchor="end" transform="rotate(180)translate(-8)">good</text></g><g class="node" transform="rotate(171.00000000000006)translate(240)"><circle r="6" style="opacity: 0.85; fill: green;"/><text dy=".31em" text-anchor="end" transform="rotate(180)translate(-8)">place</text></g><g class="node" transform="rotate(173.25000000000006)translate(240)"><circle r="6" style="opacity: 0.8; fill: green;"/><text dy=".31em" text-anchor="end" transform="rotate(180)translate(-8)">great</text></g><g class="node" transform="rotate(175.50000000000006)translate(240)"><circle r="6" style="opacity: 0.75; fill: green;"/><text dy=".31em" text-anchor="end" transform="rotate(180)translate(-8)">food</text></g><g class="node" transform="rotate(177.75000000000006)translate(240)"><circle r="6" style="opacity: 0.7; fill: green;"/><text dy=".31em" text-anchor="end" transform="rotate(180)translate(-8)">postino</text></g><g class="node" transform="rotate(180.00000000000006)translate(240)"><circle r="6" style="opacity: 0.65; fill: green;"/><text dy=".31em" text-anchor="end" transform="rotate(180)translate(-8)">just</text></g><g class="node" transform="rotate(182.25000000000006)translate(240)"><circle r="6" style="opacity: 0.6; fill: green;"/><text dy=".31em" text-anchor="end" transform="rotate(180)translate(-8)">love</text></g><g class="node" transform="rotate(184.50000000000006)translate(240)"><circle r="6" style="opacity: 0.55; fill: green;"/><text dy=".31em" text-anchor="end" transform="rotate(180)translate(-8)">like</text></g><g class="node" transform="rotate(186.75000000000006)translate(240)"><circle r="6" style="opacity: 0.5; fill: green;"/><text dy=".31em" text-anchor="end" transform="rotate(180)translate(-8)">really</text></g><g class="node" transform="rotate(189.00000000000006)translate(240)"><circle r="6" style="opacity: 0.45; fill: green;"/><text dy=".31em" text-anchor="end" transform="rotate(180)translate(-8)">try</text></g><g class="node" transform="rotate(191.25000000000006)translate(240)"><circle r="6" style="opacity: 0.4; fill: green;"/><text dy=".31em" text-anchor="end" transform="rotate(180)translate(-8)">time</text></g><g class="node" transform="rotate(193.50000000000006)translate(240)"><circle r="6" style="opacity: 0.35; fill: green;"/><text dy=".31em" text-anchor="end" transform="rotate(180)translate(-8)">ve</text></g><g class="node" transform="rotate(195.75000000000006)translate(240)"><circle r="6" style="opacity: 0.3; fill: green;"/><text dy=".31em" text-anchor="end" transform="rotate(180)translate(-8)">ordered</text></g><g class="node" transform="rotate(216)translate(160)"><circle r="6" style="opacity: 1; fill: green;"/><text dy=".31em" text-anchor="end" transform="rotate(180)translate(-8)">Topic 3</text></g><g class="node" transform="rotate(200.25000000000006)translate(240)"><circle r="6" style="opacity: 1; fill: green;"/><text dy=".31em" text-anchor="end" transform="rotate(180)translate(-8)">cheese</text></g><g class="node" transform="rotate(202.5)translate(240)"><circle r="6" style="opacity: 0.95; fill: green;"/><text dy=".31em" text-anchor="end" transform="rotate(180)translate(-8)">sliders</text></g><g class="node" transform="rotate(204.75000000000006)translate(240)"><circle r="6" style="opacity: 0.9; fill: green;"/><text dy=".31em" text-anchor="end" transform="rotate(180)translate(-8)">good</text></g><g class="node" transform="rotate(207.00000000000006)translate(240)"><circle r="6" style="opacity: 0.85; fill: green;"/><text dy=".31em" text-anchor="end" transform="rotate(180)translate(-8)">fresh</text></g><g class="node" transform="rotate(209.25)translate(240)"><circle r="6" style="opacity: 0.8; fill: green;"/><text dy=".31em" text-anchor="end" transform="rotate(180)translate(-8)">brie</text></g><g class="node" transform="rotate(211.50000000000006)translate(240)"><circle r="6" style="opacity: 0.75; fill: green;"/><text dy=".31em" text-anchor="end" transform="rotate(180)translate(-8)">prosciutto</text></g><g class="node" transform="rotate(213.75000000000006)translate(240)"><circle r="6" style="opacity: 0.7; fill: green;"/><text dy=".31em" text-anchor="end" transform="rotate(180)translate(-8)">salad</text></g><g class="node" transform="rotate(216)translate(240)"><circle r="6" style="opacity: 0.65; fill: green;"/><text dy=".31em" text-anchor="end" transform="rotate(180)translate(-8)">sauce</text></g><g class="node" transform="rotate(218.25000000000006)translate(240)"><circle r="6" style="opacity: 0.6; fill: green;"/><text dy=".31em" text-anchor="end" transform="rotate(180)translate(-8)">chicken</text></g><g class="node" transform="rotate(220.50000000000006)translate(240)"><circle r="6" style="opacity: 0.55; fill: green;"/><text dy=".31em" text-anchor="end" transform="rotate(180)translate(-8)">bread</text></g><g class="node" transform="rotate(222.75)translate(240)"><circle r="6" style="opacity: 0.5; fill: green;"/><text dy=".31em" text-anchor="end" transform="rotate(180)translate(-8)">tomato</text></g><g class="node" transform="rotate(225.00000000000006)translate(240)"><circle r="6" style="opacity: 0.45; fill: green;"/><text dy=".31em" text-anchor="end" transform="rotate(180)translate(-8)">like</text></g><g class="node" transform="rotate(227.25000000000006)translate(240)"><circle r="6" style="opacity: 0.4; fill: green;"/><text dy=".31em" text-anchor="end" transform="rotate(180)translate(-8)">ordered</text></g><g class="node" transform="rotate(229.5)translate(240)"><circle r="6" style="opacity: 0.35; fill: green;"/><text dy=".31em" text-anchor="end" transform="rotate(180)translate(-8)">hot</text></g><g class="node" transform="rotate(231.75)translate(240)"><circle r="6" style="opacity: 0.3; fill: green;"/><text dy=".31em" text-anchor="end" transform="rotate(180)translate(-8)">wally</text></g><g class="node" transform="rotate(252.00000000000006)translate(160)"><circle r="6" style="opacity: 1; fill: green;"/><text dy=".31em" text-anchor="end" transform="rotate(180)translate(-8)">Topic 4</text></g><g class="node" transform="rotate(236.25)translate(240)"><circle r="6" style="opacity: 1; fill: green;"/><text dy=".31em" text-anchor="end" transform="rotate(180)translate(-8)">place</text></g><g class="node" transform="rotate(238.5)translate(240)"><circle r="6" style="opacity: 0.95; fill: green;"/><text dy=".31em" text-anchor="end" transform="rotate(180)translate(-8)">food</text></g><g class="node" transform="rotate(240.75000000000006)translate(240)"><circle r="6" style="opacity: 0.9; fill: green;"/><text dy=".31em" text-anchor="end" transform="rotate(180)translate(-8)">service</text></g><g class="node" transform="rotate(243)translate(240)"><circle r="6" style="opacity: 0.85; fill: green;"/><text dy=".31em" text-anchor="end" transform="rotate(180)translate(-8)">great</text></g><g class="node" transform="rotate(245.25)translate(240)"><circle r="6" style="opacity: 0.8; fill: green;"/><text dy=".31em" text-anchor="end" transform="rotate(180)translate(-8)">good</text></g><g class="node" transform="rotate(247.50000000000006)translate(240)"><circle r="6" style="opacity: 0.75; fill: green;"/><text dy=".31em" text-anchor="end" transform="rotate(180)translate(-8)">parking</text></g><g class="node" transform="rotate(249.75)translate(240)"><circle r="6" style="opacity: 0.7; fill: green;"/><text dy=".31em" text-anchor="end" transform="rotate(180)translate(-8)">like</text></g><g class="node" transform="rotate(252.00000000000006)translate(240)"><circle r="6" style="opacity: 0.65; fill: green;"/><text dy=".31em" text-anchor="end" transform="rotate(180)translate(-8)">restaurant</text></g><g class="node" transform="rotate(254.25000000000006)translate(240)"><circle r="6" style="opacity: 0.6; fill: green;"/><text dy=".31em" text-anchor="end" transform="rotate(180)translate(-8)">time</text></g><g class="node" transform="rotate(256.5)translate(240)"><circle r="6" style="opacity: 0.55; fill: green;"/><text dy=".31em" text-anchor="end" transform="rotate(180)translate(-8)">just</text></g><g class="node" transform="rotate(258.75000000000006)translate(240)"><circle r="6" style="opacity: 0.5; fill: green;"/><text dy=".31em" text-anchor="end" transform="rotate(180)translate(-8)">atmosphere</text></g><g class="node" transform="rotate(261.00000000000006)translate(240)"><circle r="6" style="opacity: 0.45; fill: green;"/><text dy=".31em" text-anchor="end" transform="rotate(180)translate(-8)">friendly</text></g><g class="node" transform="rotate(263.25)translate(240)"><circle r="6" style="opacity: 0.4; fill: green;"/><text dy=".31em" text-anchor="end" transform="rotate(180)translate(-8)">love</text></g><g class="node" transform="rotate(265.50000000000006)translate(240)"><circle r="6" style="opacity: 0.35; fill: green;"/><text dy=".31em" text-anchor="end" transform="rotate(180)translate(-8)">wine</text></g><g class="node" transform="rotate(267.75000000000006)translate(240)"><circle r="6" style="opacity: 0.3; fill: green;"/><text dy=".31em" text-anchor="end" transform="rotate(180)translate(-8)">don</text></g></g></svg></svg>