<svg width="960" height="810" xmlns="http://www.w3.org/2000/svg" style="animation-delay: 0s; animation-direction: normal; animation-duration: 0s; animation-fill-mode: none; animation-iteration-count: 1; animation-name: none; animation-play-state: running; animation-timing-function: ease; background-attachment: scroll; background-blend-mode: normal; background-clip: border-box; background-color: rgba(0, 0, 0, 0); background-image: none; background-origin: padding-box; background-position: 0% 0%; background-repeat: repeat; background-size: auto; border-bottom-color: rgb(0, 0, 0); border-bottom-left-radius: 0px; border-bottom-right-radius: 0px; border-bottom-style: none; border-bottom-width: 0px; border-collapse: separate; border-image-outset: 0px; border-image-repeat: stretch; border-image-slice: 100%; border-image-source: none; border-image-width: 1; border-left-color: rgb(0, 0, 0); border-left-style: none; border-left-width: 0px; border-right-color: rgb(0, 0, 0); border-right-style: none; border-right-width: 0px; border-top-color: rgb(0, 0, 0); border-top-left-radius: 0px; border-top-right-radius: 0px; border-top-style: none; border-top-width: 0px; bottom: auto; box-shadow: none; box-sizing: content-box; caption-side: top; clear: none; clip: auto; color: rgb(0, 0, 0); cursor: auto; direction: ltr; display: inline; empty-cells: show; float: none; font-family: 'Times New Roman'; font-kerning: auto; font-size: 16px; font-stretch: normal; font-style: normal; font-variant: normal; font-variant-ligatures: normal; font-weight: normal; height: 810px; image-rendering: auto; isolation: auto; left: auto; letter-spacing: normal; line-height: normal; list-style-image: none; list-style-position: outside; list-style-type: disc; margin-bottom: 0px; margin-left: 0px; margin-right: 0px; margin-top: 0px; max-height: none; max-width: none; min-height: 0px; min-width: 0px; mix-blend-mode: normal; motion-offset: 0px; motion-path: none; motion-rotation: auto 0deg; object-fit: fill; object-position: 50% 50%; opacity: 1; orphans: auto; outline-color: rgb(0, 0, 0); outline-offset: 0px; outline-style: none; outline-width: 0px; overflow-wrap: normal; overflow-x: hidden; overflow-y: hidden; padding-bottom: 0px; padding-left: 0px; padding-right: 0px; padding-top: 0px; page-break-after: auto; page-break-before: auto; page-break-inside: auto; pointer-events: auto; position: static; resize: none; right: auto; speak: normal; table-layout: auto; tab-size: 8; text-align: start; text-decoration: none; text-indent: 0px; text-rendering: auto; text-shadow: none; text-overflow: clip; text-transform: none; top: auto; touch-action: auto; transition-delay: 0s; transition-duration: 0s; transition-property: all; transition-timing-function: ease; unicode-bidi: normal; vertical-align: baseline; visibility: visible; white-space: normal; widows: 1; width: 960px; will-change: auto; word-break: normal; word-spacing: 0px; word-wrap: normal; z-index: auto; zoom: 1; -webkit-appearance: none; backface-visibility: visible; -webkit-background-clip: border-box; -webkit-background-composite: source-over; -webkit-background-origin: padding-box; -webkit-border-horizontal-spacing: 0px; -webkit-border-image: none; -webkit-border-vertical-spacing: 0px; -webkit-box-align: stretch; -webkit-box-decoration-break: slice; -webkit-box-direction: normal; -webkit-box-flex: 0; -webkit-box-flex-group: 1; -webkit-box-lines: single; -webkit-box-ordinal-group: 1; -webkit-box-orient: horizontal; -webkit-box-pack: start; -webkit-box-reflect: none; -webkit-clip-path: none; -webkit-column-break-after: auto; -webkit-column-break-before: auto; -webkit-column-break-inside: auto; -webkit-column-count: auto; -webkit-column-gap: normal; -webkit-column-rule-color: rgb(0, 0, 0); -webkit-column-rule-style: none; -webkit-column-rule-width: 0px; -webkit-column-span: none; -webkit-column-width: auto; -webkit-filter: none; align-content: start; align-items: start; align-self: start; flex-basis: auto; flex-grow: 0; flex-shrink: 1; flex-direction: row; flex-wrap: nowrap; justify-content: start; -webkit-font-smoothing: auto; -webkit-highlight: none; -webkit-hyphenate-character: auto; -webkit-line-box-contain: block inline replaced; -webkit-line-break: auto; -webkit-line-clamp: none; -webkit-locale: auto; -webkit-margin-before-collapse: collapse; -webkit-margin-after-collapse: collapse; -webkit-mask-box-image: none; -webkit-mask-box-image-outset: 0px; -webkit-mask-box-image-repeat: stretch; -webkit-mask-box-image-slice: 0 fill; -webkit-mask-box-image-source: none; -webkit-mask-box-image-width: auto; -webkit-mask-clip: border-box; -webkit-mask-composite: source-over; -webkit-mask-image: none; -webkit-mask-origin: border-box; -webkit-mask-position: 0% 0%; -webkit-mask-repeat: repeat; -webkit-mask-size: auto; order: 0; perspective: none; perspective-origin: 480px 405px; -webkit-print-color-adjust: economy; -webkit-rtl-ordering: logical; shape-outside: none; shape-image-threshold: 0; shape-margin: 0px; -webkit-tap-highlight-color: rgba(0, 0, 0, 0.180392); -webkit-text-combine: none; -webkit-text-decorations-in-effect: none; -webkit-text-emphasis-color: rgb(0, 0, 0); -webkit-text-emphasis-position: over; -webkit-text-emphasis-style: none; -webkit-text-fill-color: rgb(0, 0, 0); -webkit-text-orientation: vertical-right; -webkit-text-security: none; -webkit-text-stroke-color: rgb(0, 0, 0); -webkit-text-stroke-width: 0px; transform: none; transform-origin: 480px 405px; transform-style: flat; -webkit-user-drag: auto; -webkit-user-modify: read-only; -webkit-user-select: text; -webkit-writing-mode: horizontal-tb; -webkit-app-region: no-drag; buffered-rendering: auto; clip-path: none; clip-rule: nonzero; mask: none; filter: none; flood-color: rgb(0, 0, 0); flood-opacity: 1; lighting-color: rgb(255, 255, 255); stop-color: rgb(0, 0, 0); stop-opacity: 1; color-interpolation: sRGB; color-interpolation-filters: linearRGB; color-rendering: auto; fill: rgb(0, 0, 0); fill-opacity: 1; fill-rule: nonzero; marker-end: none; marker-mid: none; marker-start: none; mask-type: luminance; shape-rendering: auto; stroke: none; stroke-dasharray: none; stroke-dashoffset: 0px; stroke-linecap: butt; stroke-linejoin: miter; stroke-miterlimit: 4; stroke-opacity: 1; stroke-width: 1px; alignment-baseline: auto; baseline-shift: 0px; dominant-baseline: auto; text-anchor: start; writing-mode: lr-tb; glyph-orientation-horizontal: 0deg; glyph-orientation-vertical: auto; vector-effect: none; paint-order: fill stroke markers; cx: 0px; cy: 0px; x: 0px; y: 0px; r: 0px; rx: 0px; ry: 0px;" version="1.1" xmlns:xlink="http://www.w3.org/1999/xlink"><style type="text/css">.node { font-style: normal; font-variant: normal; font-weight: normal; font-stretch: normal; font-size: 10px; line-height: normal; font-family: sans-serif; }
.link { fill: none; stroke: rgb(204, 204, 204); stroke-width: 1.5px; }</style><svg xmlns="http://www.w3.org/2000/svg"><g transform="translate(480,480)"><path class="link" d="M0,0C3.67394039744206e-15,60 18.541019662496847,-57.06339097770921 37.082039324993694,-114.12678195541842"/><path class="link" d="M0,0C3.67394039744206e-15,60 48.54101966249685,-35.26711513754839 97.0820393249937,-70.53423027509677"/><path class="link" d="M0,0C3.67394039744206e-15,60 60,0 120,0"/><path class="link" d="M0,0C3.67394039744206e-15,60 48.54101966249685,35.26711513754839 97.0820393249937,70.53423027509677"/><path class="link" d="M0,0C3.67394039744206e-15,60 18.541019662496847,57.06339097770921 37.082039324993694,114.12678195541842"/><path class="link" d="M0,0C3.67394039744206e-15,60 -18.54101966249687,57.063390977709204 -37.08203932499374,114.12678195541841"/><path class="link" d="M0,0C3.67394039744206e-15,60 -48.54101966249685,35.267115137548394 -97.0820393249937,70.53423027509679"/><path class="link" d="M0,0C3.67394039744206e-15,60 -60,7.34788079488412e-15 -120,1.469576158976824e-14"/><path class="link" d="M0,0C3.67394039744206e-15,60 -48.54101966249685,-35.26711513754838 -97.0820393249937,-70.53423027509676"/><path class="link" d="M0,0C3.67394039744206e-15,60 -18.541019662496854,-57.06339097770921 -37.08203932499371,-114.12678195541842"/><path class="link" d="M37.082039324993694,-114.12678195541842C55.62305898749054,-171.19017293312763 7.06676683663236,-179.86122652333012 9.42235578217648,-239.8149686977735"/><path class="link" d="M37.082039324993694,-114.12678195541842C55.62305898749054,-171.19017293312763 14.1226372310121,-179.44512007196303 18.8301829746828,-239.2601600959507"/><path class="link" d="M37.082039324993694,-114.12678195541842C55.62305898749054,-171.19017293312763 21.156731542410785,-178.75232225188674 28.208975389881047,-238.3364296691823"/><path class="link" d="M37.082039324993694,-114.12678195541842C55.62305898749054,-171.19017293312763 28.158203707241565,-177.7839013071248 37.544271609655425,-237.04520174283306"/><path class="link" d="M37.082039324993694,-114.12678195541842C55.62305898749054,-171.19017293312763 35.1162579629031,-176.54135047258148 46.8216772838708,-235.3884672967753"/><path class="link" d="M37.082039324993694,-114.12678195541842C55.62305898749054,-171.19017293312763 42.02016549406299,-175.02658567158178 56.02688732541731,-233.36878089544237"/><path class="link" d="M37.082039324993694,-114.12678195541842C55.62305898749054,-171.19017293312763 48.859280975713375,-173.24194256165651 65.14570796761784,-230.98925674887533"/><path class="link" d="M37.082039324993694,-114.12678195541842C55.62305898749054,-171.19017293312763 55.62305898749054,-171.19017293312763 74.16407864998739,-228.25356391083685"/><path class="link" d="M37.082039324993694,-114.12678195541842C55.62305898749054,-171.19017293312763 62.301070273948746,-168.87444046604716 83.06809369859832,-225.1659206213962"/><path class="link" d="M37.082039324993694,-114.12678195541842C55.62305898749054,-171.19017293312763 68.88301782571617,-166.2983158520316 91.84402376762156,-221.73108780270883"/><path class="link" d="M37.082039324993694,-114.12678195541842C55.62305898749054,-171.19017293312763 75.35875275673706,-163.46577128851462 100.47833700898275,-217.9543617180195"/><path class="link" d="M37.082039324993694,-114.12678195541842C55.62305898749054,-171.19017293312763 81.71828995311843,-160.3811743539062 108.95771993749125,-213.84156580520826"/><path class="link" d="M37.082039324993694,-114.12678195541842C55.62305898749054,-171.19017293312763 87.9518234694519,-157.04928127310347 117.26909795926919,-209.3990416974713"/><path class="link" d="M37.082039324993694,-114.12678195541842C55.62305898749054,-171.19017293312763 94.0497416488708,-153.4752295837366 125.39965553182773,-204.63363944498212"/><path class="link" d="M37.082039324993694,-114.12678195541842C55.62305898749054,-171.19017293312763 100.00264194352842,-149.66453021445815 133.33685592470454,-199.55270695261086"/><path class="link" d="M97.0820393249937,-70.53423027509677C145.62305898749054,-105.80134541264516 111.43691087577011,-141.35704755853408 148.58254783436016,-188.4760634113788"/><path class="link" d="M97.0820393249937,-70.53423027509677C145.62305898749054,-105.80134541264516 116.90064869943306,-136.87307380800556 155.86753159924407,-182.49743174400743"/><path class="link" d="M97.0820393249937,-70.53423027509677C145.62305898749054,-105.80134541264516 122.18413419592952,-132.1780516984234 162.91217892790604,-176.23740226456454"/><path class="link" d="M97.0820393249937,-70.53423027509677C145.62305898749054,-105.80134541264516 127.27922061357856,-127.27922061357854 169.7056274847714,-169.70562748477138"/><path class="link" d="M97.0820393249937,-70.53423027509677C145.62305898749054,-105.80134541264516 132.1780516984234,-122.1841341959295 176.23740226456454,-162.912178927906"/><path class="link" d="M97.0820393249937,-70.53423027509677C145.62305898749054,-105.80134541264516 136.87307380800559,-116.90064869943303 182.49743174400746,-155.86753159924405"/><path class="link" d="M97.0820393249937,-70.53423027509677C145.62305898749054,-105.80134541264516 141.35704755853408,-111.43691087577014 188.47606341137876,-148.58254783436018"/><path class="link" d="M97.0820393249937,-70.53423027509677C145.62305898749054,-105.80134541264516 145.62305898749054,-105.80134541264516 194.1640786499874,-141.06846055019355"/><path class="link" d="M97.0820393249937,-70.53423027509677C145.62305898749054,-105.80134541264516 149.66453021445815,-100.00264194352839 199.55270695261086,-133.33685592470454"/><path class="link" d="M97.0820393249937,-70.53423027509677C145.62305898749054,-105.80134541264516 153.47522958373662,-94.04974164887078 204.63363944498215,-125.3996555318277"/><path class="link" d="M97.0820393249937,-70.53423027509677C145.62305898749054,-105.80134541264516 157.0492812731035,-87.9518234694519 209.39904169747132,-117.26909795926919"/><path class="link" d="M97.0820393249937,-70.53423027509677C145.62305898749054,-105.80134541264516 160.38117435390623,-81.71828995311841 213.8415658052083,-108.95771993749122"/><path class="link" d="M97.0820393249937,-70.53423027509677C145.62305898749054,-105.80134541264516 163.46577128851465,-75.35875275673705 217.95436171801953,-100.47833700898273"/><path class="link" d="M97.0820393249937,-70.53423027509677C145.62305898749054,-105.80134541264516 166.2983158520316,-68.88301782571617 221.73108780270883,-91.84402376762155"/><path class="link" d="M97.0820393249937,-70.53423027509677C145.62305898749054,-105.80134541264516 168.87444046604716,-62.30107027394873 225.1659206213962,-83.06809369859832"/><path class="link" d="M120,0C180,0 173.24194256165651,-48.85928097571337 230.98925674887533,-65.14570796761782"/><path class="link" d="M120,0C180,0 175.02658567158178,-42.02016549406297 233.36878089544237,-56.02688732541729"/><path class="link" d="M120,0C180,0 176.54135047258148,-35.116257962903084 235.3884672967753,-46.82167728387078"/><path class="link" d="M120,0C180,0 177.7839013071248,-28.158203707241558 237.04520174283306,-37.54427160965541"/><path class="link" d="M120,0C180,0 178.75232225188674,-21.156731542410775 238.3364296691823,-28.208975389881033"/><path class="link" d="M120,0C180,0 179.44512007196303,-14.12263723101209 239.2601600959507,-18.830182974682785"/><path class="link" d="M120,0C180,0 179.86122652333012,-7.0667668366323495 239.8149686977735,-9.422355782176467"/><path class="link" d="M120,0C180,0 180,0 240,0"/><path class="link" d="M120,0C180,0 179.86122652333012,7.0667668366323095 239.8149686977735,9.422355782176414"/><path class="link" d="M120,0C180,0 179.44512007196303,14.12263723101209 239.2601600959507,18.830182974682785"/><path class="link" d="M120,0C180,0 178.75232225188674,21.156731542410775 238.3364296691823,28.208975389881033"/><path class="link" d="M120,0C180,0 177.78390130712478,28.158203707241597 237.04520174283303,37.54427160965546"/><path class="link" d="M120,0C180,0 176.54135047258148,35.116257962903084 235.3884672967753,46.82167728387078"/><path class="link" d="M120,0C180,0 175.0265856715818,42.02016549406294 233.3687808954424,56.02688732541725"/><path class="link" d="M120,0C180,0 173.24194256165651,48.85928097571337 230.98925674887533,65.14570796761782"/><path class="link" d="M97.0820393249937,70.53423027509677C145.62305898749054,105.80134541264516 168.87444046604713,62.301070273948774 225.16592062139617,83.06809369859836"/><path class="link" d="M97.0820393249937,70.53423027509677C145.62305898749054,105.80134541264516 166.2983158520316,68.88301782571617 221.73108780270883,91.84402376762155"/><path class="link" d="M97.0820393249937,70.53423027509677C145.62305898749054,105.80134541264516 163.46577128851465,75.35875275673702 217.95436171801953,100.47833700898269"/><path class="link" d="M97.0820393249937,70.53423027509677C145.62305898749054,105.80134541264516 160.38117435390623,81.71828995311841 213.8415658052083,108.95771993749122"/><path class="link" d="M97.0820393249937,70.53423027509677C145.62305898749054,105.80134541264516 157.0492812731035,87.95182346945185 209.39904169747135,117.26909795926913"/><path class="link" d="M97.0820393249937,70.53423027509677C145.62305898749054,105.80134541264516 153.47522958373662,94.04974164887078 204.63363944498215,125.3996555318277"/><path class="link" d="M97.0820393249937,70.53423027509677C145.62305898749054,105.80134541264516 149.66453021445815,100.00264194352837 199.5527069526109,133.3368559247045"/><path class="link" d="M97.0820393249937,70.53423027509677C145.62305898749054,105.80134541264516 145.62305898749054,105.80134541264516 194.1640786499874,141.06846055019355"/><path class="link" d="M97.0820393249937,70.53423027509677C145.62305898749054,105.80134541264516 141.35704755853408,111.43691087577015 188.47606341137876,148.5825478343602"/><path class="link" d="M97.0820393249937,70.53423027509677C145.62305898749054,105.80134541264516 136.87307380800556,116.90064869943306 182.49743174400743,155.86753159924407"/><path class="link" d="M97.0820393249937,70.53423027509677C145.62305898749054,105.80134541264516 132.1780516984234,122.18413419592954 176.2374022645645,162.91217892790604"/><path class="link" d="M97.0820393249937,70.53423027509677C145.62305898749054,105.80134541264516 127.27922061357856,127.27922061357854 169.7056274847714,169.70562748477138"/><path class="link" d="M97.0820393249937,70.53423027509677C145.62305898749054,105.80134541264516 122.18413419592954,132.17805169842336 162.91217892790604,176.23740226456448"/><path class="link" d="M97.0820393249937,70.53423027509677C145.62305898749054,105.80134541264516 116.90064869943306,136.87307380800556 155.86753159924407,182.4974317440074"/><path class="link" d="M97.0820393249937,70.53423027509677C145.62305898749054,105.80134541264516 111.43691087577015,141.35704755853405 148.5825478343602,188.47606341137873"/><path class="link" d="M37.082039324993694,114.12678195541842C55.62305898749054,171.19017293312763 100.00264194352837,149.66453021445815 133.3368559247045,199.5527069526109"/><path class="link" d="M37.082039324993694,114.12678195541842C55.62305898749054,171.19017293312763 94.0497416488708,153.4752295837366 125.39965553182773,204.63363944498212"/><path class="link" d="M37.082039324993694,114.12678195541842C55.62305898749054,171.19017293312763 87.95182346945187,157.0492812731035 117.26909795926915,209.39904169747132"/><path class="link" d="M37.082039324993694,114.12678195541842C55.62305898749054,171.19017293312763 81.71828995311843,160.3811743539062 108.95771993749125,213.84156580520826"/><path class="link" d="M37.082039324993694,114.12678195541842C55.62305898749054,171.19017293312763 75.35875275673702,163.46577128851465 100.47833700898269,217.95436171801953"/><path class="link" d="M37.082039324993694,114.12678195541842C55.62305898749054,171.19017293312763 68.88301782571617,166.2983158520316 91.84402376762156,221.73108780270883"/><path class="link" d="M37.082039324993694,114.12678195541842C55.62305898749054,171.19017293312763 62.30107027394878,168.87444046604713 83.06809369859837,225.16592062139617"/><path class="link" d="M37.082039324993694,114.12678195541842C55.62305898749054,171.19017293312763 55.62305898749054,171.19017293312763 74.16407864998739,228.25356391083685"/><path class="link" d="M37.082039324993694,114.12678195541842C55.62305898749054,171.19017293312763 48.85928097571342,173.2419425616565 65.1457079676179,230.98925674887533"/><path class="link" d="M37.082039324993694,114.12678195541842C55.62305898749054,171.19017293312763 42.02016549406299,175.02658567158178 56.02688732541731,233.36878089544237"/><path class="link" d="M37.082039324993694,114.12678195541842C55.62305898749054,171.19017293312763 35.116257962903134,176.54135047258148 46.82167728387085,235.3884672967753"/><path class="link" d="M37.082039324993694,114.12678195541842C55.62305898749054,171.19017293312763 28.158203707241565,177.7839013071248 37.544271609655425,237.04520174283306"/><path class="link" d="M37.082039324993694,114.12678195541842C55.62305898749054,171.19017293312763 21.156731542410746,178.75232225188674 28.208975389880994,238.3364296691823"/><path class="link" d="M37.082039324993694,114.12678195541842C55.62305898749054,171.19017293312763 14.1226372310121,179.44512007196303 18.8301829746828,239.2601600959507"/><path class="link" d="M37.082039324993694,114.12678195541842C55.62305898749054,171.19017293312763 7.06676683663232,179.86122652333012 9.422355782176426,239.8149686977735"/><path class="link" d="M-37.08203932499374,114.12678195541841C-55.6230589874906,171.19017293312763 -7.066766836632299,179.86122652333012 -9.422355782176398,239.8149686977735"/><path class="link" d="M-37.08203932499374,114.12678195541841C-55.6230589874906,171.19017293312763 -14.122637231012,179.44512007196303 -18.830182974682668,239.2601600959507"/><path class="link" d="M-37.08203932499374,114.12678195541841C-55.6230589874906,171.19017293312763 -21.156731542410803,178.75232225188674 -28.208975389881072,238.3364296691823"/><path class="link" d="M-37.08203932499374,114.12678195541841C-55.6230589874906,171.19017293312763 -28.158203707241547,177.7839013071248 -37.5442716096554,237.04520174283306"/><path class="link" d="M-37.08203932499374,114.12678195541841C-55.6230589874906,171.19017293312763 -35.11625796290311,176.54135047258148 -46.82167728387082,235.3884672967753"/><path class="link" d="M-37.08203932499374,114.12678195541841C-55.6230589874906,171.19017293312763 -42.02016549406296,175.0265856715818 -56.02688732541728,233.3687808954424"/><path class="link" d="M-37.08203932499374,114.12678195541841C-55.6230589874906,171.19017293312763 -48.85928097571332,173.24194256165654 -65.14570796761775,230.98925674887536"/><path class="link" d="M-37.08203932499374,114.12678195541841C-55.6230589874906,171.19017293312763 -55.6230589874906,171.19017293312763 -74.16407864998747,228.25356391083682"/><path class="link" d="M-37.08203932499374,114.12678195541841C-55.6230589874906,171.19017293312763 -62.30107027394876,168.87444046604713 -83.06809369859835,225.16592062139617"/><path class="link" d="M-37.08203932499374,114.12678195541841C-55.6230589874906,171.19017293312763 -68.88301782571615,166.2983158520316 -91.84402376762154,221.73108780270883"/><path class="link" d="M-37.08203932499374,114.12678195541841C-55.6230589874906,171.19017293312763 -75.358752756737,163.46577128851465 -100.47833700898268,217.95436171801953"/><path class="link" d="M-37.08203932499374,114.12678195541841C-55.6230589874906,171.19017293312763 -81.71828995311833,160.38117435390626 -108.9577199374911,213.84156580520835"/><path class="link" d="M-37.08203932499374,114.12678195541841C-55.6230589874906,171.19017293312763 -87.95182346945191,157.04928127310347 -117.26909795926922,209.3990416974713"/><path class="link" d="M-37.08203932499374,114.12678195541841C-55.6230589874906,171.19017293312763 -94.04974164887078,153.47522958373662 -125.3996555318277,204.63363944498215"/><path class="link" d="M-37.08203932499374,114.12678195541841C-55.6230589874906,171.19017293312763 -100.00264194352835,149.66453021445815 -133.33685592470448,199.5527069526109"/><path class="link" d="M-97.0820393249937,70.53423027509679C-145.62305898749054,105.80134541264519 -111.43691087577008,141.35704755853413 -148.5825478343601,188.47606341137885"/><path class="link" d="M-97.0820393249937,70.53423027509679C-145.62305898749054,105.80134541264519 -116.9006486994331,136.87307380800553 -155.86753159924413,182.49743174400737"/><path class="link" d="M-97.0820393249937,70.53423027509679C-145.62305898749054,105.80134541264519 -122.18413419592954,132.1780516984234 -162.91217892790604,176.2374022645645"/><path class="link" d="M-97.0820393249937,70.53423027509679C-145.62305898749054,105.80134541264519 -127.27922061357854,127.27922061357856 -169.70562748477138,169.7056274847714"/><path class="link" d="M-97.0820393249937,70.53423027509679C-145.62305898749054,105.80134541264519 -132.17805169842336,122.18413419592956 -176.23740226456448,162.91217892790607"/><path class="link" d="M-97.0820393249937,70.53423027509679C-145.62305898749054,105.80134541264519 -136.8730738080055,116.90064869943313 -182.49743174400734,155.8675315992442"/><path class="link" d="M-97.0820393249937,70.53423027509679C-145.62305898749054,105.80134541264519 -141.35704755853416,111.43691087577004 -188.47606341137887,148.58254783436004"/><path class="link" d="M-97.0820393249937,70.53423027509679C-145.62305898749054,105.80134541264519 -145.62305898749054,105.80134541264519 -194.1640786499874,141.06846055019358"/><path class="link" d="M-97.0820393249937,70.53423027509679C-145.62305898749054,105.80134541264519 -149.66453021445815,100.00264194352839 -199.5527069526109,133.33685592470454"/><path class="link" d="M-97.0820393249937,70.53423027509679C-145.62305898749054,105.80134541264519 -153.47522958373656,94.04974164887088 -204.63363944498207,125.39965553182785"/><path class="link" d="M-97.0820393249937,70.53423027509679C-145.62305898749054,105.80134541264519 -157.04928127310345,87.95182346945194 -209.39904169747126,117.26909795926926"/><path class="link" d="M-97.0820393249937,70.53423027509679C-145.62305898749054,105.80134541264519 -160.3811743539062,81.71828995311843 -213.84156580520826,108.95771993749125"/><path class="link" d="M-97.0820393249937,70.53423027509679C-145.62305898749054,105.80134541264519 -163.46577128851465,75.35875275673703 -217.95436171801953,100.4783370089827"/><path class="link" d="M-97.0820393249937,70.53423027509679C-145.62305898749054,105.80134541264519 -166.29831585203158,68.88301782571625 -221.73108780270877,91.84402376762166"/><path class="link" d="M-97.0820393249937,70.53423027509679C-145.62305898749054,105.80134541264519 -168.87444046604713,62.301070273948795 -225.16592062139617,83.06809369859839"/><path class="link" d="M-120,1.469576158976824e-14C-180,2.2043642384652358e-14 -173.24194256165651,48.85928097571335 -230.98925674887533,65.1457079676178"/><path class="link" d="M-120,1.469576158976824e-14C-180,2.2043642384652358e-14 -175.0265856715818,42.020165494062915 -233.3687808954424,56.02688732541722"/><path class="link" d="M-120,1.469576158976824e-14C-180,2.2043642384652358e-14 -176.54135047258148,35.11625796290315 -235.3884672967753,46.82167728387087"/><path class="link" d="M-120,1.469576158976824e-14C-180,2.2043642384652358e-14 -177.78390130712478,28.158203707241576 -237.04520174283303,37.54427160965543"/><path class="link" d="M-120,1.469576158976824e-14C-180,2.2043642384652358e-14 -178.7523222518867,21.156731542410917 -238.33642966918228,28.20897538988122"/><path class="link" d="M-120,1.469576158976824e-14C-180,2.2043642384652358e-14 -179.44512007196303,14.122637231012032 -239.2601600959507,18.83018297468271"/><path class="link" d="M-120,1.469576158976824e-14C-180,2.2043642384652358e-14 -179.86122652333012,7.066766836632411 -239.8149686977735,9.422355782176549"/><path class="link" d="M-120,1.469576158976824e-14C-180,2.2043642384652358e-14 -180,2.2043642384652358e-14 -240,2.939152317953648e-14"/><path class="link" d="M-120,1.469576158976824e-14C-180,2.2043642384652358e-14 -179.86122652333012,-7.066766836632367 -239.8149686977735,-9.42235578217649"/><path class="link" d="M-120,1.469576158976824e-14C-180,2.2043642384652358e-14 -179.44512007196306,-14.122637231011987 -239.26016009595074,-18.83018297468265"/><path class="link" d="M-120,1.469576158976824e-14C-180,2.2043642384652358e-14 -178.7523222518867,-21.156731542410874 -238.33642966918228,-28.208975389881164"/><path class="link" d="M-120,1.469576158976824e-14C-180,2.2043642384652358e-14 -177.7839013071248,-28.158203707241533 -237.04520174283306,-37.544271609655375"/><path class="link" d="M-120,1.469576158976824e-14C-180,2.2043642384652358e-14 -176.54135047258148,-35.116257962903106 -235.3884672967753,-46.821677283870805"/><path class="link" d="M-120,1.469576158976824e-14C-180,2.2043642384652358e-14 -175.0265856715818,-42.02016549406287 -233.36878089544243,-56.026887325417164"/><path class="link" d="M-120,1.469576158976824e-14C-180,2.2043642384652358e-14 -173.24194256165654,-48.859280975713304 -230.98925674887536,-65.14570796761774"/><path class="link" d="M-97.0820393249937,-70.53423027509676C-145.62305898749054,-105.80134541264515 -168.87444046604713,-62.30107027394875 -225.16592062139617,-83.06809369859833"/><path class="link" d="M-97.0820393249937,-70.53423027509676C-145.62305898749054,-105.80134541264515 -166.2983158520316,-68.88301782571621 -221.7310878027088,-91.84402376762162"/><path class="link" d="M-97.0820393249937,-70.53423027509676C-145.62305898749054,-105.80134541264515 -163.46577128851467,-75.35875275673699 -217.95436171801956,-100.47833700898266"/><path class="link" d="M-97.0820393249937,-70.53423027509676C-145.62305898749054,-105.80134541264515 -160.38117435390623,-81.7182899531184 -213.8415658052083,-108.9577199374912"/><path class="link" d="M-97.0820393249937,-70.53423027509676C-145.62305898749054,-105.80134541264515 -157.04928127310347,-87.95182346945191 -209.3990416974713,-117.2690979592692"/><path class="link" d="M-97.0820393249937,-70.53423027509676C-145.62305898749054,-105.80134541264515 -153.47522958373656,-94.04974164887085 -204.6336394449821,-125.39965553182779"/><path class="link" d="M-97.0820393249937,-70.53423027509676C-145.62305898749054,-105.80134541264515 -149.66453021445818,-100.00264194352835 -199.55270695261092,-133.33685592470448"/><path class="link" d="M-97.0820393249937,-70.53423027509676C-145.62305898749054,-105.80134541264515 -145.62305898749054,-105.80134541264515 -194.1640786499874,-141.06846055019352"/><path class="link" d="M-97.0820393249937,-70.53423027509676C-145.62305898749054,-105.80134541264515 -141.35704755853416,-111.43691087577 -188.4760634113789,-148.58254783435999"/><path class="link" d="M-97.0820393249937,-70.53423027509676C-145.62305898749054,-105.80134541264515 -136.87307380800553,-116.9006486994331 -182.49743174400737,-155.86753159924413"/><path class="link" d="M-97.0820393249937,-70.53423027509676C-145.62305898749054,-105.80134541264515 -132.17805169842345,-122.18413419592946 -176.2374022645646,-162.91217892790596"/><path class="link" d="M-97.0820393249937,-70.53423027509676C-145.62305898749054,-105.80134541264515 -127.27922061357859,-127.27922061357854 -169.70562748477144,-169.70562748477138"/><path class="link" d="M-97.0820393249937,-70.53423027509676C-145.62305898749054,-105.80134541264515 -122.1841341959295,-132.1780516984234 -162.912178927906,-176.23740226456454"/><path class="link" d="M-97.0820393249937,-70.53423027509676C-145.62305898749054,-105.80134541264515 -116.90064869943313,-136.8730738080055 -155.8675315992442,-182.49743174400734"/><path class="link" d="M-97.0820393249937,-70.53423027509676C-145.62305898749054,-105.80134541264515 -111.43691087577005,-141.35704755853416 -148.58254783436007,-188.47606341137887"/><path class="link" d="M-37.08203932499371,-114.12678195541842C-55.62305898749056,-171.19017293312763 -100.00264194352839,-149.66453021445815 -133.33685592470454,-199.55270695261086"/><path class="link" d="M-37.08203932499371,-114.12678195541842C-55.62305898749056,-171.19017293312763 -94.04974164887088,-153.47522958373654 -125.39965553182785,-204.63363944498204"/><path class="link" d="M-37.08203932499371,-114.12678195541842C-55.62305898749056,-171.19017293312763 -87.95182346945195,-157.04928127310345 -117.26909795926927,-209.39904169747126"/><path class="link" d="M-37.08203932499371,-114.12678195541842C-55.62305898749056,-171.19017293312763 -81.71828995311844,-160.3811743539062 -108.95771993749126,-213.84156580520826"/><path class="link" d="M-37.08203932499371,-114.12678195541842C-55.62305898749056,-171.19017293312763 -75.35875275673705,-163.46577128851465 -100.47833700898272,-217.95436171801953"/><path class="link" d="M-37.08203932499371,-114.12678195541842C-55.62305898749056,-171.19017293312763 -68.88301782571627,-166.29831585203158 -91.84402376762168,-221.73108780270877"/><path class="link" d="M-37.08203932499371,-114.12678195541842C-55.62305898749056,-171.19017293312763 -62.3010702739488,-168.87444046604713 -83.0680936985984,-225.16592062139617"/><path class="link" d="M-37.08203932499371,-114.12678195541842C-55.62305898749056,-171.19017293312763 -55.62305898749056,-171.19017293312763 -74.16407864998742,-228.25356391083685"/><path class="link" d="M-37.08203932499371,-114.12678195541842C-55.62305898749056,-171.19017293312763 -48.85928097571336,-173.24194256165651 -65.14570796761781,-230.98925674887533"/><path class="link" d="M-37.08203932499371,-114.12678195541842C-55.62305898749056,-171.19017293312763 -42.02016549406292,-175.0265856715818 -56.026887325417235,-233.3687808954424"/><path class="link" d="M-37.08203932499371,-114.12678195541842C-55.62305898749056,-171.19017293312763 -35.11625796290316,-176.54135047258146 -46.821677283870876,-235.38846729677527"/><path class="link" d="M-37.08203932499371,-114.12678195541842C-55.62305898749056,-171.19017293312763 -28.158203707241586,-177.78390130712478 -37.544271609655446,-237.04520174283303"/><path class="link" d="M-37.08203932499371,-114.12678195541842C-55.62305898749056,-171.19017293312763 -21.156731542410927,-178.7523222518867 -28.208975389881235,-238.33642966918228"/><path class="link" d="M-37.08203932499371,-114.12678195541842C-55.62305898749056,-171.19017293312763 -14.122637231012042,-179.44512007196303 -18.830182974682725,-239.2601600959507"/><path class="link" d="M-37.08203932499371,-114.12678195541842C-55.62305898749056,-171.19017293312763 -7.066766836632422,-179.86122652333012 -9.422355782176563,-239.8149686977735"/><g class="node" transform="rotate(90)translate(0)"><circle r="6" style="fill: gray;"/><text dy=".31em" text-anchor="end" transform="rotate(180)translate(-8)">samples</text></g><g class="node" transform="rotate(-72)translate(120)"><circle r="6" style="opacity: 1; fill: red;"/><text dy=".31em" text-anchor="start" transform="translate(8)">Topic 0</text></g><g class="node" transform="rotate(-87.75)translate(240)"><circle r="6" style="opacity: 1; fill: red;"/><text dy=".31em" text-anchor="start" transform="translate(8)">olive</text></g><g class="node" transform="rotate(-85.5)translate(240)"><circle r="6" style="opacity: 0.95; fill: red;"/><text dy=".31em" text-anchor="start" transform="translate(8)">pants</text></g><g class="node" transform="rotate(-83.25)translate(240)"><circle r="6" style="opacity: 0.9; fill: red;"/><text dy=".31em" text-anchor="start" transform="translate(8)">toast</text></g><g class="node" transform="rotate(-81)translate(240)"><circle r="6" style="opacity: 0.85; fill: red;"/><text dy=".31em" text-anchor="start" transform="translate(8)">flatbread</text></g><g class="node" transform="rotate(-78.75)translate(240)"><circle r="6" style="opacity: 0.8; fill: red;"/><text dy=".31em" text-anchor="start" transform="translate(8)">goat</text></g><g class="node" transform="rotate(-76.5)translate(240)"><circle r="6" style="opacity: 0.75; fill: red;"/><text dy=".31em" text-anchor="start" transform="translate(8)">whiskey</text></g><g class="node" transform="rotate(-74.25)translate(240)"><circle r="6" style="opacity: 0.7; fill: red;"/><text dy=".31em" text-anchor="start" transform="translate(8)">george</text></g><g class="node" transform="rotate(-72)translate(240)"><circle r="6" style="opacity: 0.65; fill: red;"/><text dy=".31em" text-anchor="start" transform="translate(8)">cheeseburger</text></g><g class="node" transform="rotate(-69.75)translate(240)"><circle r="6" style="opacity: 0.6; fill: red;"/><text dy=".31em" text-anchor="start" transform="translate(8)">omelette</text></g><g class="node" transform="rotate(-67.5)translate(240)"><circle r="6" style="opacity: 0.55; fill: red;"/><text dy=".31em" text-anchor="start" transform="translate(8)">em</text></g><g class="node" transform="rotate(-65.25)translate(240)"><circle r="6" style="opacity: 0.5; fill: red;"/><text dy=".31em" text-anchor="start" transform="translate(8)">pit</text></g><g class="node" transform="rotate(-63)translate(240)"><circle r="6" style="opacity: 0.45; fill: red;"/><text dy=".31em" text-anchor="start" transform="translate(8)">dos</text></g><g class="node" transform="rotate(-60.75)translate(240)"><circle r="6" style="opacity: 0.4; fill: red;"/><text dy=".31em" text-anchor="start" transform="translate(8)">kosher</text></g><g class="node" transform="rotate(-58.5)translate(240)"><circle r="6" style="opacity: 0.35; fill: red;"/><text dy=".31em" text-anchor="start" transform="translate(8)">coaster</text></g><g class="node" transform="rotate(-56.25)translate(240)"><circle r="6" style="opacity: 0.3; fill: red;"/><text dy=".31em" text-anchor="start" transform="translate(8)">tiramisu</text></g><g class="node" transform="rotate(-36)translate(120)"><circle r="6" style="fill: orange;"/><text dy=".31em" text-anchor="start" transform="translate(8)">Topic 1</text></g><g class="node" transform="rotate(-51.75)translate(240)"><circle r="6" style="opacity: 1; fill: orange;"/><text dy=".31em" text-anchor="start" transform="translate(8)">great</text></g><g class="node" transform="rotate(-49.5)translate(240)"><circle r="6" style="opacity: 0.95; fill: orange;"/><text dy=".31em" text-anchor="start" transform="translate(8)">place</text></g><g class="node" transform="rotate(-47.25)translate(240)"><circle r="6" style="opacity: 0.9; fill: orange;"/><text dy=".31em" text-anchor="start" transform="translate(8)">good</text></g><g class="node" transform="rotate(-45)translate(240)"><circle r="6" style="opacity: 0.85; fill: orange;"/><text dy=".31em" text-anchor="start" transform="translate(8)">service</text></g><g class="node" transform="rotate(-42.75)translate(240)"><circle r="6" style="opacity: 0.8; fill: orange;"/><text dy=".31em" text-anchor="start" transform="translate(8)">gyro</text></g><g class="node" transform="rotate(-40.5)translate(240)"><circle r="6" style="opacity: 0.75; fill: orange;"/><text dy=".31em" text-anchor="start" transform="translate(8)">love</text></g><g class="node" transform="rotate(-38.25)translate(240)"><circle r="6" style="opacity: 0.7; fill: orange;"/><text dy=".31em" text-anchor="start" transform="translate(8)">greek</text></g><g class="node" transform="rotate(-36)translate(240)"><circle r="6" style="opacity: 0.65; fill: orange;"/><text dy=".31em" text-anchor="start" transform="translate(8)">pita</text></g><g class="node" transform="rotate(-33.75)translate(240)"><circle r="6" style="opacity: 0.6; fill: orange;"/><text dy=".31em" text-anchor="start" transform="translate(8)">friendly</text></g><g class="node" transform="rotate(-31.5)translate(240)"><circle r="6" style="opacity: 0.55; fill: orange;"/><text dy=".31em" text-anchor="start" transform="translate(8)">best</text></g><g class="node" transform="rotate(-29.25)translate(240)"><circle r="6" style="opacity: 0.5; fill: orange;"/><text dy=".31em" text-anchor="start" transform="translate(8)">staff</text></g><g class="node" transform="rotate(-27)translate(240)"><circle r="6" style="opacity: 0.45; fill: orange;"/><text dy=".31em" text-anchor="start" transform="translate(8)">gyros</text></g><g class="node" transform="rotate(-24.75)translate(240)"><circle r="6" style="opacity: 0.4; fill: orange;"/><text dy=".31em" text-anchor="start" transform="translate(8)">fries</text></g><g class="node" transform="rotate(-22.5)translate(240)"><circle r="6" style="opacity: 0.35; fill: orange;"/><text dy=".31em" text-anchor="start" transform="translate(8)">amazing</text></g><g class="node" transform="rotate(-20.25)translate(240)"><circle r="6" style="opacity: 0.3; fill: orange;"/><text dy=".31em" text-anchor="start" transform="translate(8)">awesome</text></g><g class="node" transform="rotate(0)translate(120)"><circle r="6" style="fill: yellow;"/><text dy=".31em" text-anchor="start" transform="translate(8)">Topic 2</text></g><g class="node" transform="rotate(-15.75)translate(240)"><circle r="6" style="opacity: 1; fill: yellow;"/><text dy=".31em" text-anchor="start" transform="translate(8)">tacos</text></g><g class="node" transform="rotate(-13.5)translate(240)"><circle r="6" style="opacity: 0.95; fill: yellow;"/><text dy=".31em" text-anchor="start" transform="translate(8)">meats</text></g><g class="node" transform="rotate(-11.25)translate(240)"><circle r="6" style="opacity: 0.9; fill: yellow;"/><text dy=".31em" text-anchor="start" transform="translate(8)">chicken</text></g><g class="node" transform="rotate(-9)translate(240)"><circle r="6" style="opacity: 0.85; fill: yellow;"/><text dy=".31em" text-anchor="start" transform="translate(8)">jimmy</text></g><g class="node" transform="rotate(-6.75)translate(240)"><circle r="6" style="opacity: 0.8; fill: yellow;"/><text dy=".31em" text-anchor="start" transform="translate(8)">good</text></g><g class="node" transform="rotate(-4.5)translate(240)"><circle r="6" style="opacity: 0.75; fill: yellow;"/><text dy=".31em" text-anchor="start" transform="translate(8)">great</text></g><g class="node" transform="rotate(-2.25)translate(240)"><circle r="6" style="opacity: 0.7; fill: yellow;"/><text dy=".31em" text-anchor="start" transform="translate(8)">place</text></g><g class="node" transform="rotate(0)translate(240)"><circle r="6" style="opacity: 0.65; fill: yellow;"/><text dy=".31em" text-anchor="start" transform="translate(8)">rice</text></g><g class="node" transform="rotate(2.25)translate(240)"><circle r="6" style="opacity: 0.6; fill: yellow;"/><text dy=".31em" text-anchor="start" transform="translate(8)">thai</text></g><g class="node" transform="rotate(4.5)translate(240)"><circle r="6" style="opacity: 0.55; fill: yellow;"/><text dy=".31em" text-anchor="start" transform="translate(8)">lunch</text></g><g class="node" transform="rotate(6.75)translate(240)"><circle r="6" style="opacity: 0.5; fill: yellow;"/><text dy=".31em" text-anchor="start" transform="translate(8)">fried</text></g><g class="node" transform="rotate(9)translate(240)"><circle r="6" style="opacity: 0.45; fill: yellow;"/><text dy=".31em" text-anchor="start" transform="translate(8)">carnivore</text></g><g class="node" transform="rotate(11.25)translate(240)"><circle r="6" style="opacity: 0.4; fill: yellow;"/><text dy=".31em" text-anchor="start" transform="translate(8)">love</text></g><g class="node" transform="rotate(13.5)translate(240)"><circle r="6" style="opacity: 0.35; fill: yellow;"/><text dy=".31em" text-anchor="start" transform="translate(8)">groupon</text></g><g class="node" transform="rotate(15.75)translate(240)"><circle r="6" style="opacity: 0.3; fill: yellow;"/><text dy=".31em" text-anchor="start" transform="translate(8)">best</text></g><g class="node" transform="rotate(36)translate(120)"><circle r="6" style="fill: green;"/><text dy=".31em" text-anchor="start" transform="translate(8)">Topic 3</text></g><g class="node" transform="rotate(20.25)translate(240)"><circle r="6" style="opacity: 1; fill: green;"/><text dy=".31em" text-anchor="start" transform="translate(8)">texas</text></g><g class="node" transform="rotate(22.5)translate(240)"><circle r="6" style="opacity: 0.95; fill: green;"/><text dy=".31em" text-anchor="start" transform="translate(8)">nachos</text></g><g class="node" transform="rotate(24.75)translate(240)"><circle r="6" style="opacity: 0.9; fill: green;"/><text dy=".31em" text-anchor="start" transform="translate(8)">meats</text></g><g class="node" transform="rotate(27)translate(240)"><circle r="6" style="opacity: 0.85; fill: green;"/><text dy=".31em" text-anchor="start" transform="translate(8)">college</text></g><g class="node" transform="rotate(29.25)translate(240)"><circle r="6" style="opacity: 0.8; fill: green;"/><text dy=".31em" text-anchor="start" transform="translate(8)">killer</text></g><g class="node" transform="rotate(31.5)translate(240)"><circle r="6" style="opacity: 0.75; fill: green;"/><text dy=".31em" text-anchor="start" transform="translate(8)">gringo</text></g><g class="node" transform="rotate(33.75)translate(240)"><circle r="6" style="opacity: 0.7; fill: green;"/><text dy=".31em" text-anchor="start" transform="translate(8)">burrito</text></g><g class="node" transform="rotate(36)translate(240)"><circle r="6" style="opacity: 0.65; fill: green;"/><text dy=".31em" text-anchor="start" transform="translate(8)">cent</text></g><g class="node" transform="rotate(38.25)translate(240)"><circle r="6" style="opacity: 0.6; fill: green;"/><text dy=".31em" text-anchor="start" transform="translate(8)">setup</text></g><g class="node" transform="rotate(40.5)translate(240)"><circle r="6" style="opacity: 0.55; fill: green;"/><text dy=".31em" text-anchor="start" transform="translate(8)">buffalo</text></g><g class="node" transform="rotate(42.75)translate(240)"><circle r="6" style="opacity: 0.5; fill: green;"/><text dy=".31em" text-anchor="start" transform="translate(8)">guacamole</text></g><g class="node" transform="rotate(45)translate(240)"><circle r="6" style="opacity: 0.45; fill: green;"/><text dy=".31em" text-anchor="start" transform="translate(8)">lousy</text></g><g class="node" transform="rotate(47.25)translate(240)"><circle r="6" style="opacity: 0.4; fill: green;"/><text dy=".31em" text-anchor="start" transform="translate(8)">tres</text></g><g class="node" transform="rotate(49.5)translate(240)"><circle r="6" style="opacity: 0.35; fill: green;"/><text dy=".31em" text-anchor="start" transform="translate(8)">freshly</text></g><g class="node" transform="rotate(51.75)translate(240)"><circle r="6" style="opacity: 0.3; fill: green;"/><text dy=".31em" text-anchor="start" transform="translate(8)">disappoints</text></g><g class="node" transform="rotate(72)translate(120)"><circle r="6" style="fill: cyan;"/><text dy=".31em" text-anchor="start" transform="translate(8)">Topic 4</text></g><g class="node" transform="rotate(56.25)translate(240)"><circle r="6" style="opacity: 1; fill: cyan;"/><text dy=".31em" text-anchor="start" transform="translate(8)">bands</text></g><g class="node" transform="rotate(58.5)translate(240)"><circle r="6" style="opacity: 0.95; fill: cyan;"/><text dy=".31em" text-anchor="start" transform="translate(8)">band</text></g><g class="node" transform="rotate(60.75)translate(240)"><circle r="6" style="opacity: 0.9; fill: cyan;"/><text dy=".31em" text-anchor="start" transform="translate(8)">cheesecake</text></g><g class="node" transform="rotate(63)translate(240)"><circle r="6" style="opacity: 0.85; fill: cyan;"/><text dy=".31em" text-anchor="start" transform="translate(8)">stage</text></g><g class="node" transform="rotate(65.25)translate(240)"><circle r="6" style="opacity: 0.8; fill: cyan;"/><text dy=".31em" text-anchor="start" transform="translate(8)">skewer</text></g><g class="node" transform="rotate(67.5)translate(240)"><circle r="6" style="opacity: 0.75; fill: cyan;"/><text dy=".31em" text-anchor="start" transform="translate(8)">mia</text></g><g class="node" transform="rotate(69.75)translate(240)"><circle r="6" style="opacity: 0.7; fill: cyan;"/><text dy=".31em" text-anchor="start" transform="translate(8)">nut</text></g><g class="node" transform="rotate(72)translate(240)"><circle r="6" style="opacity: 0.65; fill: cyan;"/><text dy=".31em" text-anchor="start" transform="translate(8)">meats</text></g><g class="node" transform="rotate(74.25)translate(240)"><circle r="6" style="opacity: 0.6; fill: cyan;"/><text dy=".31em" text-anchor="start" transform="translate(8)">mexico</text></g><g class="node" transform="rotate(76.5)translate(240)"><circle r="6" style="opacity: 0.55; fill: cyan;"/><text dy=".31em" text-anchor="start" transform="translate(8)">broiled</text></g><g class="node" transform="rotate(78.75)translate(240)"><circle r="6" style="opacity: 0.5; fill: cyan;"/><text dy=".31em" text-anchor="start" transform="translate(8)">patron</text></g><g class="node" transform="rotate(81)translate(240)"><circle r="6" style="opacity: 0.45; fill: cyan;"/><text dy=".31em" text-anchor="start" transform="translate(8)">paired</text></g><g class="node" transform="rotate(83.25)translate(240)"><circle r="6" style="opacity: 0.4; fill: cyan;"/><text dy=".31em" text-anchor="start" transform="translate(8)">song</text></g><g class="node" transform="rotate(85.5)translate(240)"><circle r="6" style="opacity: 0.35; fill: cyan;"/><text dy=".31em" text-anchor="start" transform="translate(8)">dim</text></g><g class="node" transform="rotate(87.75)translate(240)"><circle r="6" style="opacity: 0.3; fill: cyan;"/><text dy=".31em" text-anchor="start" transform="translate(8)">crowds</text></g><g class="node" transform="rotate(108)translate(120)"><circle r="6" style="fill: blue;"/><text dy=".31em" text-anchor="end" transform="rotate(180)translate(-8)">Topic 5</text></g><g class="node" transform="rotate(92.25)translate(240)"><circle r="6" style="opacity: 1; fill: blue;"/><text dy=".31em" text-anchor="end" transform="rotate(180)translate(-8)">bartenders</text></g><g class="node" transform="rotate(94.5)translate(240)"><circle r="6" style="opacity: 0.95; fill: blue;"/><text dy=".31em" text-anchor="end" transform="rotate(180)translate(-8)">minutes</text></g><g class="node" transform="rotate(96.75)translate(240)"><circle r="6" style="opacity: 0.9; fill: blue;"/><text dy=".31em" text-anchor="end" transform="rotate(180)translate(-8)">service</text></g><g class="node" transform="rotate(99)translate(240)"><circle r="6" style="opacity: 0.85; fill: blue;"/><text dy=".31em" text-anchor="end" transform="rotate(180)translate(-8)">order</text></g><g class="node" transform="rotate(101.25)translate(240)"><circle r="6" style="opacity: 0.8; fill: blue;"/><text dy=".31em" text-anchor="end" transform="rotate(180)translate(-8)">pita</text></g><g class="node" transform="rotate(103.5)translate(240)"><circle r="6" style="opacity: 0.75; fill: blue;"/><text dy=".31em" text-anchor="end" transform="rotate(180)translate(-8)">time</text></g><g class="node" transform="rotate(105.75)translate(240)"><circle r="6" style="opacity: 0.7; fill: blue;"/><text dy=".31em" text-anchor="end" transform="rotate(180)translate(-8)">asked</text></g><g class="node" transform="rotate(108)translate(240)"><circle r="6" style="opacity: 0.65; fill: blue;"/><text dy=".31em" text-anchor="end" transform="rotate(180)translate(-8)">said</text></g><g class="node" transform="rotate(110.25)translate(240)"><circle r="6" style="opacity: 0.6; fill: blue;"/><text dy=".31em" text-anchor="end" transform="rotate(180)translate(-8)">took</text></g><g class="node" transform="rotate(112.5)translate(240)"><circle r="6" style="opacity: 0.55; fill: blue;"/><text dy=".31em" text-anchor="end" transform="rotate(180)translate(-8)">table</text></g><g class="node" transform="rotate(114.75)translate(240)"><circle r="6" style="opacity: 0.5; fill: blue;"/><text dy=".31em" text-anchor="end" transform="rotate(180)translate(-8)">sandwich</text></g><g class="node" transform="rotate(117)translate(240)"><circle r="6" style="opacity: 0.45; fill: blue;"/><text dy=".31em" text-anchor="end" transform="rotate(180)translate(-8)">just</text></g><g class="node" transform="rotate(119.25)translate(240)"><circle r="6" style="opacity: 0.4; fill: blue;"/><text dy=".31em" text-anchor="end" transform="rotate(180)translate(-8)">got</text></g><g class="node" transform="rotate(121.5)translate(240)"><circle r="6" style="opacity: 0.35; fill: blue;"/><text dy=".31em" text-anchor="end" transform="rotate(180)translate(-8)">came</text></g><g class="node" transform="rotate(123.75)translate(240)"><circle r="6" style="opacity: 0.3; fill: blue;"/><text dy=".31em" text-anchor="end" transform="rotate(180)translate(-8)">told</text></g><g class="node" transform="rotate(144)translate(120)"><circle r="6" style="fill: purple;"/><text dy=".31em" text-anchor="end" transform="rotate(180)translate(-8)">Topic 6</text></g><g class="node" transform="rotate(128.25)translate(240)"><circle r="6" style="opacity: 1; fill: purple;"/><text dy=".31em" text-anchor="end" transform="rotate(180)translate(-8)">bar</text></g><g class="node" transform="rotate(130.5)translate(240)"><circle r="6" style="opacity: 0.95; fill: purple;"/><text dy=".31em" text-anchor="end" transform="rotate(180)translate(-8)">place</text></g><g class="node" transform="rotate(132.75)translate(240)"><circle r="6" style="opacity: 0.9; fill: purple;"/><text dy=".31em" text-anchor="end" transform="rotate(180)translate(-8)">good</text></g><g class="node" transform="rotate(135)translate(240)"><circle r="6" style="opacity: 0.85; fill: purple;"/><text dy=".31em" text-anchor="end" transform="rotate(180)translate(-8)">great</text></g><g class="node" transform="rotate(137.25)translate(240)"><circle r="6" style="opacity: 0.8; fill: purple;"/><text dy=".31em" text-anchor="end" transform="rotate(180)translate(-8)">meat</text></g><g class="node" transform="rotate(139.5)translate(240)"><circle r="6" style="opacity: 0.75; fill: purple;"/><text dy=".31em" text-anchor="end" transform="rotate(180)translate(-8)">salad</text></g><g class="node" transform="rotate(141.75)translate(240)"><circle r="6" style="opacity: 0.7; fill: purple;"/><text dy=".31em" text-anchor="end" transform="rotate(180)translate(-8)">like</text></g><g class="node" transform="rotate(144)translate(240)"><circle r="6" style="opacity: 0.65; fill: purple;"/><text dy=".31em" text-anchor="end" transform="rotate(180)translate(-8)">just</text></g><g class="node" transform="rotate(146.25)translate(240)"><circle r="6" style="opacity: 0.6; fill: purple;"/><text dy=".31em" text-anchor="end" transform="rotate(180)translate(-8)">really</text></g><g class="node" transform="rotate(148.5)translate(240)"><circle r="6" style="opacity: 0.55; fill: purple;"/><text dy=".31em" text-anchor="end" transform="rotate(180)translate(-8)">service</text></g><g class="node" transform="rotate(150.75)translate(240)"><circle r="6" style="opacity: 0.5; fill: purple;"/><text dy=".31em" text-anchor="end" transform="rotate(180)translate(-8)">time</text></g><g class="node" transform="rotate(153)translate(240)"><circle r="6" style="opacity: 0.45; fill: purple;"/><text dy=".31em" text-anchor="end" transform="rotate(180)translate(-8)">nice</text></g><g class="node" transform="rotate(155.25)translate(240)"><circle r="6" style="opacity: 0.4; fill: purple;"/><text dy=".31em" text-anchor="end" transform="rotate(180)translate(-8)">ve</text></g><g class="node" transform="rotate(157.5)translate(240)"><circle r="6" style="opacity: 0.35; fill: purple;"/><text dy=".31em" text-anchor="end" transform="rotate(180)translate(-8)">little</text></g><g class="node" transform="rotate(159.75)translate(240)"><circle r="6" style="opacity: 0.3; fill: purple;"/><text dy=".31em" text-anchor="end" transform="rotate(180)translate(-8)">don</text></g><g class="node" transform="rotate(180)translate(120)"><circle r="6" style="fill: black;"/><text dy=".31em" text-anchor="end" transform="rotate(180)translate(-8)">Topic 7</text></g><g class="node" transform="rotate(164.25)translate(240)"><circle r="6" style="opacity: 1; fill: black;"/><text dy=".31em" text-anchor="end" transform="rotate(180)translate(-8)">meats</text></g><g class="node" transform="rotate(166.5)translate(240)"><circle r="6" style="opacity: 0.95; fill: black;"/><text dy=".31em" text-anchor="end" transform="rotate(180)translate(-8)">john</text></g><g class="node" transform="rotate(168.75)translate(240)"><circle r="6" style="opacity: 0.9; fill: black;"/><text dy=".31em" text-anchor="end" transform="rotate(180)translate(-8)">karaoke</text></g><g class="node" transform="rotate(171)translate(240)"><circle r="6" style="opacity: 0.85; fill: black;"/><text dy=".31em" text-anchor="end" transform="rotate(180)translate(-8)">band</text></g><g class="node" transform="rotate(173.25)translate(240)"><circle r="6" style="opacity: 0.8; fill: black;"/><text dy=".31em" text-anchor="end" transform="rotate(180)translate(-8)">flip</text></g><g class="node" transform="rotate(175.5)translate(240)"><circle r="6" style="opacity: 0.75; fill: black;"/><text dy=".31em" text-anchor="end" transform="rotate(180)translate(-8)">samba</text></g><g class="node" transform="rotate(177.75)translate(240)"><circle r="6" style="opacity: 0.7; fill: black;"/><text dy=".31em" text-anchor="end" transform="rotate(180)translate(-8)">apple</text></g><g class="node" transform="rotate(180)translate(240)"><circle r="6" style="opacity: 0.65; fill: black;"/><text dy=".31em" text-anchor="end" transform="rotate(180)translate(-8)">mozzarella</text></g><g class="node" transform="rotate(182.25)translate(240)"><circle r="6" style="opacity: 0.6; fill: black;"/><text dy=".31em" text-anchor="end" transform="rotate(180)translate(-8)">omelet</text></g><g class="node" transform="rotate(184.5)translate(240)"><circle r="6" style="opacity: 0.55; fill: black;"/><text dy=".31em" text-anchor="end" transform="rotate(180)translate(-8)">tartare</text></g><g class="node" transform="rotate(186.75)translate(240)"><circle r="6" style="opacity: 0.5; fill: black;"/><text dy=".31em" text-anchor="end" transform="rotate(180)translate(-8)">paradise</text></g><g class="node" transform="rotate(189)translate(240)"><circle r="6" style="opacity: 0.45; fill: black;"/><text dy=".31em" text-anchor="end" transform="rotate(180)translate(-8)">brulee</text></g><g class="node" transform="rotate(191.25)translate(240)"><circle r="6" style="opacity: 0.4; fill: black;"/><text dy=".31em" text-anchor="end" transform="rotate(180)translate(-8)">wines</text></g><g class="node" transform="rotate(193.5)translate(240)"><circle r="6" style="opacity: 0.35; fill: black;"/><text dy=".31em" text-anchor="end" transform="rotate(180)translate(-8)">hangout</text></g><g class="node" transform="rotate(195.75)translate(240)"><circle r="6" style="opacity: 0.3; fill: black;"/><text dy=".31em" text-anchor="end" transform="rotate(180)translate(-8)">henderson</text></g><g class="node" transform="rotate(216)translate(120)"><circle r="6" style="fill: fuchsia;"/><text dy=".31em" text-anchor="end" transform="rotate(180)translate(-8)">Topic 8</text></g><g class="node" transform="rotate(200.25)translate(240)"><circle r="6" style="opacity: 1; fill: fuchsia;"/><text dy=".31em" text-anchor="end" transform="rotate(180)translate(-8)">parmesan</text></g><g class="node" transform="rotate(202.5)translate(240)"><circle r="6" style="opacity: 0.95; fill: fuchsia;"/><text dy=".31em" text-anchor="end" transform="rotate(180)translate(-8)">cuts</text></g><g class="node" transform="rotate(204.75)translate(240)"><circle r="6" style="opacity: 0.9; fill: fuchsia;"/><text dy=".31em" text-anchor="end" transform="rotate(180)translate(-8)">college</text></g><g class="node" transform="rotate(207)translate(240)"><circle r="6" style="opacity: 0.85; fill: fuchsia;"/><text dy=".31em" text-anchor="end" transform="rotate(180)translate(-8)">vibe</text></g><g class="node" transform="rotate(209.25)translate(240)"><circle r="6" style="opacity: 0.8; fill: fuchsia;"/><text dy=".31em" text-anchor="end" transform="rotate(180)translate(-8)">coronas</text></g><g class="node" transform="rotate(211.5)translate(240)"><circle r="6" style="opacity: 0.75; fill: fuchsia;"/><text dy=".31em" text-anchor="end" transform="rotate(180)translate(-8)">philly</text></g><g class="node" transform="rotate(213.75)translate(240)"><circle r="6" style="opacity: 0.7; fill: fuchsia;"/><text dy=".31em" text-anchor="end" transform="rotate(180)translate(-8)">foie</text></g><g class="node" transform="rotate(216)translate(240)"><circle r="6" style="opacity: 0.65; fill: fuchsia;"/><text dy=".31em" text-anchor="end" transform="rotate(180)translate(-8)">gras</text></g><g class="node" transform="rotate(218.25)translate(240)"><circle r="6" style="opacity: 0.6; fill: fuchsia;"/><text dy=".31em" text-anchor="end" transform="rotate(180)translate(-8)">craft</text></g><g class="node" transform="rotate(220.5)translate(240)"><circle r="6" style="opacity: 0.55; fill: fuchsia;"/><text dy=".31em" text-anchor="end" transform="rotate(180)translate(-8)">sports</text></g><g class="node" transform="rotate(222.75)translate(240)"><circle r="6" style="opacity: 0.5; fill: fuchsia;"/><text dy=".31em" text-anchor="end" transform="rotate(180)translate(-8)">bought</text></g><g class="node" transform="rotate(225)translate(240)"><circle r="6" style="opacity: 0.45; fill: fuchsia;"/><text dy=".31em" text-anchor="end" transform="rotate(180)translate(-8)">relaxed</text></g><g class="node" transform="rotate(227.25)translate(240)"><circle r="6" style="opacity: 0.4; fill: fuchsia;"/><text dy=".31em" text-anchor="end" transform="rotate(180)translate(-8)">video</text></g><g class="node" transform="rotate(229.5)translate(240)"><circle r="6" style="opacity: 0.35; fill: fuchsia;"/><text dy=".31em" text-anchor="end" transform="rotate(180)translate(-8)">tomatoes</text></g><g class="node" transform="rotate(231.75)translate(240)"><circle r="6" style="opacity: 0.3; fill: fuchsia;"/><text dy=".31em" text-anchor="end" transform="rotate(180)translate(-8)">muffin</text></g><g class="node" transform="rotate(252)translate(120)"><circle r="6" style="fill: fuchsia;"/><text dy=".31em" text-anchor="end" transform="rotate(180)translate(-8)">Topic 9</text></g><g class="node" transform="rotate(236.25)translate(240)"><circle r="6" style="opacity: 1; fill: lime;"/><text dy=".31em" text-anchor="end" transform="rotate(180)translate(-8)">pita</text></g><g class="node" transform="rotate(238.5)translate(240)"><circle r="6" style="opacity: 0.95; fill: lime;"/><text dy=".31em" text-anchor="end" transform="rotate(180)translate(-8)">fries</text></g><g class="node" transform="rotate(240.75)translate(240)"><circle r="6" style="opacity: 0.9; fill: lime;"/><text dy=".31em" text-anchor="end" transform="rotate(180)translate(-8)">meat</text></g><g class="node" transform="rotate(243)translate(240)"><circle r="6" style="opacity: 0.85; fill: lime;"/><text dy=".31em" text-anchor="end" transform="rotate(180)translate(-8)">sandwich</text></g><g class="node" transform="rotate(245.25)translate(240)"><circle r="6" style="opacity: 0.8; fill: lime;"/><text dy=".31em" text-anchor="end" transform="rotate(180)translate(-8)">burgers</text></g><g class="node" transform="rotate(247.5)translate(240)"><circle r="6" style="opacity: 0.75; fill: lime;"/><text dy=".31em" text-anchor="end" transform="rotate(180)translate(-8)">kabob</text></g><g class="node" transform="rotate(249.75)translate(240)"><circle r="6" style="opacity: 0.7; fill: lime;"/><text dy=".31em" text-anchor="end" transform="rotate(180)translate(-8)">chicken</text></g><g class="node" transform="rotate(252)translate(240)"><circle r="6" style="opacity: 0.65; fill: lime;"/><text dy=".31em" text-anchor="end" transform="rotate(180)translate(-8)">grilled</text></g><g class="node" transform="rotate(254.25)translate(240)"><circle r="6" style="opacity: 0.6; fill: lime;"/><text dy=".31em" text-anchor="end" transform="rotate(180)translate(-8)">salad</text></g><g class="node" transform="rotate(256.5)translate(240)"><circle r="6" style="opacity: 0.55; fill: lime;"/><text dy=".31em" text-anchor="end" transform="rotate(180)translate(-8)">good</text></g><g class="node" transform="rotate(258.75)translate(240)"><circle r="6" style="opacity: 0.5; fill: lime;"/><text dy=".31em" text-anchor="end" transform="rotate(180)translate(-8)">gringos</text></g><g class="node" transform="rotate(261)translate(240)"><circle r="6" style="opacity: 0.45; fill: lime;"/><text dy=".31em" text-anchor="end" transform="rotate(180)translate(-8)">sauce</text></g><g class="node" transform="rotate(263.25)translate(240)"><circle r="6" style="opacity: 0.4; fill: lime;"/><text dy=".31em" text-anchor="end" transform="rotate(180)translate(-8)">lamb</text></g><g class="node" transform="rotate(265.5)translate(240)"><circle r="6" style="opacity: 0.35; fill: lime;"/><text dy=".31em" text-anchor="end" transform="rotate(180)translate(-8)">mignon</text></g><g class="node" transform="rotate(267.75)translate(240)"><circle r="6" style="opacity: 0.3; fill: lime;"/><text dy=".31em" text-anchor="end" transform="rotate(180)translate(-8)">filet</text></g></g></svg></svg>