<svg width="1800" height="900" xmlns="http://www.w3.org/2000/svg" style="animation-delay: 0s; animation-direction: normal; animation-duration: 0s; animation-fill-mode: none; animation-iteration-count: 1; animation-name: none; animation-play-state: running; animation-timing-function: ease; background-attachment: scroll; background-blend-mode: normal; background-clip: border-box; background-color: rgba(0, 0, 0, 0); background-image: none; background-origin: padding-box; background-position: 0% 0%; background-repeat: repeat; background-size: auto; border-bottom-color: rgb(0, 0, 0); border-bottom-left-radius: 0px; border-bottom-right-radius: 0px; border-bottom-style: none; border-bottom-width: 0px; border-collapse: separate; border-image-outset: 0px; border-image-repeat: stretch; border-image-slice: 100%; border-image-source: none; border-image-width: 1; border-left-color: rgb(0, 0, 0); border-left-style: none; border-left-width: 0px; border-right-color: rgb(0, 0, 0); border-right-style: none; border-right-width: 0px; border-top-color: rgb(0, 0, 0); border-top-left-radius: 0px; border-top-right-radius: 0px; border-top-style: none; border-top-width: 0px; bottom: auto; box-shadow: none; box-sizing: content-box; caption-side: top; clear: none; clip: auto; color: rgb(0, 0, 0); cursor: auto; direction: ltr; display: inline; empty-cells: show; float: none; font-family: 'Times New Roman'; font-kerning: auto; font-size: 16px; font-stretch: normal; font-style: normal; font-variant: normal; font-variant-ligatures: normal; font-weight: normal; height: 900px; image-rendering: auto; isolation: auto; left: auto; letter-spacing: normal; line-height: normal; list-style-image: none; list-style-position: outside; list-style-type: disc; margin-bottom: 0px; margin-left: 0px; margin-right: 0px; margin-top: 0px; max-height: none; max-width: none; min-height: 0px; min-width: 0px; mix-blend-mode: normal; motion-offset: 0px; motion-path: none; motion-rotation: auto 0deg; object-fit: fill; object-position: 50% 50%; opacity: 1; orphans: auto; outline-color: rgb(0, 0, 0); outline-offset: 0px; outline-style: none; outline-width: 0px; overflow-wrap: normal; overflow-x: hidden; overflow-y: hidden; padding-bottom: 0px; padding-left: 0px; padding-right: 0px; padding-top: 0px; page-break-after: auto; page-break-before: auto; page-break-inside: auto; pointer-events: auto; position: static; resize: none; right: auto; speak: normal; table-layout: auto; tab-size: 8; text-align: start; text-decoration: none; text-indent: 0px; text-rendering: auto; text-shadow: none; text-overflow: clip; text-transform: none; top: auto; touch-action: auto; transition-delay: 0s; transition-duration: 0s; transition-property: all; transition-timing-function: ease; unicode-bidi: normal; vertical-align: baseline; visibility: visible; white-space: normal; widows: 1; width: 1800px; will-change: auto; word-break: normal; word-spacing: 0px; word-wrap: normal; z-index: auto; zoom: 1; -webkit-appearance: none; backface-visibility: visible; -webkit-background-clip: border-box; -webkit-background-composite: source-over; -webkit-background-origin: padding-box; -webkit-border-horizontal-spacing: 0px; -webkit-border-image: none; -webkit-border-vertical-spacing: 0px; -webkit-box-align: stretch; -webkit-box-decoration-break: slice; -webkit-box-direction: normal; -webkit-box-flex: 0; -webkit-box-flex-group: 1; -webkit-box-lines: single; -webkit-box-ordinal-group: 1; -webkit-box-orient: horizontal; -webkit-box-pack: start; -webkit-box-reflect: none; -webkit-clip-path: none; -webkit-column-break-after: auto; -webkit-column-break-before: auto; -webkit-column-break-inside: auto; -webkit-column-count: auto; -webkit-column-gap: normal; -webkit-column-rule-color: rgb(0, 0, 0); -webkit-column-rule-style: none; -webkit-column-rule-width: 0px; -webkit-column-span: none; -webkit-column-width: auto; -webkit-filter: none; align-content: start; align-items: start; align-self: start; flex-basis: auto; flex-grow: 0; flex-shrink: 1; flex-direction: row; flex-wrap: nowrap; justify-content: start; -webkit-font-smoothing: auto; -webkit-highlight: none; -webkit-hyphenate-character: auto; -webkit-line-box-contain: block inline replaced; -webkit-line-break: auto; -webkit-line-clamp: none; -webkit-locale: auto; -webkit-margin-before-collapse: collapse; -webkit-margin-after-collapse: collapse; -webkit-mask-box-image: none; -webkit-mask-box-image-outset: 0px; -webkit-mask-box-image-repeat: stretch; -webkit-mask-box-image-slice: 0 fill; -webkit-mask-box-image-source: none; -webkit-mask-box-image-width: auto; -webkit-mask-clip: border-box; -webkit-mask-composite: source-over; -webkit-mask-image: none; -webkit-mask-origin: border-box; -webkit-mask-position: 0% 0%; -webkit-mask-repeat: repeat; -webkit-mask-size: auto; order: 0; perspective: none; perspective-origin: 900px 450px; -webkit-print-color-adjust: economy; -webkit-rtl-ordering: logical; shape-outside: none; shape-image-threshold: 0; shape-margin: 0px; -webkit-tap-highlight-color: rgba(0, 0, 0, 0.180392); -webkit-text-combine: none; -webkit-text-decorations-in-effect: none; -webkit-text-emphasis-color: rgb(0, 0, 0); -webkit-text-emphasis-position: over; -webkit-text-emphasis-style: none; -webkit-text-fill-color: rgb(0, 0, 0); -webkit-text-orientation: vertical-right; -webkit-text-security: none; -webkit-text-stroke-color: rgb(0, 0, 0); -webkit-text-stroke-width: 0px; transform: none; transform-origin: 900px 450px; transform-style: flat; -webkit-user-drag: auto; -webkit-user-modify: read-only; -webkit-user-select: text; -webkit-writing-mode: horizontal-tb; -webkit-app-region: no-drag; buffered-rendering: auto; clip-path: none; clip-rule: nonzero; mask: none; filter: none; flood-color: rgb(0, 0, 0); flood-opacity: 1; lighting-color: rgb(255, 255, 255); stop-color: rgb(0, 0, 0); stop-opacity: 1; color-interpolation: sRGB; color-interpolation-filters: linearRGB; color-rendering: auto; fill: rgb(0, 0, 0); fill-opacity: 1; fill-rule: nonzero; marker-end: none; marker-mid: none; marker-start: none; mask-type: luminance; shape-rendering: auto; stroke: none; stroke-dasharray: none; stroke-dashoffset: 0px; stroke-linecap: butt; stroke-linejoin: miter; stroke-miterlimit: 4; stroke-opacity: 1; stroke-width: 1px; alignment-baseline: auto; baseline-shift: 0px; dominant-baseline: auto; text-anchor: start; writing-mode: lr-tb; glyph-orientation-horizontal: 0deg; glyph-orientation-vertical: auto; vector-effect: none; paint-order: fill stroke markers; cx: 0px; cy: 0px; x: 0px; y: 0px; r: 0px; rx: 0px; ry: 0px;" version="1.1" xmlns:xlink="http://www.w3.org/1999/xlink"><style type="text/css">.bar { fill: lightgreen; }
.axis { font-style: normal; font-variant: normal; font-weight: normal; font-stretch: normal; font-size: 14px; line-height: normal; font-family: sans-serif; }
.axis path, .axis line { fill: none; stroke: rgb(0, 0, 0); shape-rendering: crispEdges; }
.x.axis path { display: none; }</style><svg xmlns="http://www.w3.org/2000/svg"><g transform="translate(10,10)"><g class="x axis" transform="translate(0,650)"><g class="tick" transform="translate(33,0)" style="opacity: 1;"><line y2="6" x2="0"/><text dy="-.55em" y="9" x="0" dx="-.8em" transform="rotate(-90)" style="text-anchor: end;">fried rice (5468)</text></g><g class="tick" transform="translate(68,0)" style="opacity: 1;"><line y2="6" x2="0"/><text dy="-.55em" y="9" x="0" dx="-.8em" transform="rotate(-90)" style="text-anchor: end;">dim sum (2988)</text></g><g class="tick" transform="translate(103,0)" style="opacity: 1;"><line y2="6" x2="0"/><text dy="-.55em" y="9" x="0" dx="-.8em" transform="rotate(-90)" style="text-anchor: end;">egg roll (2411)</text></g><g class="tick" transform="translate(138,0)" style="opacity: 1;"><line y2="6" x2="0"/><text dy="-.55em" y="9" x="0" dx="-.8em" transform="rotate(-90)" style="text-anchor: end;">tofu (2380)</text></g><g class="tick" transform="translate(173,0)" style="opacity: 1;"><line y2="6" x2="0"/><text dy="-.55em" y="9" x="0" dx="-.8em" transform="rotate(-90)" style="text-anchor: end;">orange chicken (2200)</text></g><g class="tick" transform="translate(208,0)" style="opacity: 1;"><line y2="6" x2="0"/><text dy="-.55em" y="9" x="0" dx="-.8em" transform="rotate(-90)" style="text-anchor: end;">noodle soup (1607)</text></g><g class="tick" transform="translate(243,0)" style="opacity: 1;"><line y2="6" x2="0"/><text dy="-.55em" y="9" x="0" dx="-.8em" transform="rotate(-90)" style="text-anchor: end;">mongolian beef (1568)</text></g><g class="tick" transform="translate(278,0)" style="opacity: 1;"><line y2="6" x2="0"/><text dy="-.55em" y="9" x="0" dx="-.8em" transform="rotate(-90)" style="text-anchor: end;">spring roll (1323)</text></g><g class="tick" transform="translate(313,0)" style="opacity: 1;"><line y2="6" x2="0"/><text dy="-.55em" y="9" x="0" dx="-.8em" transform="rotate(-90)" style="text-anchor: end;">chow mein (1170)</text></g><g class="tick" transform="translate(348,0)" style="opacity: 1;"><line y2="6" x2="0"/><text dy="-.55em" y="9" x="0" dx="-.8em" transform="rotate(-90)" style="text-anchor: end;">hot and sour soup (1054)</text></g><g class="tick" transform="translate(383,0)" style="opacity: 1;"><line y2="6" x2="0"/><text dy="-.55em" y="9" x="0" dx="-.8em" transform="rotate(-90)" style="text-anchor: end;">lo mein (985)</text></g><g class="tick" transform="translate(418,0)" style="opacity: 1;"><line y2="6" x2="0"/><text dy="-.55em" y="9" x="0" dx="-.8em" transform="rotate(-90)" style="text-anchor: end;">bbq pork (971)</text></g><g class="tick" transform="translate(453,0)" style="opacity: 1;"><line y2="6" x2="0"/><text dy="-.55em" y="9" x="0" dx="-.8em" transform="rotate(-90)" style="text-anchor: end;">wonton soup (899)</text></g><g class="tick" transform="translate(488,0)" style="opacity: 1;"><line y2="6" x2="0"/><text dy="-.55em" y="9" x="0" dx="-.8em" transform="rotate(-90)" style="text-anchor: end;">kung pao chicken (842)</text></g><g class="tick" transform="translate(523,0)" style="opacity: 1;"><line y2="6" x2="0"/><text dy="-.55em" y="9" x="0" dx="-.8em" transform="rotate(-90)" style="text-anchor: end;">chow fun (807)</text></g><g class="tick" transform="translate(558,0)" style="opacity: 1;"><line y2="6" x2="0"/><text dy="-.55em" y="9" x="0" dx="-.8em" transform="rotate(-90)" style="text-anchor: end;">sesame chicken (680)</text></g><g class="tick" transform="translate(593,0)" style="opacity: 1;"><line y2="6" x2="0"/><text dy="-.55em" y="9" x="0" dx="-.8em" transform="rotate(-90)" style="text-anchor: end;">rice noodle (641)</text></g><g class="tick" transform="translate(628,0)" style="opacity: 1;"><line y2="6" x2="0"/><text dy="-.55em" y="9" x="0" dx="-.8em" transform="rotate(-90)" style="text-anchor: end;">sweet and sour chicken (578)</text></g><g class="tick" transform="translate(663,0)" style="opacity: 1;"><line y2="6" x2="0"/><text dy="-.55em" y="9" x="0" dx="-.8em" transform="rotate(-90)" style="text-anchor: end;">hot pot (511)</text></g><g class="tick" transform="translate(698,0)" style="opacity: 1;"><line y2="6" x2="0"/><text dy="-.55em" y="9" x="0" dx="-.8em" transform="rotate(-90)" style="text-anchor: end;">pork buns (412)</text></g><g class="tick" transform="translate(733,0)" style="opacity: 1;"><line y2="6" x2="0"/><text dy="-.55em" y="9" x="0" dx="-.8em" transform="rotate(-90)" style="text-anchor: end;">peking duck (400)</text></g><g class="tick" transform="translate(768,0)" style="opacity: 1;"><line y2="6" x2="0"/><text dy="-.55em" y="9" x="0" dx="-.8em" transform="rotate(-90)" style="text-anchor: end;">roast duck (381)</text></g><g class="tick" transform="translate(803,0)" style="opacity: 1;"><line y2="6" x2="0"/><text dy="-.55em" y="9" x="0" dx="-.8em" transform="rotate(-90)" style="text-anchor: end;">lemon chicken (370)</text></g><g class="tick" transform="translate(838,0)" style="opacity: 1;"><line y2="6" x2="0"/><text dy="-.55em" y="9" x="0" dx="-.8em" transform="rotate(-90)" style="text-anchor: end;">stir fry (366)</text></g><g class="tick" transform="translate(873,0)" style="opacity: 1;"><line y2="6" x2="0"/><text dy="-.55em" y="9" x="0" dx="-.8em" transform="rotate(-90)" style="text-anchor: end;">chicken feet (352)</text></g><g class="tick" transform="translate(908,0)" style="opacity: 1;"><line y2="6" x2="0"/><text dy="-.55em" y="9" x="0" dx="-.8em" transform="rotate(-90)" style="text-anchor: end;">bok choy (346)</text></g><g class="tick" transform="translate(943,0)" style="opacity: 1;"><line y2="6" x2="0"/><text dy="-.55em" y="9" x="0" dx="-.8em" transform="rotate(-90)" style="text-anchor: end;">egg foo young (325)</text></g><g class="tick" transform="translate(978,0)" style="opacity: 1;"><line y2="6" x2="0"/><text dy="-.55em" y="9" x="0" dx="-.8em" transform="rotate(-90)" style="text-anchor: end;">shrimp dumpling (315)</text></g><g class="tick" transform="translate(1013,0)" style="opacity: 1;"><line y2="6" x2="0"/><text dy="-.55em" y="9" x="0" dx="-.8em" transform="rotate(-90)" style="text-anchor: end;">steamed rice (288)</text></g><g class="tick" transform="translate(1048,0)" style="opacity: 1;"><line y2="6" x2="0"/><text dy="-.55em" y="9" x="0" dx="-.8em" transform="rotate(-90)" style="text-anchor: end;">spare rib (282)</text></g><g class="tick" transform="translate(1083,0)" style="opacity: 1;"><line y2="6" x2="0"/><text dy="-.55em" y="9" x="0" dx="-.8em" transform="rotate(-90)" style="text-anchor: end;">pork dumpling (262)</text></g><g class="tick" transform="translate(1118,0)" style="opacity: 1;"><line y2="6" x2="0"/><text dy="-.55em" y="9" x="0" dx="-.8em" transform="rotate(-90)" style="text-anchor: end;">cashew chicken (255)</text></g><g class="tick" transform="translate(1153,0)" style="opacity: 1;"><line y2="6" x2="0"/><text dy="-.55em" y="9" x="0" dx="-.8em" transform="rotate(-90)" style="text-anchor: end;">dan dan noodle (214)</text></g><g class="tick" transform="translate(1188,0)" style="opacity: 1;"><line y2="6" x2="0"/><text dy="-.55em" y="9" x="0" dx="-.8em" transform="rotate(-90)" style="text-anchor: end;">shaved ice (210)</text></g><g class="tick" transform="translate(1223,0)" style="opacity: 1;"><line y2="6" x2="0"/><text dy="-.55em" y="9" x="0" dx="-.8em" transform="rotate(-90)" style="text-anchor: end;">oyster sauce (209)</text></g><g class="tick" transform="translate(1258,0)" style="opacity: 1;"><line y2="6" x2="0"/><text dy="-.55em" y="9" x="0" dx="-.8em" transform="rotate(-90)" style="text-anchor: end;">rice cake (162)</text></g><g class="tick" transform="translate(1293,0)" style="opacity: 1;"><line y2="6" x2="0"/><text dy="-.55em" y="9" x="0" dx="-.8em" transform="rotate(-90)" style="text-anchor: end;">xiao long bao (161)</text></g><g class="tick" transform="translate(1328,0)" style="opacity: 1;"><line y2="6" x2="0"/><text dy="-.55em" y="9" x="0" dx="-.8em" transform="rotate(-90)" style="text-anchor: end;">siu mai (130)</text></g><g class="tick" transform="translate(1363,0)" style="opacity: 1;"><line y2="6" x2="0"/><text dy="-.55em" y="9" x="0" dx="-.8em" transform="rotate(-90)" style="text-anchor: end;">char siu (126)</text></g><g class="tick" transform="translate(1398,0)" style="opacity: 1;"><line y2="6" x2="0"/><text dy="-.55em" y="9" x="0" dx="-.8em" transform="rotate(-90)" style="text-anchor: end;">shrimp ball (125)</text></g><g class="tick" transform="translate(1433,0)" style="opacity: 1;"><line y2="6" x2="0"/><text dy="-.55em" y="9" x="0" dx="-.8em" transform="rotate(-90)" style="text-anchor: end;">chop suey (109)</text></g><g class="tick" transform="translate(1468,0)" style="opacity: 1;"><line y2="6" x2="0"/><text dy="-.55em" y="9" x="0" dx="-.8em" transform="rotate(-90)" style="text-anchor: end;">beef tendon (109)</text></g><g class="tick" transform="translate(1503,0)" style="opacity: 1;"><line y2="6" x2="0"/><text dy="-.55em" y="9" x="0" dx="-.8em" transform="rotate(-90)" style="text-anchor: end;">bamboo shoot (107)</text></g><g class="tick" transform="translate(1538,0)" style="opacity: 1;"><line y2="6" x2="0"/><text dy="-.55em" y="9" x="0" dx="-.8em" transform="rotate(-90)" style="text-anchor: end;">shark fin (86)</text></g><g class="tick" transform="translate(1573,0)" style="opacity: 1;"><line y2="6" x2="0"/><text dy="-.55em" y="9" x="0" dx="-.8em" transform="rotate(-90)" style="text-anchor: end;">general chicken (83)</text></g><g class="tick" transform="translate(1608,0)" style="opacity: 1;"><line y2="6" x2="0"/><text dy="-.55em" y="9" x="0" dx="-.8em" transform="rotate(-90)" style="text-anchor: end;">szechuan chicken (76)</text></g><g class="tick" transform="translate(1643,0)" style="opacity: 1;"><line y2="6" x2="0"/><text dy="-.55em" y="9" x="0" dx="-.8em" transform="rotate(-90)" style="text-anchor: end;">mu shu pork (60)</text></g><g class="tick" transform="translate(1678,0)" style="opacity: 1;"><line y2="6" x2="0"/><text dy="-.55em" y="9" x="0" dx="-.8em" transform="rotate(-90)" style="text-anchor: end;">lamb skewer (51)</text></g><g class="tick" transform="translate(1713,0)" style="opacity: 1;"><line y2="6" x2="0"/><text dy="-.55em" y="9" x="0" dx="-.8em" transform="rotate(-90)" style="text-anchor: end;">fried dough (33)</text></g><g class="tick" transform="translate(1748,0)" style="opacity: 1;"><line y2="6" x2="0"/><text dy="-.55em" y="9" x="0" dx="-.8em" transform="rotate(-90)" style="text-anchor: end;">hainanese chicken rice (19)</text></g><path class="domain" d="M0,6V0H1780V6"/></g><rect class="bar" x="17" width="32" y="0" height="650"/><rect class="bar" x="52" width="32" y="294.80614484272127" height="355.19385515727873"/><rect class="bar" x="87" width="32" y="363.3961228968545" height="286.6038771031455"/><rect class="bar" x="122" width="32" y="367.08119970738846" height="282.91880029261154"/><rect class="bar" x="157" width="32" y="388.4784198975859" height="261.5215801024141"/><rect class="bar" x="192" width="32" y="458.97037307973665" height="191.02962692026335"/><rect class="bar" x="227" width="32" y="463.60643745427944" height="186.39356254572056"/><rect class="bar" x="262" width="32" y="492.73043160204827" height="157.26956839795173"/><rect class="bar" x="297" width="32" y="510.9180687637161" height="139.08193123628388"/><rect class="bar" x="332" width="32" y="524.7073884418435" height="125.29261155815652"/><rect class="bar" x="367" width="32" y="532.9096561814191" height="117.09034381858089"/><rect class="bar" x="402" width="32" y="534.5738844184345" height="115.42611558156545"/><rect class="bar" x="437" width="32" y="543.1327724945136" height="106.86722750548643"/><rect class="bar" x="472" width="32" y="549.9085588880761" height="100.09144111192393"/><rect class="bar" x="507" width="32" y="554.0691294806145" height="95.93087051938551"/><rect class="bar" x="542" width="32" y="569.1660570592538" height="80.83394294074617"/><rect class="bar" x="577" width="32" y="573.8021214337966" height="76.19787856620337"/><rect class="bar" x="612" width="32" y="581.2911485003658" height="68.70885149963419"/><rect class="bar" x="647" width="32" y="589.2556693489393" height="60.74433065106075"/><rect class="bar" x="682" width="32" y="601.024140453548" height="48.97585954645206"/><rect class="bar" x="717" width="32" y="602.4506217995611" height="47.54937820043892"/><rect class="bar" x="752" width="32" y="604.7092172640819" height="45.29078273591813"/><rect class="bar" x="787" width="32" y="606.016825164594" height="43.983174835405976"/><rect class="bar" x="822" width="32" y="606.4923189465984" height="43.5076810534016"/><rect class="bar" x="857" width="32" y="608.1565471836137" height="41.843452816386275"/><rect class="bar" x="892" width="32" y="608.8697878566203" height="41.13021214337971"/><rect class="bar" x="927" width="32" y="611.3661302121434" height="38.63386978785661"/><rect class="bar" x="962" width="32" y="612.5548646671543" height="37.445135332845666"/><rect class="bar" x="997" width="32" y="615.764447695684" height="34.235552304316"/><rect class="bar" x="1032" width="32" y="616.4776883686906" height="33.522311631309435"/><rect class="bar" x="1067" width="32" y="618.8551572787126" height="31.144842721287432"/><rect class="bar" x="1102" width="32" y="619.6872713972201" height="30.312728602779885"/><rect class="bar" x="1137" width="32" y="624.5610826627652" height="25.438917337234784"/><rect class="bar" x="1172" width="32" y="625.0365764447696" height="24.963423555230406"/><rect class="bar" x="1207" width="32" y="625.1554498902707" height="24.84455010972931"/><rect class="bar" x="1242" width="32" y="630.7425018288222" height="19.257498171177758"/><rect class="bar" x="1277" width="32" y="630.8613752743233" height="19.138624725676664"/><rect class="bar" x="1312" width="32" y="634.5464520848573" height="15.453547915142735"/><rect class="bar" x="1347" width="32" y="635.0219458668618" height="14.978054133138244"/><rect class="bar" x="1382" width="32" y="635.1408193123629" height="14.85918068763715"/><rect class="bar" x="1417" width="32" y="637.0427944403804" height="12.957205559619638"/><rect class="bar" x="1452" width="32" y="637.0427944403804" height="12.957205559619638"/><rect class="bar" x="1487" width="32" y="637.2805413313827" height="12.719458668617335"/><rect class="bar" x="1522" width="32" y="639.7768836869056" height="10.223116313094351"/><rect class="bar" x="1557" width="32" y="640.1335040234089" height="9.866495976591068"/><rect class="bar" x="1592" width="32" y="640.9656181419166" height="9.034381858083407"/><rect class="bar" x="1627" width="32" y="642.8675932699342" height="7.132406730065782"/><rect class="bar" x="1662" width="32" y="643.937454279444" height="6.062545720556045"/><rect class="bar" x="1697" width="32" y="646.0771762984638" height="3.922823701536231"/><rect class="bar" x="1732" width="32" y="647.7414045354792" height="2.258595464520795"/></g></svg></svg>