<svg width="1800" height="900" xmlns="http://www.w3.org/2000/svg" style="animation-delay: 0s; animation-direction: normal; animation-duration: 0s; animation-fill-mode: none; animation-iteration-count: 1; animation-name: none; animation-play-state: running; animation-timing-function: ease; background-attachment: scroll; background-blend-mode: normal; background-clip: border-box; background-color: rgba(0, 0, 0, 0); background-image: none; background-origin: padding-box; background-position: 0% 0%; background-repeat: repeat; background-size: auto; border-bottom-color: rgb(0, 0, 0); border-bottom-left-radius: 0px; border-bottom-right-radius: 0px; border-bottom-style: none; border-bottom-width: 0px; border-collapse: separate; border-image-outset: 0px; border-image-repeat: stretch; border-image-slice: 100%; border-image-source: none; border-image-width: 1; border-left-color: rgb(0, 0, 0); border-left-style: none; border-left-width: 0px; border-right-color: rgb(0, 0, 0); border-right-style: none; border-right-width: 0px; border-top-color: rgb(0, 0, 0); border-top-left-radius: 0px; border-top-right-radius: 0px; border-top-style: none; border-top-width: 0px; bottom: auto; box-shadow: none; box-sizing: content-box; caption-side: top; clear: none; clip: auto; color: rgb(0, 0, 0); cursor: auto; direction: ltr; display: inline; empty-cells: show; float: none; font-family: 'Times New Roman'; font-kerning: auto; font-size: 16px; font-stretch: normal; font-style: normal; font-variant: normal; font-variant-ligatures: normal; font-weight: normal; height: 900px; image-rendering: auto; isolation: auto; left: auto; letter-spacing: normal; line-height: normal; list-style-image: none; list-style-position: outside; list-style-type: disc; margin-bottom: 0px; margin-left: 0px; margin-right: 0px; margin-top: 0px; max-height: none; max-width: none; min-height: 0px; min-width: 0px; mix-blend-mode: normal; motion-offset: 0px; motion-path: none; motion-rotation: auto 0deg; object-fit: fill; object-position: 50% 50%; opacity: 1; orphans: auto; outline-color: rgb(0, 0, 0); outline-offset: 0px; outline-style: none; outline-width: 0px; overflow-wrap: normal; overflow-x: hidden; overflow-y: hidden; padding-bottom: 0px; padding-left: 0px; padding-right: 0px; padding-top: 0px; page-break-after: auto; page-break-before: auto; page-break-inside: auto; pointer-events: auto; position: static; resize: none; right: auto; speak: normal; table-layout: auto; tab-size: 8; text-align: start; text-decoration: none; text-indent: 0px; text-rendering: auto; text-shadow: none; text-overflow: clip; text-transform: none; top: auto; touch-action: auto; transition-delay: 0s; transition-duration: 0s; transition-property: all; transition-timing-function: ease; unicode-bidi: normal; vertical-align: baseline; visibility: visible; white-space: normal; widows: 1; width: 1800px; will-change: auto; word-break: normal; word-spacing: 0px; word-wrap: normal; z-index: auto; zoom: 1; -webkit-appearance: none; backface-visibility: visible; -webkit-background-clip: border-box; -webkit-background-composite: source-over; -webkit-background-origin: padding-box; -webkit-border-horizontal-spacing: 0px; -webkit-border-image: none; -webkit-border-vertical-spacing: 0px; -webkit-box-align: stretch; -webkit-box-decoration-break: slice; -webkit-box-direction: normal; -webkit-box-flex: 0; -webkit-box-flex-group: 1; -webkit-box-lines: single; -webkit-box-ordinal-group: 1; -webkit-box-orient: horizontal; -webkit-box-pack: start; -webkit-box-reflect: none; -webkit-clip-path: none; -webkit-column-break-after: auto; -webkit-column-break-before: auto; -webkit-column-break-inside: auto; -webkit-column-count: auto; -webkit-column-gap: normal; -webkit-column-rule-color: rgb(0, 0, 0); -webkit-column-rule-style: none; -webkit-column-rule-width: 0px; -webkit-column-span: none; -webkit-column-width: auto; -webkit-filter: none; align-content: start; align-items: start; align-self: start; flex-basis: auto; flex-grow: 0; flex-shrink: 1; flex-direction: row; flex-wrap: nowrap; justify-content: start; -webkit-font-smoothing: auto; -webkit-highlight: none; -webkit-hyphenate-character: auto; -webkit-line-box-contain: block inline replaced; -webkit-line-break: auto; -webkit-line-clamp: none; -webkit-locale: auto; -webkit-margin-before-collapse: collapse; -webkit-margin-after-collapse: collapse; -webkit-mask-box-image: none; -webkit-mask-box-image-outset: 0px; -webkit-mask-box-image-repeat: stretch; -webkit-mask-box-image-slice: 0 fill; -webkit-mask-box-image-source: none; -webkit-mask-box-image-width: auto; -webkit-mask-clip: border-box; -webkit-mask-composite: source-over; -webkit-mask-image: none; -webkit-mask-origin: border-box; -webkit-mask-position: 0% 0%; -webkit-mask-repeat: repeat; -webkit-mask-size: auto; order: 0; perspective: none; perspective-origin: 900px 450px; -webkit-print-color-adjust: economy; -webkit-rtl-ordering: logical; shape-outside: none; shape-image-threshold: 0; shape-margin: 0px; -webkit-tap-highlight-color: rgba(0, 0, 0, 0.180392); -webkit-text-combine: none; -webkit-text-decorations-in-effect: none; -webkit-text-emphasis-color: rgb(0, 0, 0); -webkit-text-emphasis-position: over; -webkit-text-emphasis-style: none; -webkit-text-fill-color: rgb(0, 0, 0); -webkit-text-orientation: vertical-right; -webkit-text-security: none; -webkit-text-stroke-color: rgb(0, 0, 0); -webkit-text-stroke-width: 0px; transform: none; transform-origin: 900px 450px; transform-style: flat; -webkit-user-drag: auto; -webkit-user-modify: read-only; -webkit-user-select: text; -webkit-writing-mode: horizontal-tb; -webkit-app-region: no-drag; buffered-rendering: auto; clip-path: none; clip-rule: nonzero; mask: none; filter: none; flood-color: rgb(0, 0, 0); flood-opacity: 1; lighting-color: rgb(255, 255, 255); stop-color: rgb(0, 0, 0); stop-opacity: 1; color-interpolation: sRGB; color-interpolation-filters: linearRGB; color-rendering: auto; fill: rgb(0, 0, 0); fill-opacity: 1; fill-rule: nonzero; marker-end: none; marker-mid: none; marker-start: none; mask-type: luminance; shape-rendering: auto; stroke: none; stroke-dasharray: none; stroke-dashoffset: 0px; stroke-linecap: butt; stroke-linejoin: miter; stroke-miterlimit: 4; stroke-opacity: 1; stroke-width: 1px; alignment-baseline: auto; baseline-shift: 0px; dominant-baseline: auto; text-anchor: start; writing-mode: lr-tb; glyph-orientation-horizontal: 0deg; glyph-orientation-vertical: auto; vector-effect: none; paint-order: fill stroke markers; cx: 0px; cy: 0px; x: 0px; y: 0px; r: 0px; rx: 0px; ry: 0px;" version="1.1" xmlns:xlink="http://www.w3.org/1999/xlink"><style type="text/css">.bar { fill: green; }
.axis { font-style: normal; font-variant: normal; font-weight: normal; font-stretch: normal; font-size: 14px; line-height: normal; font-family: sans-serif; }
.axis path, .axis line { fill: none; stroke: rgb(0, 0, 0); shape-rendering: crispEdges; }
.x.axis path { display: none; }</style><svg xmlns="http://www.w3.org/2000/svg"><g transform="translate(10,10)"><g class="x axis" transform="translate(0,650)"><g class="tick" transform="translate(33,0)" style="opacity: 1;"><line y2="6" x2="0"/><text dy="-.55em" y="9" x="0" dx="-.8em" transform="rotate(-90)" style="text-anchor: end;">fried rice (5560)</text></g><g class="tick" transform="translate(68,0)" style="opacity: 1;"><line y2="6" x2="0"/><text dy="-.55em" y="9" x="0" dx="-.8em" transform="rotate(-90)" style="text-anchor: end;">dim sum (5053)</text></g><g class="tick" transform="translate(103,0)" style="opacity: 1;"><line y2="6" x2="0"/><text dy="-.55em" y="9" x="0" dx="-.8em" transform="rotate(-90)" style="text-anchor: end;">tofu (2644)</text></g><g class="tick" transform="translate(138,0)" style="opacity: 1;"><line y2="6" x2="0"/><text dy="-.55em" y="9" x="0" dx="-.8em" transform="rotate(-90)" style="text-anchor: end;">egg roll (2459)</text></g><g class="tick" transform="translate(173,0)" style="opacity: 1;"><line y2="6" x2="0"/><text dy="-.55em" y="9" x="0" dx="-.8em" transform="rotate(-90)" style="text-anchor: end;">orange chicken (2095)</text></g><g class="tick" transform="translate(208,0)" style="opacity: 1;"><line y2="6" x2="0"/><text dy="-.55em" y="9" x="0" dx="-.8em" transform="rotate(-90)" style="text-anchor: end;">noodle soup (1654)</text></g><g class="tick" transform="translate(243,0)" style="opacity: 1;"><line y2="6" x2="0"/><text dy="-.55em" y="9" x="0" dx="-.8em" transform="rotate(-90)" style="text-anchor: end;">Mongolian beef (1384)</text></g><g class="tick" transform="translate(278,0)" style="opacity: 1;"><line y2="6" x2="0"/><text dy="-.55em" y="9" x="0" dx="-.8em" transform="rotate(-90)" style="text-anchor: end;">spring roll (1218)</text></g><g class="tick" transform="translate(313,0)" style="opacity: 1;"><line y2="6" x2="0"/><text dy="-.55em" y="9" x="0" dx="-.8em" transform="rotate(-90)" style="text-anchor: end;">chow mein (1214)</text></g><g class="tick" transform="translate(348,0)" style="opacity: 1;"><line y2="6" x2="0"/><text dy="-.55em" y="9" x="0" dx="-.8em" transform="rotate(-90)" style="text-anchor: end;">lo mein (983)</text></g><g class="tick" transform="translate(383,0)" style="opacity: 1;"><line y2="6" x2="0"/><text dy="-.55em" y="9" x="0" dx="-.8em" transform="rotate(-90)" style="text-anchor: end;">hot and sour soup (958)</text></g><g class="tick" transform="translate(418,0)" style="opacity: 1;"><line y2="6" x2="0"/><text dy="-.55em" y="9" x="0" dx="-.8em" transform="rotate(-90)" style="text-anchor: end;">BBQ pork (924)</text></g><g class="tick" transform="translate(453,0)" style="opacity: 1;"><line y2="6" x2="0"/><text dy="-.55em" y="9" x="0" dx="-.8em" transform="rotate(-90)" style="text-anchor: end;">wonton soup (818)</text></g><g class="tick" transform="translate(488,0)" style="opacity: 1;"><line y2="6" x2="0"/><text dy="-.55em" y="9" x="0" dx="-.8em" transform="rotate(-90)" style="text-anchor: end;">chow fun (778)</text></g><g class="tick" transform="translate(523,0)" style="opacity: 1;"><line y2="6" x2="0"/><text dy="-.55em" y="9" x="0" dx="-.8em" transform="rotate(-90)" style="text-anchor: end;">Kung Pao Chicken (722)</text></g><g class="tick" transform="translate(558,0)" style="opacity: 1;"><line y2="6" x2="0"/><text dy="-.55em" y="9" x="0" dx="-.8em" transform="rotate(-90)" style="text-anchor: end;">hot pot (693)</text></g><g class="tick" transform="translate(593,0)" style="opacity: 1;"><line y2="6" x2="0"/><text dy="-.55em" y="9" x="0" dx="-.8em" transform="rotate(-90)" style="text-anchor: end;">sesame chicken (628)</text></g><g class="tick" transform="translate(628,0)" style="opacity: 1;"><line y2="6" x2="0"/><text dy="-.55em" y="9" x="0" dx="-.8em" transform="rotate(-90)" style="text-anchor: end;">rice noodle (568)</text></g><g class="tick" transform="translate(663,0)" style="opacity: 1;"><line y2="6" x2="0"/><text dy="-.55em" y="9" x="0" dx="-.8em" transform="rotate(-90)" style="text-anchor: end;">sweet and sour chicken (515)</text></g><g class="tick" transform="translate(698,0)" style="opacity: 1;"><line y2="6" x2="0"/><text dy="-.55em" y="9" x="0" dx="-.8em" transform="rotate(-90)" style="text-anchor: end;">pork buns (363)</text></g><g class="tick" transform="translate(733,0)" style="opacity: 1;"><line y2="6" x2="0"/><text dy="-.55em" y="9" x="0" dx="-.8em" transform="rotate(-90)" style="text-anchor: end;">roast duck (345)</text></g><g class="tick" transform="translate(768,0)" style="opacity: 1;"><line y2="6" x2="0"/><text dy="-.55em" y="9" x="0" dx="-.8em" transform="rotate(-90)" style="text-anchor: end;">stir fry (341)</text></g><g class="tick" transform="translate(803,0)" style="opacity: 1;"><line y2="6" x2="0"/><text dy="-.55em" y="9" x="0" dx="-.8em" transform="rotate(-90)" style="text-anchor: end;">lemon chicken (337)</text></g><g class="tick" transform="translate(838,0)" style="opacity: 1;"><line y2="6" x2="0"/><text dy="-.55em" y="9" x="0" dx="-.8em" transform="rotate(-90)" style="text-anchor: end;">peking duck (332)</text></g><g class="tick" transform="translate(873,0)" style="opacity: 1;"><line y2="6" x2="0"/><text dy="-.55em" y="9" x="0" dx="-.8em" transform="rotate(-90)" style="text-anchor: end;">egg foo young (320)</text></g><g class="tick" transform="translate(908,0)" style="opacity: 1;"><line y2="6" x2="0"/><text dy="-.55em" y="9" x="0" dx="-.8em" transform="rotate(-90)" style="text-anchor: end;">chicken feet (312)</text></g><g class="tick" transform="translate(943,0)" style="opacity: 1;"><line y2="6" x2="0"/><text dy="-.55em" y="9" x="0" dx="-.8em" transform="rotate(-90)" style="text-anchor: end;">bok choy (295)</text></g><g class="tick" transform="translate(978,0)" style="opacity: 1;"><line y2="6" x2="0"/><text dy="-.55em" y="9" x="0" dx="-.8em" transform="rotate(-90)" style="text-anchor: end;">steamed rice (281)</text></g><g class="tick" transform="translate(1013,0)" style="opacity: 1;"><line y2="6" x2="0"/><text dy="-.55em" y="9" x="0" dx="-.8em" transform="rotate(-90)" style="text-anchor: end;">shrimp dumpling (274)</text></g><g class="tick" transform="translate(1048,0)" style="opacity: 1;"><line y2="6" x2="0"/><text dy="-.55em" y="9" x="0" dx="-.8em" transform="rotate(-90)" style="text-anchor: end;">cashew chicken (246)</text></g><g class="tick" transform="translate(1083,0)" style="opacity: 1;"><line y2="6" x2="0"/><text dy="-.55em" y="9" x="0" dx="-.8em" transform="rotate(-90)" style="text-anchor: end;">spare rib (242)</text></g><g class="tick" transform="translate(1118,0)" style="opacity: 1;"><line y2="6" x2="0"/><text dy="-.55em" y="9" x="0" dx="-.8em" transform="rotate(-90)" style="text-anchor: end;">pork dumpling (227)</text></g><g class="tick" transform="translate(1153,0)" style="opacity: 1;"><line y2="6" x2="0"/><text dy="-.55em" y="9" x="0" dx="-.8em" transform="rotate(-90)" style="text-anchor: end;">dan dan noodle (199)</text></g><g class="tick" transform="translate(1188,0)" style="opacity: 1;"><line y2="6" x2="0"/><text dy="-.55em" y="9" x="0" dx="-.8em" transform="rotate(-90)" style="text-anchor: end;">xiao long bao (193)</text></g><g class="tick" transform="translate(1223,0)" style="opacity: 1;"><line y2="6" x2="0"/><text dy="-.55em" y="9" x="0" dx="-.8em" transform="rotate(-90)" style="text-anchor: end;">oyster sauce (190)</text></g><g class="tick" transform="translate(1258,0)" style="opacity: 1;"><line y2="6" x2="0"/><text dy="-.55em" y="9" x="0" dx="-.8em" transform="rotate(-90)" style="text-anchor: end;">shaved ice (178)</text></g><g class="tick" transform="translate(1293,0)" style="opacity: 1;"><line y2="6" x2="0"/><text dy="-.55em" y="9" x="0" dx="-.8em" transform="rotate(-90)" style="text-anchor: end;">mu shu pork (169)</text></g><g class="tick" transform="translate(1328,0)" style="opacity: 1;"><line y2="6" x2="0"/><text dy="-.55em" y="9" x="0" dx="-.8em" transform="rotate(-90)" style="text-anchor: end;">rice cake (156)</text></g><g class="tick" transform="translate(1363,0)" style="opacity: 1;"><line y2="6" x2="0"/><text dy="-.55em" y="9" x="0" dx="-.8em" transform="rotate(-90)" style="text-anchor: end;">siu mai (144)</text></g><g class="tick" transform="translate(1398,0)" style="opacity: 1;"><line y2="6" x2="0"/><text dy="-.55em" y="9" x="0" dx="-.8em" transform="rotate(-90)" style="text-anchor: end;">char siu (121)</text></g><g class="tick" transform="translate(1433,0)" style="opacity: 1;"><line y2="6" x2="0"/><text dy="-.55em" y="9" x="0" dx="-.8em" transform="rotate(-90)" style="text-anchor: end;">chop suey (115)</text></g><g class="tick" transform="translate(1468,0)" style="opacity: 1;"><line y2="6" x2="0"/><text dy="-.55em" y="9" x="0" dx="-.8em" transform="rotate(-90)" style="text-anchor: end;">shrimp ball (111)</text></g><g class="tick" transform="translate(1503,0)" style="opacity: 1;"><line y2="6" x2="0"/><text dy="-.55em" y="9" x="0" dx="-.8em" transform="rotate(-90)" style="text-anchor: end;">beef tendon (99)</text></g><g class="tick" transform="translate(1538,0)" style="opacity: 1;"><line y2="6" x2="0"/><text dy="-.55em" y="9" x="0" dx="-.8em" transform="rotate(-90)" style="text-anchor: end;">shark fin (94)</text></g><g class="tick" transform="translate(1573,0)" style="opacity: 1;"><line y2="6" x2="0"/><text dy="-.55em" y="9" x="0" dx="-.8em" transform="rotate(-90)" style="text-anchor: end;">bamboo shoot (91)</text></g><g class="tick" transform="translate(1608,0)" style="opacity: 1;"><line y2="6" x2="0"/><text dy="-.55em" y="9" x="0" dx="-.8em" transform="rotate(-90)" style="text-anchor: end;">general chicken (80)</text></g><g class="tick" transform="translate(1643,0)" style="opacity: 1;"><line y2="6" x2="0"/><text dy="-.55em" y="9" x="0" dx="-.8em" transform="rotate(-90)" style="text-anchor: end;">szechuan chicken (64)</text></g><g class="tick" transform="translate(1678,0)" style="opacity: 1;"><line y2="6" x2="0"/><text dy="-.55em" y="9" x="0" dx="-.8em" transform="rotate(-90)" style="text-anchor: end;">lamb skewer (42)</text></g><g class="tick" transform="translate(1713,0)" style="opacity: 1;"><line y2="6" x2="0"/><text dy="-.55em" y="9" x="0" dx="-.8em" transform="rotate(-90)" style="text-anchor: end;">fried dough (28)</text></g><g class="tick" transform="translate(1748,0)" style="opacity: 1;"><line y2="6" x2="0"/><text dy="-.55em" y="9" x="0" dx="-.8em" transform="rotate(-90)" style="text-anchor: end;">hainanese chicken rice (19)</text></g><path class="domain" d="M0,6V0H1780V6"/></g><rect class="bar" x="17" width="32" y="0" height="650"/><rect class="bar" x="52" width="32" y="59.27158273381293" height="590.7284172661871"/><rect class="bar" x="87" width="32" y="340.8992805755396" height="309.1007194244604"/><rect class="bar" x="122" width="32" y="362.5269784172662" height="287.4730215827338"/><rect class="bar" x="157" width="32" y="405.08093525179856" height="244.91906474820144"/><rect class="bar" x="192" width="32" y="456.636690647482" height="193.363309352518"/><rect class="bar" x="227" width="32" y="488.2014388489209" height="161.79856115107913"/><rect class="bar" x="262" width="32" y="507.60791366906477" height="142.39208633093523"/><rect class="bar" x="297" width="32" y="508.0755395683453" height="141.92446043165472"/><rect class="bar" x="332" width="32" y="535.0809352517986" height="114.91906474820144"/><rect class="bar" x="367" width="32" y="538.0035971223022" height="111.99640287769785"/><rect class="bar" x="402" width="32" y="541.9784172661871" height="108.02158273381292"/><rect class="bar" x="437" width="32" y="554.3705035971223" height="95.62949640287775"/><rect class="bar" x="472" width="32" y="559.046762589928" height="90.953237410072"/><rect class="bar" x="507" width="32" y="565.5935251798561" height="84.4064748201439"/><rect class="bar" x="542" width="32" y="568.9838129496403" height="81.01618705035969"/><rect class="bar" x="577" width="32" y="576.5827338129496" height="73.41726618705036"/><rect class="bar" x="612" width="32" y="583.5971223021583" height="66.40287769784175"/><rect class="bar" x="647" width="32" y="589.793165467626" height="60.206834532374046"/><rect class="bar" x="682" width="32" y="607.5629496402877" height="42.437050359712316"/><rect class="bar" x="717" width="32" y="609.6672661870504" height="40.33273381294964"/><rect class="bar" x="752" width="32" y="610.134892086331" height="39.86510791366902"/><rect class="bar" x="787" width="32" y="610.6025179856115" height="39.397482014388515"/><rect class="bar" x="822" width="32" y="611.1870503597122" height="38.8129496402878"/><rect class="bar" x="857" width="32" y="612.589928057554" height="37.41007194244605"/><rect class="bar" x="892" width="32" y="613.5251798561152" height="36.47482014388481"/><rect class="bar" x="927" width="32" y="615.5125899280575" height="34.48741007194246"/><rect class="bar" x="962" width="32" y="617.1492805755396" height="32.85071942446041"/><rect class="bar" x="997" width="32" y="617.9676258992806" height="32.03237410071938"/><rect class="bar" x="1032" width="32" y="621.2410071942446" height="28.758992805755383"/><rect class="bar" x="1067" width="32" y="621.7086330935251" height="28.291366906474877"/><rect class="bar" x="1102" width="32" y="623.4622302158274" height="26.53776978417261"/><rect class="bar" x="1137" width="32" y="626.7356115107914" height="23.264388489208613"/><rect class="bar" x="1172" width="32" y="627.4370503597122" height="22.562949640287798"/><rect class="bar" x="1207" width="32" y="627.7877697841726" height="22.21223021582739"/><rect class="bar" x="1242" width="32" y="629.1906474820144" height="20.809352517985644"/><rect class="bar" x="1277" width="32" y="630.2428057553957" height="19.757194244604307"/><rect class="bar" x="1312" width="32" y="631.7625899280575" height="18.237410071942463"/><rect class="bar" x="1347" width="32" y="633.1654676258993" height="16.834532374100718"/><rect class="bar" x="1382" width="32" y="635.8543165467626" height="14.145683453237439"/><rect class="bar" x="1417" width="32" y="636.5557553956835" height="13.44424460431651"/><rect class="bar" x="1452" width="32" y="637.023381294964" height="12.976618705036003"/><rect class="bar" x="1487" width="32" y="638.4262589928057" height="11.573741007194258"/><rect class="bar" x="1522" width="32" y="639.0107913669065" height="10.98920863309354"/><rect class="bar" x="1557" width="32" y="639.3615107913669" height="10.638489208633132"/><rect class="bar" x="1592" width="32" y="640.6474820143885" height="9.352517985611485"/><rect class="bar" x="1627" width="32" y="642.5179856115108" height="7.482014388489233"/><rect class="bar" x="1662" width="32" y="645.089928057554" height="4.910071942446052"/><rect class="bar" x="1697" width="32" y="646.726618705036" height="3.273381294963997"/><rect class="bar" x="1732" width="32" y="647.7787769784172" height="2.221223021582773"/></g></svg></svg>