<svg width="2800" height="1000" xmlns="http://www.w3.org/2000/svg" style="animation-delay: 0s; animation-direction: normal; animation-duration: 0s; animation-fill-mode: none; animation-iteration-count: 1; animation-name: none; animation-play-state: running; animation-timing-function: ease; background-attachment: scroll; background-blend-mode: normal; background-clip: border-box; background-color: rgba(0, 0, 0, 0); background-image: none; background-origin: padding-box; background-position: 0% 0%; background-repeat: repeat; background-size: auto; border-bottom-color: rgb(0, 0, 0); border-bottom-left-radius: 0px; border-bottom-right-radius: 0px; border-bottom-style: none; border-bottom-width: 0px; border-collapse: separate; border-image-outset: 0px; border-image-repeat: stretch; border-image-slice: 100%; border-image-source: none; border-image-width: 1; border-left-color: rgb(0, 0, 0); border-left-style: none; border-left-width: 0px; border-right-color: rgb(0, 0, 0); border-right-style: none; border-right-width: 0px; border-top-color: rgb(0, 0, 0); border-top-left-radius: 0px; border-top-right-radius: 0px; border-top-style: none; border-top-width: 0px; bottom: auto; box-shadow: none; box-sizing: content-box; caption-side: top; clear: none; clip: auto; color: rgb(0, 0, 0); cursor: auto; direction: ltr; display: inline; empty-cells: show; float: none; font-family: 'Times New Roman'; font-kerning: auto; font-size: 16px; font-stretch: normal; font-style: normal; font-variant: normal; font-variant-ligatures: normal; font-weight: normal; height: 1000px; image-rendering: auto; isolation: auto; left: auto; letter-spacing: normal; line-height: normal; list-style-image: none; list-style-position: outside; list-style-type: disc; margin-bottom: 0px; margin-left: 0px; margin-right: 0px; margin-top: 0px; max-height: none; max-width: none; min-height: 0px; min-width: 0px; mix-blend-mode: normal; motion-offset: 0px; motion-path: none; motion-rotation: auto 0deg; object-fit: fill; object-position: 50% 50%; opacity: 1; orphans: auto; outline-color: rgb(0, 0, 0); outline-offset: 0px; outline-style: none; outline-width: 0px; overflow-wrap: normal; overflow-x: hidden; overflow-y: hidden; padding-bottom: 0px; padding-left: 0px; padding-right: 0px; padding-top: 0px; page-break-after: auto; page-break-before: auto; page-break-inside: auto; pointer-events: auto; position: static; resize: none; right: auto; speak: normal; table-layout: auto; tab-size: 8; text-align: start; text-decoration: none; text-indent: 0px; text-rendering: auto; text-shadow: none; text-overflow: clip; text-transform: none; top: auto; touch-action: auto; transition-delay: 0s; transition-duration: 0s; transition-property: all; transition-timing-function: ease; unicode-bidi: normal; vertical-align: baseline; visibility: visible; white-space: normal; widows: 1; width: 2800px; will-change: auto; word-break: normal; word-spacing: 0px; word-wrap: normal; z-index: auto; zoom: 1; -webkit-appearance: none; backface-visibility: visible; -webkit-background-clip: border-box; -webkit-background-composite: source-over; -webkit-background-origin: padding-box; -webkit-border-horizontal-spacing: 0px; -webkit-border-image: none; -webkit-border-vertical-spacing: 0px; -webkit-box-align: stretch; -webkit-box-decoration-break: slice; -webkit-box-direction: normal; -webkit-box-flex: 0; -webkit-box-flex-group: 1; -webkit-box-lines: single; -webkit-box-ordinal-group: 1; -webkit-box-orient: horizontal; -webkit-box-pack: start; -webkit-box-reflect: none; -webkit-clip-path: none; -webkit-column-break-after: auto; -webkit-column-break-before: auto; -webkit-column-break-inside: auto; -webkit-column-count: auto; -webkit-column-gap: normal; -webkit-column-rule-color: rgb(0, 0, 0); -webkit-column-rule-style: none; -webkit-column-rule-width: 0px; -webkit-column-span: none; -webkit-column-width: auto; -webkit-filter: none; align-content: start; align-items: start; align-self: start; flex-basis: auto; flex-grow: 0; flex-shrink: 1; flex-direction: row; flex-wrap: nowrap; justify-content: start; -webkit-font-smoothing: auto; -webkit-highlight: none; -webkit-hyphenate-character: auto; -webkit-line-box-contain: block inline replaced; -webkit-line-break: auto; -webkit-line-clamp: none; -webkit-locale: auto; -webkit-margin-before-collapse: collapse; -webkit-margin-after-collapse: collapse; -webkit-mask-box-image: none; -webkit-mask-box-image-outset: 0px; -webkit-mask-box-image-repeat: stretch; -webkit-mask-box-image-slice: 0 fill; -webkit-mask-box-image-source: none; -webkit-mask-box-image-width: auto; -webkit-mask-clip: border-box; -webkit-mask-composite: source-over; -webkit-mask-image: none; -webkit-mask-origin: border-box; -webkit-mask-position: 0% 0%; -webkit-mask-repeat: repeat; -webkit-mask-size: auto; order: 0; perspective: none; perspective-origin: 1399.99px 500px; -webkit-print-color-adjust: economy; -webkit-rtl-ordering: logical; shape-outside: none; shape-image-threshold: 0; shape-margin: 0px; -webkit-tap-highlight-color: rgba(0, 0, 0, 0.180392); -webkit-text-combine: none; -webkit-text-decorations-in-effect: none; -webkit-text-emphasis-color: rgb(0, 0, 0); -webkit-text-emphasis-position: over; -webkit-text-emphasis-style: none; -webkit-text-fill-color: rgb(0, 0, 0); -webkit-text-orientation: vertical-right; -webkit-text-security: none; -webkit-text-stroke-color: rgb(0, 0, 0); -webkit-text-stroke-width: 0px; transform: none; transform-origin: 1399.99px 500px; transform-style: flat; -webkit-user-drag: auto; -webkit-user-modify: read-only; -webkit-user-select: text; -webkit-writing-mode: horizontal-tb; -webkit-app-region: no-drag; buffered-rendering: auto; clip-path: none; clip-rule: nonzero; mask: none; filter: none; flood-color: rgb(0, 0, 0); flood-opacity: 1; lighting-color: rgb(255, 255, 255); stop-color: rgb(0, 0, 0); stop-opacity: 1; color-interpolation: sRGB; color-interpolation-filters: linearRGB; color-rendering: auto; fill: rgb(0, 0, 0); fill-opacity: 1; fill-rule: nonzero; marker-end: none; marker-mid: none; marker-start: none; mask-type: luminance; shape-rendering: auto; stroke: none; stroke-dasharray: none; stroke-dashoffset: 0px; stroke-linecap: butt; stroke-linejoin: miter; stroke-miterlimit: 4; stroke-opacity: 1; stroke-width: 1px; alignment-baseline: auto; baseline-shift: 0px; dominant-baseline: auto; text-anchor: start; writing-mode: lr-tb; glyph-orientation-horizontal: 0deg; glyph-orientation-vertical: auto; vector-effect: none; paint-order: fill stroke markers; cx: 0px; cy: 0px; x: 0px; y: 0px; r: 0px; rx: 0px; ry: 0px;" version="1.1" xmlns:xlink="http://www.w3.org/1999/xlink"><style type="text/css">.bar { fill: lightgreen; }
.axis { font-style: normal; font-variant: normal; font-weight: normal; font-stretch: normal; font-size: 10px; line-height: normal; font-family: sans-serif; }
.axis path, .axis line { fill: none; stroke: rgb(0, 0, 0); shape-rendering: crispEdges; }
.x.axis path { display: none; }</style><svg xmlns="http://www.w3.org/2000/svg"><g transform="translate(10,10)"><g class="x axis" transform="translate(0,690)"><g class="tick" transform="translate(40.5,0)" style="opacity: 1;"><line y2="6" x2="0"/><text dy="-.55em" y="9" x="0" dx="-.8em" transform="rotate(-90)" style="text-anchor: end;">Jimmy Chung's (5)</text></g><g class="tick" transform="translate(59.5,0)" style="opacity: 1;"><line y2="6" x2="0"/><text dy="-.55em" y="9" x="0" dx="-.8em" transform="rotate(-90)" style="text-anchor: end;">Szechuan Cuisine (5)</text></g><g class="tick" transform="translate(78.5,0)" style="opacity: 1;"><line y2="6" x2="0"/><text dy="-.55em" y="9" x="0" dx="-.8em" transform="rotate(-90)" style="text-anchor: end;">Joyful Chinese Dining (5)</text></g><g class="tick" transform="translate(97.5,0)" style="opacity: 1;"><line y2="6" x2="0"/><text dy="-.55em" y="9" x="0" dx="-.8em" transform="rotate(-90)" style="text-anchor: end;">Satay Thai Bistro &amp; Bar (5)</text></g><g class="tick" transform="translate(116.5,0)" style="opacity: 1;"><line y2="6" x2="0"/><text dy="-.55em" y="9" x="0" dx="-.8em" transform="rotate(-90)" style="text-anchor: end;">Joe's Kitchen (5)</text></g><g class="tick" transform="translate(135.5,0)" style="opacity: 1;"><line y2="6" x2="0"/><text dy="-.55em" y="9" x="0" dx="-.8em" transform="rotate(-90)" style="text-anchor: end;">Red Mansion (5)</text></g><g class="tick" transform="translate(154.5,0)" style="opacity: 1;"><line y2="6" x2="0"/><text dy="-.55em" y="9" x="0" dx="-.8em" transform="rotate(-90)" style="text-anchor: end;">Pan Asia Sushi Chinese Fusion (5)</text></g><g class="tick" transform="translate(173.5,0)" style="opacity: 1;"><line y2="6" x2="0"/><text dy="-.55em" y="9" x="0" dx="-.8em" transform="rotate(-90)" style="text-anchor: end;">QQ Express (5)</text></g><g class="tick" transform="translate(192.5,0)" style="opacity: 1;"><line y2="6" x2="0"/><text dy="-.55em" y="9" x="0" dx="-.8em" transform="rotate(-90)" style="text-anchor: end;">Wendy's Noodle Cafe (5)</text></g><g class="tick" transform="translate(211.5,0)" style="opacity: 1;"><line y2="6" x2="0"/><text dy="-.55em" y="9" x="0" dx="-.8em" transform="rotate(-90)" style="text-anchor: end;">Desert Jade (5)</text></g><g class="tick" transform="translate(230.5,0)" style="opacity: 1;"><line y2="6" x2="0"/><text dy="-.55em" y="9" x="0" dx="-.8em" transform="rotate(-90)" style="text-anchor: end;">Golden Flower Chinese Cuisine (5)</text></g><g class="tick" transform="translate(249.5,0)" style="opacity: 1;"><line y2="6" x2="0"/><text dy="-.55em" y="9" x="0" dx="-.8em" transform="rotate(-90)" style="text-anchor: end;">Yunnan Garden (5)</text></g><g class="tick" transform="translate(268.5,0)" style="opacity: 1;"><line y2="6" x2="0"/><text dy="-.55em" y="9" x="0" dx="-.8em" transform="rotate(-90)" style="text-anchor: end;">The Original Las Vegas Buffet (5)</text></g><g class="tick" transform="translate(287.5,0)" style="opacity: 1;"><line y2="6" x2="0"/><text dy="-.55em" y="9" x="0" dx="-.8em" transform="rotate(-90)" style="text-anchor: end;">Great Wall Buffet Two Corporation (5)</text></g><g class="tick" transform="translate(306.5,0)" style="opacity: 1;"><line y2="6" x2="0"/><text dy="-.55em" y="9" x="0" dx="-.8em" transform="rotate(-90)" style="text-anchor: end;">King Buffet (5)</text></g><g class="tick" transform="translate(325.5,0)" style="opacity: 1;"><line y2="6" x2="0"/><text dy="-.55em" y="9" x="0" dx="-.8em" transform="rotate(-90)" style="text-anchor: end;">Orient House (4.75)</text></g><g class="tick" transform="translate(344.5,0)" style="opacity: 1;"><line y2="6" x2="0"/><text dy="-.55em" y="9" x="0" dx="-.8em" transform="rotate(-90)" style="text-anchor: end;">Beijing Noodle Cafe (4.666666667)</text></g><g class="tick" transform="translate(363.5,0)" style="opacity: 1;"><line y2="6" x2="0"/><text dy="-.55em" y="9" x="0" dx="-.8em" transform="rotate(-90)" style="text-anchor: end;">Cameron Chinese Seafood Restaurant (4.625)</text></g><g class="tick" transform="translate(382.5,0)" style="opacity: 1;"><line y2="6" x2="0"/><text dy="-.55em" y="9" x="0" dx="-.8em" transform="rotate(-90)" style="text-anchor: end;">KJ Kitchen (4.6)</text></g><g class="tick" transform="translate(401.5,0)" style="opacity: 1;"><line y2="6" x2="0"/><text dy="-.55em" y="9" x="0" dx="-.8em" transform="rotate(-90)" style="text-anchor: end;">Buffet @ Asia (4.5)</text></g><g class="tick" transform="translate(420.5,0)" style="opacity: 1;"><line y2="6" x2="0"/><text dy="-.55em" y="9" x="0" dx="-.8em" transform="rotate(-90)" style="text-anchor: end;">Little Buddha Restaurant &amp; Sushi Bar (4.5)</text></g><g class="tick" transform="translate(439.5,0)" style="opacity: 1;"><line y2="6" x2="0"/><text dy="-.55em" y="9" x="0" dx="-.8em" transform="rotate(-90)" style="text-anchor: end;">Pho Kim Long (4.5)</text></g><g class="tick" transform="translate(458.5,0)" style="opacity: 1;"><line y2="6" x2="0"/><text dy="-.55em" y="9" x="0" dx="-.8em" transform="rotate(-90)" style="text-anchor: end;">World Buffet (4.4)</text></g><g class="tick" transform="translate(477.5,0)" style="opacity: 1;"><line y2="6" x2="0"/><text dy="-.55em" y="9" x="0" dx="-.8em" transform="rotate(-90)" style="text-anchor: end;">Stack Dim Sum Bar (4.384615385)</text></g><g class="tick" transform="translate(496.5,0)" style="opacity: 1;"><line y2="6" x2="0"/><text dy="-.55em" y="9" x="0" dx="-.8em" transform="rotate(-90)" style="text-anchor: end;">COFCO Chinese Culture Center (4.333333333)</text></g><g class="tick" transform="translate(515.5,0)" style="opacity: 1;"><line y2="6" x2="0"/><text dy="-.55em" y="9" x="0" dx="-.8em" transform="rotate(-90)" style="text-anchor: end;">Hakkasan Restaurant (4.264705882)</text></g><g class="tick" transform="translate(534.5,0)" style="opacity: 1;"><line y2="6" x2="0"/><text dy="-.55em" y="9" x="0" dx="-.8em" transform="rotate(-90)" style="text-anchor: end;">Jasmine (4.052631579)</text></g><g class="tick" transform="translate(553.5,0)" style="opacity: 1;"><line y2="6" x2="0"/><text dy="-.55em" y="9" x="0" dx="-.8em" transform="rotate(-90)" style="text-anchor: end;">China Magic Noodle House (4)</text></g><g class="tick" transform="translate(572.5,0)" style="opacity: 1;"><line y2="6" x2="0"/><text dy="-.55em" y="9" x="0" dx="-.8em" transform="rotate(-90)" style="text-anchor: end;">China Star (4)</text></g><g class="tick" transform="translate(591.5,0)" style="opacity: 1;"><line y2="6" x2="0"/><text dy="-.55em" y="9" x="0" dx="-.8em" transform="rotate(-90)" style="text-anchor: end;">Cafe Noodle &amp; Chinese Barbeque (4)</text></g><g class="tick" transform="translate(610.5,0)" style="opacity: 1;"><line y2="6" x2="0"/><text dy="-.55em" y="9" x="0" dx="-.8em" transform="rotate(-90)" style="text-anchor: end;">Forbes KTV Restaurant &amp; Bar (4)</text></g><g class="tick" transform="translate(629.5,0)" style="opacity: 1;"><line y2="6" x2="0"/><text dy="-.55em" y="9" x="0" dx="-.8em" transform="rotate(-90)" style="text-anchor: end;">Tai's Asian Bistro (4)</text></g><g class="tick" transform="translate(648.5,0)" style="opacity: 1;"><line y2="6" x2="0"/><text dy="-.55em" y="9" x="0" dx="-.8em" transform="rotate(-90)" style="text-anchor: end;">Tasty House Chinese Restaurant (4)</text></g><g class="tick" transform="translate(667.5,0)" style="opacity: 1;"><line y2="6" x2="0"/><text dy="-.55em" y="9" x="0" dx="-.8em" transform="rotate(-90)" style="text-anchor: end;">Flo's (4)</text></g><g class="tick" transform="translate(686.5,0)" style="opacity: 1;"><line y2="6" x2="0"/><text dy="-.55em" y="9" x="0" dx="-.8em" transform="rotate(-90)" style="text-anchor: end;">George &amp; Son's Asian Cuisine (4)</text></g><g class="tick" transform="translate(705.5,0)" style="opacity: 1;"><line y2="6" x2="0"/><text dy="-.55em" y="9" x="0" dx="-.8em" transform="rotate(-90)" style="text-anchor: end;">Pei Wei Asian Diner (4)</text></g><g class="tick" transform="translate(724.5,0)" style="opacity: 1;"><line y2="6" x2="0"/><text dy="-.55em" y="9" x="0" dx="-.8em" transform="rotate(-90)" style="text-anchor: end;">Kung Fu Chef (4)</text></g><g class="tick" transform="translate(743.5,0)" style="opacity: 1;"><line y2="6" x2="0"/><text dy="-.55em" y="9" x="0" dx="-.8em" transform="rotate(-90)" style="text-anchor: end;">Ginger China Bistro (4)</text></g><g class="tick" transform="translate(762.5,0)" style="opacity: 1;"><line y2="6" x2="0"/><text dy="-.55em" y="9" x="0" dx="-.8em" transform="rotate(-90)" style="text-anchor: end;">Hong Kong Wok (4)</text></g><g class="tick" transform="translate(781.5,0)" style="opacity: 1;"><line y2="6" x2="0"/><text dy="-.55em" y="9" x="0" dx="-.8em" transform="rotate(-90)" style="text-anchor: end;">Meadowood Cafe (4)</text></g><g class="tick" transform="translate(800.5,0)" style="opacity: 1;"><line y2="6" x2="0"/><text dy="-.55em" y="9" x="0" dx="-.8em" transform="rotate(-90)" style="text-anchor: end;">The Clever Koi (4)</text></g><g class="tick" transform="translate(819.5,0)" style="opacity: 1;"><line y2="6" x2="0"/><text dy="-.55em" y="9" x="0" dx="-.8em" transform="rotate(-90)" style="text-anchor: end;">Asian Cafe Express (4)</text></g><g class="tick" transform="translate(838.5,0)" style="opacity: 1;"><line y2="6" x2="0"/><text dy="-.55em" y="9" x="0" dx="-.8em" transform="rotate(-90)" style="text-anchor: end;">Big Wong Restaurant (4)</text></g><g class="tick" transform="translate(857.5,0)" style="opacity: 1;"><line y2="6" x2="0"/><text dy="-.55em" y="9" x="0" dx="-.8em" transform="rotate(-90)" style="text-anchor: end;">Yi Mei Champion Taiwan Deli (4)</text></g><g class="tick" transform="translate(876.5,0)" style="opacity: 1;"><line y2="6" x2="0"/><text dy="-.55em" y="9" x="0" dx="-.8em" transform="rotate(-90)" style="text-anchor: end;">Noodle Pot (4)</text></g><g class="tick" transform="translate(895.5,0)" style="opacity: 1;"><line y2="6" x2="0"/><text dy="-.55em" y="9" x="0" dx="-.8em" transform="rotate(-90)" style="text-anchor: end;">Henry's Taiwan Kitchen (4)</text></g><g class="tick" transform="translate(914.5,0)" style="opacity: 1;"><line y2="6" x2="0"/><text dy="-.55em" y="9" x="0" dx="-.8em" transform="rotate(-90)" style="text-anchor: end;">Hot Wok Chinese Restaurant (4)</text></g><g class="tick" transform="translate(933.5,0)" style="opacity: 1;"><line y2="6" x2="0"/><text dy="-.55em" y="9" x="0" dx="-.8em" transform="rotate(-90)" style="text-anchor: end;">King Wah Express (4)</text></g><g class="tick" transform="translate(952.5,0)" style="opacity: 1;"><line y2="6" x2="0"/><text dy="-.55em" y="9" x="0" dx="-.8em" transform="rotate(-90)" style="text-anchor: end;">Happy Valley's Congee &amp; Bar (4)</text></g><g class="tick" transform="translate(971.5,0)" style="opacity: 1;"><line y2="6" x2="0"/><text dy="-.55em" y="9" x="0" dx="-.8em" transform="rotate(-90)" style="text-anchor: end;">Chino Bandido (4)</text></g><g class="tick" transform="translate(990.5,0)" style="opacity: 1;"><line y2="6" x2="0"/><text dy="-.55em" y="9" x="0" dx="-.8em" transform="rotate(-90)" style="text-anchor: end;">Noodle Palace (4)</text></g><g class="tick" transform="translate(1009.5,0)" style="opacity: 1;"><line y2="6" x2="0"/><text dy="-.55em" y="9" x="0" dx="-.8em" transform="rotate(-90)" style="text-anchor: end;">Great Bao (4)</text></g><g class="tick" transform="translate(1028.5,0)" style="opacity: 1;"><line y2="6" x2="0"/><text dy="-.55em" y="9" x="0" dx="-.8em" transform="rotate(-90)" style="text-anchor: end;">Red Wok Buffet (4)</text></g><g class="tick" transform="translate(1047.5,0)" style="opacity: 1;"><line y2="6" x2="0"/><text dy="-.55em" y="9" x="0" dx="-.8em" transform="rotate(-90)" style="text-anchor: end;">Buffet Asia (4)</text></g><g class="tick" transform="translate(1066.5,0)" style="opacity: 1;"><line y2="6" x2="0"/><text dy="-.55em" y="9" x="0" dx="-.8em" transform="rotate(-90)" style="text-anchor: end;">HK Star (4)</text></g><g class="tick" transform="translate(1085.5,0)" style="opacity: 1;"><line y2="6" x2="0"/><text dy="-.55em" y="9" x="0" dx="-.8em" transform="rotate(-90)" style="text-anchor: end;">Bund Shanghai (4)</text></g><g class="tick" transform="translate(1104.5,0)" style="opacity: 1;"><line y2="6" x2="0"/><text dy="-.55em" y="9" x="0" dx="-.8em" transform="rotate(-90)" style="text-anchor: end;">Buffet at Asia (4)</text></g><g class="tick" transform="translate(1123.5,0)" style="opacity: 1;"><line y2="6" x2="0"/><text dy="-.55em" y="9" x="0" dx="-.8em" transform="rotate(-90)" style="text-anchor: end;">Crystal Palace Restaurant (4)</text></g><g class="tick" transform="translate(1142.5,0)" style="opacity: 1;"><line y2="6" x2="0"/><text dy="-.55em" y="9" x="0" dx="-.8em" transform="rotate(-90)" style="text-anchor: end;">Cafe Ga Hyang (4)</text></g><g class="tick" transform="translate(1161.5,0)" style="opacity: 1;"><line y2="6" x2="0"/><text dy="-.55em" y="9" x="0" dx="-.8em" transform="rotate(-90)" style="text-anchor: end;">Hong Kong Gourmet Buffet (4)</text></g><g class="tick" transform="translate(1180.5,0)" style="opacity: 1;"><line y2="6" x2="0"/><text dy="-.55em" y="9" x="0" dx="-.8em" transform="rotate(-90)" style="text-anchor: end;">BBQ King (4)</text></g><g class="tick" transform="translate(1199.5,0)" style="opacity: 1;"><line y2="6" x2="0"/><text dy="-.55em" y="9" x="0" dx="-.8em" transform="rotate(-90)" style="text-anchor: end;">Umami Ramen &amp; Dumpling Bar (4)</text></g><g class="tick" transform="translate(1218.5,0)" style="opacity: 1;"><line y2="6" x2="0"/><text dy="-.55em" y="9" x="0" dx="-.8em" transform="rotate(-90)" style="text-anchor: end;">China Chan Restaurant (3.857142857)</text></g><g class="tick" transform="translate(1237.5,0)" style="opacity: 1;"><line y2="6" x2="0"/><text dy="-.55em" y="9" x="0" dx="-.8em" transform="rotate(-90)" style="text-anchor: end;">Great Wall Cuisine (3.845454545)</text></g><g class="tick" transform="translate(1256.5,0)" style="opacity: 1;"><line y2="6" x2="0"/><text dy="-.55em" y="9" x="0" dx="-.8em" transform="rotate(-90)" style="text-anchor: end;">DumplingHaus (3.833333333)</text></g><g class="tick" transform="translate(1275.5,0)" style="opacity: 1;"><line y2="6" x2="0"/><text dy="-.55em" y="9" x="0" dx="-.8em" transform="rotate(-90)" style="text-anchor: end;">Imperial Palace (3.833333333)</text></g><g class="tick" transform="translate(1294.5,0)" style="opacity: 1;"><line y2="6" x2="0"/><text dy="-.55em" y="9" x="0" dx="-.8em" transform="rotate(-90)" style="text-anchor: end;">Las Vegas Chinatown Plaza (3.833333333)</text></g><g class="tick" transform="translate(1313.5,0)" style="opacity: 1;"><line y2="6" x2="0"/><text dy="-.55em" y="9" x="0" dx="-.8em" transform="rotate(-90)" style="text-anchor: end;">Viet Bistro (3.8)</text></g><g class="tick" transform="translate(1332.5,0)" style="opacity: 1;"><line y2="6" x2="0"/><text dy="-.55em" y="9" x="0" dx="-.8em" transform="rotate(-90)" style="text-anchor: end;">Phoenix Palace (3.793103448)</text></g><g class="tick" transform="translate(1351.5,0)" style="opacity: 1;"><line y2="6" x2="0"/><text dy="-.55em" y="9" x="0" dx="-.8em" transform="rotate(-90)" style="text-anchor: end;">1900 Asian Cuisine (3.777777778)</text></g><g class="tick" transform="translate(1370.5,0)" style="opacity: 1;"><line y2="6" x2="0"/><text dy="-.55em" y="9" x="0" dx="-.8em" transform="rotate(-90)" style="text-anchor: end;">Mekong Palace (3.764705882)</text></g><g class="tick" transform="translate(1389.5,0)" style="opacity: 1;"><line y2="6" x2="0"/><text dy="-.55em" y="9" x="0" dx="-.8em" transform="rotate(-90)" style="text-anchor: end;">Jade At the Palazzo (3.75)</text></g><g class="tick" transform="translate(1408.5,0)" style="opacity: 1;"><line y2="6" x2="0"/><text dy="-.55em" y="9" x="0" dx="-.8em" transform="rotate(-90)" style="text-anchor: end;">Anna's Garden (3.75)</text></g><g class="tick" transform="translate(1427.5,0)" style="opacity: 1;"><line y2="6" x2="0"/><text dy="-.55em" y="9" x="0" dx="-.8em" transform="rotate(-90)" style="text-anchor: end;">China King (3.736363636)</text></g><g class="tick" transform="translate(1446.5,0)" style="opacity: 1;"><line y2="6" x2="0"/><text dy="-.55em" y="9" x="0" dx="-.8em" transform="rotate(-90)" style="text-anchor: end;">Saigon Saigon (3.666666667)</text></g><g class="tick" transform="translate(1465.5,0)" style="opacity: 1;"><line y2="6" x2="0"/><text dy="-.55em" y="9" x="0" dx="-.8em" transform="rotate(-90)" style="text-anchor: end;">Three Villages Restaurant (3.666666667)</text></g><g class="tick" transform="translate(1484.5,0)" style="opacity: 1;"><line y2="6" x2="0"/><text dy="-.55em" y="9" x="0" dx="-.8em" transform="rotate(-90)" style="text-anchor: end;">Fin (3.666666667)</text></g><g class="tick" transform="translate(1503.5,0)" style="opacity: 1;"><line y2="6" x2="0"/><text dy="-.55em" y="9" x="0" dx="-.8em" transform="rotate(-90)" style="text-anchor: end;">Noodles (3.659574468)</text></g><g class="tick" transform="translate(1522.5,0)" style="opacity: 1;"><line y2="6" x2="0"/><text dy="-.55em" y="9" x="0" dx="-.8em" transform="rotate(-90)" style="text-anchor: end;">Ping Pang Pong (3.599078341)</text></g><g class="tick" transform="translate(1541.5,0)" style="opacity: 1;"><line y2="6" x2="0"/><text dy="-.55em" y="9" x="0" dx="-.8em" transform="rotate(-90)" style="text-anchor: end;">Chang's Hong Kong Cuisine (3.583673469)</text></g><g class="tick" transform="translate(1560.5,0)" style="opacity: 1;"><line y2="6" x2="0"/><text dy="-.55em" y="9" x="0" dx="-.8em" transform="rotate(-90)" style="text-anchor: end;">Orchids Garden Chinese Restaurant (3.554794521)</text></g><g class="tick" transform="translate(1579.5,0)" style="opacity: 1;"><line y2="6" x2="0"/><text dy="-.55em" y="9" x="0" dx="-.8em" transform="rotate(-90)" style="text-anchor: end;">Crazy Buffet (3.5)</text></g><g class="tick" transform="translate(1598.5,0)" style="opacity: 1;"><line y2="6" x2="0"/><text dy="-.55em" y="9" x="0" dx="-.8em" transform="rotate(-90)" style="text-anchor: end;">Noodle Asia (3.470588235)</text></g><g class="tick" transform="translate(1617.5,0)" style="opacity: 1;"><line y2="6" x2="0"/><text dy="-.55em" y="9" x="0" dx="-.8em" transform="rotate(-90)" style="text-anchor: end;">C-Fu Gourmet Restaurant (3.426470588)</text></g><g class="tick" transform="translate(1636.5,0)" style="opacity: 1;"><line y2="6" x2="0"/><text dy="-.55em" y="9" x="0" dx="-.8em" transform="rotate(-90)" style="text-anchor: end;">Dim Sum Cafe (3.388888889)</text></g><g class="tick" transform="translate(1655.5,0)" style="opacity: 1;"><line y2="6" x2="0"/><text dy="-.55em" y="9" x="0" dx="-.8em" transform="rotate(-90)" style="text-anchor: end;">Jumbo Super Buffet (3.333333333)</text></g><g class="tick" transform="translate(1674.5,0)" style="opacity: 1;"><line y2="6" x2="0"/><text dy="-.55em" y="9" x="0" dx="-.8em" transform="rotate(-90)" style="text-anchor: end;">Hot Wheels (3.333333333)</text></g><g class="tick" transform="translate(1693.5,0)" style="opacity: 1;"><line y2="6" x2="0"/><text dy="-.55em" y="9" x="0" dx="-.8em" transform="rotate(-90)" style="text-anchor: end;">Kan's Kitchen (3.333333333)</text></g><g class="tick" transform="translate(1712.5,0)" style="opacity: 1;"><line y2="6" x2="0"/><text dy="-.55em" y="9" x="0" dx="-.8em" transform="rotate(-90)" style="text-anchor: end;">Red 8 (3.314814815)</text></g><g class="tick" transform="translate(1731.5,0)" style="opacity: 1;"><line y2="6" x2="0"/><text dy="-.55em" y="9" x="0" dx="-.8em" transform="rotate(-90)" style="text-anchor: end;">P F Chang's China Bistro (3.266666667)</text></g><g class="tick" transform="translate(1750.5,0)" style="opacity: 1;"><line y2="6" x2="0"/><text dy="-.55em" y="9" x="0" dx="-.8em" transform="rotate(-90)" style="text-anchor: end;">Golden Buddha (3.260869565)</text></g><g class="tick" transform="translate(1769.5,0)" style="opacity: 1;"><line y2="6" x2="0"/><text dy="-.55em" y="9" x="0" dx="-.8em" transform="rotate(-90)" style="text-anchor: end;">East Ocean Dim Sum &amp; Seafood Restaurant (3.256880734)</text></g><g class="tick" transform="translate(1788.5,0)" style="opacity: 1;"><line y2="6" x2="0"/><text dy="-.55em" y="9" x="0" dx="-.8em" transform="rotate(-90)" style="text-anchor: end;">China Mama Restaurant (3.25)</text></g><g class="tick" transform="translate(1807.5,0)" style="opacity: 1;"><line y2="6" x2="0"/><text dy="-.55em" y="9" x="0" dx="-.8em" transform="rotate(-90)" style="text-anchor: end;">China Poblano (3.231707317)</text></g><g class="tick" transform="translate(1826.5,0)" style="opacity: 1;"><line y2="6" x2="0"/><text dy="-.55em" y="9" x="0" dx="-.8em" transform="rotate(-90)" style="text-anchor: end;">Cathay House Restaurant (3.215827338)</text></g><g class="tick" transform="translate(1845.5,0)" style="opacity: 1;"><line y2="6" x2="0"/><text dy="-.55em" y="9" x="0" dx="-.8em" transform="rotate(-90)" style="text-anchor: end;">Jade Palace (3.2)</text></g><g class="tick" transform="translate(1864.5,0)" style="opacity: 1;"><line y2="6" x2="0"/><text dy="-.55em" y="9" x="0" dx="-.8em" transform="rotate(-90)" style="text-anchor: end;">Chin Chin Chinese Restaurant (3.125)</text></g><g class="tick" transform="translate(1883.5,0)" style="opacity: 1;"><line y2="6" x2="0"/><text dy="-.55em" y="9" x="0" dx="-.8em" transform="rotate(-90)" style="text-anchor: end;">Szechwan Palace (3)</text></g><g class="tick" transform="translate(1902.5,0)" style="opacity: 1;"><line y2="6" x2="0"/><text dy="-.55em" y="9" x="0" dx="-.8em" transform="rotate(-90)" style="text-anchor: end;">Dragon Way (3)</text></g><g class="tick" transform="translate(1921.5,0)" style="opacity: 1;"><line y2="6" x2="0"/><text dy="-.55em" y="9" x="0" dx="-.8em" transform="rotate(-90)" style="text-anchor: end;">Rainbow Arch Restaurant (3)</text></g><g class="tick" transform="translate(1940.5,0)" style="opacity: 1;"><line y2="6" x2="0"/><text dy="-.55em" y="9" x="0" dx="-.8em" transform="rotate(-90)" style="text-anchor: end;">Foods 2 Go (3)</text></g><g class="tick" transform="translate(1959.5,0)" style="opacity: 1;"><line y2="6" x2="0"/><text dy="-.55em" y="9" x="0" dx="-.8em" transform="rotate(-90)" style="text-anchor: end;">1 Eastern Super Buffet (3)</text></g><g class="tick" transform="translate(1978.5,0)" style="opacity: 1;"><line y2="6" x2="0"/><text dy="-.55em" y="9" x="0" dx="-.8em" transform="rotate(-90)" style="text-anchor: end;">Hao Bao (3)</text></g><g class="tick" transform="translate(1997.5,0)" style="opacity: 1;"><line y2="6" x2="0"/><text dy="-.55em" y="9" x="0" dx="-.8em" transform="rotate(-90)" style="text-anchor: end;">Fate 905 (3)</text></g><g class="tick" transform="translate(2016.5,0)" style="opacity: 1;"><line y2="6" x2="0"/><text dy="-.55em" y="9" x="0" dx="-.8em" transform="rotate(-90)" style="text-anchor: end;">Panda Garden (3)</text></g><g class="tick" transform="translate(2035.5,0)" style="opacity: 1;"><line y2="6" x2="0"/><text dy="-.55em" y="9" x="0" dx="-.8em" transform="rotate(-90)" style="text-anchor: end;">Dragon Noodle Co. (3)</text></g><g class="tick" transform="translate(2054.5,0)" style="opacity: 1;"><line y2="6" x2="0"/><text dy="-.55em" y="9" x="0" dx="-.8em" transform="rotate(-90)" style="text-anchor: end;">China China Restaurant (3)</text></g><g class="tick" transform="translate(2073.5,0)" style="opacity: 1;"><line y2="6" x2="0"/><text dy="-.55em" y="9" x="0" dx="-.8em" transform="rotate(-90)" style="text-anchor: end;">Capital Seafood Restaurant (3)</text></g><g class="tick" transform="translate(2092.5,0)" style="opacity: 1;"><line y2="6" x2="0"/><text dy="-.55em" y="9" x="0" dx="-.8em" transform="rotate(-90)" style="text-anchor: end;">Chop Chop Wok (3)</text></g><g class="tick" transform="translate(2111.5,0)" style="opacity: 1;"><line y2="6" x2="0"/><text dy="-.55em" y="9" x="0" dx="-.8em" transform="rotate(-90)" style="text-anchor: end;">China Town Buffet (3)</text></g><g class="tick" transform="translate(2130.5,0)" style="opacity: 1;"><line y2="6" x2="0"/><text dy="-.55em" y="9" x="0" dx="-.8em" transform="rotate(-90)" style="text-anchor: end;">Hope Kee (3)</text></g><g class="tick" transform="translate(2149.5,0)" style="opacity: 1;"><line y2="6" x2="0"/><text dy="-.55em" y="9" x="0" dx="-.8em" transform="rotate(-90)" style="text-anchor: end;">Great Wall Buffet (3)</text></g><g class="tick" transform="translate(2168.5,0)" style="opacity: 1;"><line y2="6" x2="0"/><text dy="-.55em" y="9" x="0" dx="-.8em" transform="rotate(-90)" style="text-anchor: end;">Hibachi Grill &amp; Supreme Buffet (3)</text></g><g class="tick" transform="translate(2187.5,0)" style="opacity: 1;"><line y2="6" x2="0"/><text dy="-.55em" y="9" x="0" dx="-.8em" transform="rotate(-90)" style="text-anchor: end;">J &amp; K Gourmet (3)</text></g><g class="tick" transform="translate(2206.5,0)" style="opacity: 1;"><line y2="6" x2="0"/><text dy="-.55em" y="9" x="0" dx="-.8em" transform="rotate(-90)" style="text-anchor: end;">Noodle Shop (3)</text></g><g class="tick" transform="translate(2225.5,0)" style="opacity: 1;"><line y2="6" x2="0"/><text dy="-.55em" y="9" x="0" dx="-.8em" transform="rotate(-90)" style="text-anchor: end;">Pearl (3)</text></g><g class="tick" transform="translate(2244.5,0)" style="opacity: 1;"><line y2="6" x2="0"/><text dy="-.55em" y="9" x="0" dx="-.8em" transform="rotate(-90)" style="text-anchor: end;">New China Buffet (3)</text></g><g class="tick" transform="translate(2263.5,0)" style="opacity: 1;"><line y2="6" x2="0"/><text dy="-.55em" y="9" x="0" dx="-.8em" transform="rotate(-90)" style="text-anchor: end;">Asian Seafood Buffet (3)</text></g><g class="tick" transform="translate(2282.5,0)" style="opacity: 1;"><line y2="6" x2="0"/><text dy="-.55em" y="9" x="0" dx="-.8em" transform="rotate(-90)" style="text-anchor: end;">China Chili (3)</text></g><g class="tick" transform="translate(2301.5,0)" style="opacity: 1;"><line y2="6" x2="0"/><text dy="-.55em" y="9" x="0" dx="-.8em" transform="rotate(-90)" style="text-anchor: end;">Rice &amp; Company (3)</text></g><g class="tick" transform="translate(2320.5,0)" style="opacity: 1;"><line y2="6" x2="0"/><text dy="-.55em" y="9" x="0" dx="-.8em" transform="rotate(-90)" style="text-anchor: end;">Blossom (3)</text></g><g class="tick" transform="translate(2339.5,0)" style="opacity: 1;"><line y2="6" x2="0"/><text dy="-.55em" y="9" x="0" dx="-.8em" transform="rotate(-90)" style="text-anchor: end;">Beijing Noodle No. 9 (2.875)</text></g><g class="tick" transform="translate(2358.5,0)" style="opacity: 1;"><line y2="6" x2="0"/><text dy="-.55em" y="9" x="0" dx="-.8em" transform="rotate(-90)" style="text-anchor: end;">Harbor Palace Seafood Restaurant (2.6)</text></g><g class="tick" transform="translate(2377.5,0)" style="opacity: 1;"><line y2="6" x2="0"/><text dy="-.55em" y="9" x="0" dx="-.8em" transform="rotate(-90)" style="text-anchor: end;">Fortunes (2.6)</text></g><g class="tick" transform="translate(2396.5,0)" style="opacity: 1;"><line y2="6" x2="0"/><text dy="-.55em" y="9" x="0" dx="-.8em" transform="rotate(-90)" style="text-anchor: end;">Zine Noodles Dim Sum (2.529411765)</text></g><g class="tick" transform="translate(2415.5,0)" style="opacity: 1;"><line y2="6" x2="0"/><text dy="-.55em" y="9" x="0" dx="-.8em" transform="rotate(-90)" style="text-anchor: end;">Liu's Kitchen (2.5)</text></g><g class="tick" transform="translate(2434.5,0)" style="opacity: 1;"><line y2="6" x2="0"/><text dy="-.55em" y="9" x="0" dx="-.8em" transform="rotate(-90)" style="text-anchor: end;">Shanghai Lilly (2.5)</text></g><g class="tick" transform="translate(2453.5,0)" style="opacity: 1;"><line y2="6" x2="0"/><text dy="-.55em" y="9" x="0" dx="-.8em" transform="rotate(-90)" style="text-anchor: end;">Chop Chop (2.5)</text></g><g class="tick" transform="translate(2472.5,0)" style="opacity: 1;"><line y2="6" x2="0"/><text dy="-.55em" y="9" x="0" dx="-.8em" transform="rotate(-90)" style="text-anchor: end;">Harbor Palace (2.443181818)</text></g><g class="tick" transform="translate(2491.5,0)" style="opacity: 1;"><line y2="6" x2="0"/><text dy="-.55em" y="9" x="0" dx="-.8em" transform="rotate(-90)" style="text-anchor: end;">Cathay House (2.153846154)</text></g><g class="tick" transform="translate(2510.5,0)" style="opacity: 1;"><line y2="6" x2="0"/><text dy="-.55em" y="9" x="0" dx="-.8em" transform="rotate(-90)" style="text-anchor: end;">Lin Buffet (2)</text></g><g class="tick" transform="translate(2529.5,0)" style="opacity: 1;"><line y2="6" x2="0"/><text dy="-.55em" y="9" x="0" dx="-.8em" transform="rotate(-90)" style="text-anchor: end;">Spicy City (2)</text></g><g class="tick" transform="translate(2548.5,0)" style="opacity: 1;"><line y2="6" x2="0"/><text dy="-.55em" y="9" x="0" dx="-.8em" transform="rotate(-90)" style="text-anchor: end;">Fusia (2)</text></g><g class="tick" transform="translate(2567.5,0)" style="opacity: 1;"><line y2="6" x2="0"/><text dy="-.55em" y="9" x="0" dx="-.8em" transform="rotate(-90)" style="text-anchor: end;">Joyful House Chinese Cuisine (2)</text></g><g class="tick" transform="translate(2586.5,0)" style="opacity: 1;"><line y2="6" x2="0"/><text dy="-.55em" y="9" x="0" dx="-.8em" transform="rotate(-90)" style="text-anchor: end;">Panda Express (2)</text></g><g class="tick" transform="translate(2605.5,0)" style="opacity: 1;"><line y2="6" x2="0"/><text dy="-.55em" y="9" x="0" dx="-.8em" transform="rotate(-90)" style="text-anchor: end;">China Wok (2)</text></g><g class="tick" transform="translate(2624.5,0)" style="opacity: 1;"><line y2="6" x2="0"/><text dy="-.55em" y="9" x="0" dx="-.8em" transform="rotate(-90)" style="text-anchor: end;">Volcano Buffet (2)</text></g><g class="tick" transform="translate(2643.5,0)" style="opacity: 1;"><line y2="6" x2="0"/><text dy="-.55em" y="9" x="0" dx="-.8em" transform="rotate(-90)" style="text-anchor: end;">Chou's Kitchen (2)</text></g><g class="tick" transform="translate(2662.5,0)" style="opacity: 1;"><line y2="6" x2="0"/><text dy="-.55em" y="9" x="0" dx="-.8em" transform="rotate(-90)" style="text-anchor: end;">King Tin Restaurant (1.75)</text></g><g class="tick" transform="translate(2681.5,0)" style="opacity: 1;"><line y2="6" x2="0"/><text dy="-.55em" y="9" x="0" dx="-.8em" transform="rotate(-90)" style="text-anchor: end;">China Ginger (1)</text></g><g class="tick" transform="translate(2700.5,0)" style="opacity: 1;"><line y2="6" x2="0"/><text dy="-.55em" y="9" x="0" dx="-.8em" transform="rotate(-90)" style="text-anchor: end;">Emperor's Garden (1)</text></g><g class="tick" transform="translate(2719.5,0)" style="opacity: 1;"><line y2="6" x2="0"/><text dy="-.55em" y="9" x="0" dx="-.8em" transform="rotate(-90)" style="text-anchor: end;">Golden Gate Chinese Restaurant (1)</text></g><g class="tick" transform="translate(2738.5,0)" style="opacity: 1;"><line y2="6" x2="0"/><text dy="-.55em" y="9" x="0" dx="-.8em" transform="rotate(-90)" style="text-anchor: end;">Red Dragon Chinese Food (1)</text></g><path class="domain" d="M0,6V0H2780V6"/></g><rect class="bar" x="32" width="17" y="0" height="690"/><rect class="bar" x="51" width="17" y="0" height="690"/><rect class="bar" x="70" width="17" y="0" height="690"/><rect class="bar" x="89" width="17" y="0" height="690"/><rect class="bar" x="108" width="17" y="0" height="690"/><rect class="bar" x="127" width="17" y="0" height="690"/><rect class="bar" x="146" width="17" y="0" height="690"/><rect class="bar" x="165" width="17" y="0" height="690"/><rect class="bar" x="184" width="17" y="0" height="690"/><rect class="bar" x="203" width="17" y="0" height="690"/><rect class="bar" x="222" width="17" y="0" height="690"/><rect class="bar" x="241" width="17" y="0" height="690"/><rect class="bar" x="260" width="17" y="0" height="690"/><rect class="bar" x="279" width="17" y="0" height="690"/><rect class="bar" x="298" width="17" y="0" height="690"/><rect class="bar" x="317" width="17" y="34.50000000000003" height="655.5"/><rect class="bar" x="336" width="17" y="45.99999995399999" height="644.000000046"/><rect class="bar" x="355" width="17" y="51.74999999999997" height="638.25"/><rect class="bar" x="374" width="17" y="55.200000000000045" height="634.8"/><rect class="bar" x="393" width="17" y="68.99999999999999" height="621"/><rect class="bar" x="412" width="17" y="68.99999999999999" height="621"/><rect class="bar" x="431" width="17" y="68.99999999999999" height="621"/><rect class="bar" x="450" width="17" y="82.79999999999993" height="607.2"/><rect class="bar" x="469" width="17" y="84.92307686999996" height="605.0769231300001"/><rect class="bar" x="488" width="17" y="92.00000004600005" height="597.9999999539999"/><rect class="bar" x="507" width="17" y="101.47058828399992" height="588.5294117160001"/><rect class="bar" x="526" width="17" y="130.73684209799998" height="559.263157902"/><rect class="bar" x="545" width="17" y="137.99999999999997" height="552"/><rect class="bar" x="564" width="17" y="137.99999999999997" height="552"/><rect class="bar" x="583" width="17" y="137.99999999999997" height="552"/><rect class="bar" x="602" width="17" y="137.99999999999997" height="552"/><rect class="bar" x="621" width="17" y="137.99999999999997" height="552"/><rect class="bar" x="640" width="17" y="137.99999999999997" height="552"/><rect class="bar" x="659" width="17" y="137.99999999999997" height="552"/><rect class="bar" x="678" width="17" y="137.99999999999997" height="552"/><rect class="bar" x="697" width="17" y="137.99999999999997" height="552"/><rect class="bar" x="716" width="17" y="137.99999999999997" height="552"/><rect class="bar" x="735" width="17" y="137.99999999999997" height="552"/><rect class="bar" x="754" width="17" y="137.99999999999997" height="552"/><rect class="bar" x="773" width="17" y="137.99999999999997" height="552"/><rect class="bar" x="792" width="17" y="137.99999999999997" height="552"/><rect class="bar" x="811" width="17" y="137.99999999999997" height="552"/><rect class="bar" x="830" width="17" y="137.99999999999997" height="552"/><rect class="bar" x="849" width="17" y="137.99999999999997" height="552"/><rect class="bar" x="868" width="17" y="137.99999999999997" height="552"/><rect class="bar" x="887" width="17" y="137.99999999999997" height="552"/><rect class="bar" x="906" width="17" y="137.99999999999997" height="552"/><rect class="bar" x="925" width="17" y="137.99999999999997" height="552"/><rect class="bar" x="944" width="17" y="137.99999999999997" height="552"/><rect class="bar" x="963" width="17" y="137.99999999999997" height="552"/><rect class="bar" x="982" width="17" y="137.99999999999997" height="552"/><rect class="bar" x="1001" width="17" y="137.99999999999997" height="552"/><rect class="bar" x="1020" width="17" y="137.99999999999997" height="552"/><rect class="bar" x="1039" width="17" y="137.99999999999997" height="552"/><rect class="bar" x="1058" width="17" y="137.99999999999997" height="552"/><rect class="bar" x="1077" width="17" y="137.99999999999997" height="552"/><rect class="bar" x="1096" width="17" y="137.99999999999997" height="552"/><rect class="bar" x="1115" width="17" y="137.99999999999997" height="552"/><rect class="bar" x="1134" width="17" y="137.99999999999997" height="552"/><rect class="bar" x="1153" width="17" y="137.99999999999997" height="552"/><rect class="bar" x="1172" width="17" y="137.99999999999997" height="552"/><rect class="bar" x="1191" width="17" y="137.99999999999997" height="552"/><rect class="bar" x="1210" width="17" y="157.71428573400001" height="532.285714266"/><rect class="bar" x="1229" width="17" y="159.32727279" height="530.67272721"/><rect class="bar" x="1248" width="17" y="161.00000004599997" height="528.999999954"/><rect class="bar" x="1267" width="17" y="161.00000004599997" height="528.999999954"/><rect class="bar" x="1286" width="17" y="161.00000004599997" height="528.999999954"/><rect class="bar" x="1305" width="17" y="165.6" height="524.4"/><rect class="bar" x="1324" width="17" y="166.55172417599996" height="523.448275824"/><rect class="bar" x="1343" width="17" y="168.666666636" height="521.333333364"/><rect class="bar" x="1362" width="17" y="170.47058828399997" height="519.529411716"/><rect class="bar" x="1381" width="17" y="172.5" height="517.5"/><rect class="bar" x="1400" width="17" y="172.5" height="517.5"/><rect class="bar" x="1419" width="17" y="174.38181823199997" height="515.618181768"/><rect class="bar" x="1438" width="17" y="183.99999995400003" height="506.00000004599997"/><rect class="bar" x="1457" width="17" y="183.99999995400003" height="506.00000004599997"/><rect class="bar" x="1476" width="17" y="183.99999995400003" height="506.00000004599997"/><rect class="bar" x="1495" width="17" y="184.97872341599995" height="505.021276584"/><rect class="bar" x="1514" width="17" y="193.32718894200002" height="496.672811058"/><rect class="bar" x="1533" width="17" y="195.453061278" height="494.546938722"/><rect class="bar" x="1552" width="17" y="199.43835610200003" height="490.56164389799994"/><rect class="bar" x="1571" width="17" y="207.00000000000003" height="483"/><rect class="bar" x="1590" width="17" y="211.05882357" height="478.94117643000004"/><rect class="bar" x="1609" width="17" y="217.14705885599997" height="472.85294114400006"/><rect class="bar" x="1628" width="17" y="222.33333331799997" height="467.666666682"/><rect class="bar" x="1647" width="17" y="230.00000004599994" height="459.99999995400003"/><rect class="bar" x="1666" width="17" y="230.00000004599994" height="459.99999995400003"/><rect class="bar" x="1685" width="17" y="230.00000004599994" height="459.99999995400003"/><rect class="bar" x="1704" width="17" y="232.55555553" height="457.44444447"/><rect class="bar" x="1723" width="17" y="239.199999954" height="450.80000004600004"/><rect class="bar" x="1742" width="17" y="240.00000002999997" height="449.99999997000003"/><rect class="bar" x="1761" width="17" y="240.550458708" height="449.449541292"/><rect class="bar" x="1780" width="17" y="241.49999999999997" height="448.5"/><rect class="bar" x="1799" width="17" y="244.02439025400002" height="445.975609746"/><rect class="bar" x="1818" width="17" y="246.21582735599998" height="443.784172644"/><rect class="bar" x="1837" width="17" y="248.39999999999998" height="441.6"/><rect class="bar" x="1856" width="17" y="258.75" height="431.25"/><rect class="bar" x="1875" width="17" y="276" height="414"/><rect class="bar" x="1894" width="17" y="276" height="414"/><rect class="bar" x="1913" width="17" y="276" height="414"/><rect class="bar" x="1932" width="17" y="276" height="414"/><rect class="bar" x="1951" width="17" y="276" height="414"/><rect class="bar" x="1970" width="17" y="276" height="414"/><rect class="bar" x="1989" width="17" y="276" height="414"/><rect class="bar" x="2008" width="17" y="276" height="414"/><rect class="bar" x="2027" width="17" y="276" height="414"/><rect class="bar" x="2046" width="17" y="276" height="414"/><rect class="bar" x="2065" width="17" y="276" height="414"/><rect class="bar" x="2084" width="17" y="276" height="414"/><rect class="bar" x="2103" width="17" y="276" height="414"/><rect class="bar" x="2122" width="17" y="276" height="414"/><rect class="bar" x="2141" width="17" y="276" height="414"/><rect class="bar" x="2160" width="17" y="276" height="414"/><rect class="bar" x="2179" width="17" y="276" height="414"/><rect class="bar" x="2198" width="17" y="276" height="414"/><rect class="bar" x="2217" width="17" y="276" height="414"/><rect class="bar" x="2236" width="17" y="276" height="414"/><rect class="bar" x="2255" width="17" y="276" height="414"/><rect class="bar" x="2274" width="17" y="276" height="414"/><rect class="bar" x="2293" width="17" y="276" height="414"/><rect class="bar" x="2312" width="17" y="276" height="414"/><rect class="bar" x="2331" width="17" y="293.25000000000006" height="396.74999999999994"/><rect class="bar" x="2350" width="17" y="331.2" height="358.8"/><rect class="bar" x="2369" width="17" y="331.2" height="358.8"/><rect class="bar" x="2388" width="17" y="340.94117643000004" height="349.05882356999996"/><rect class="bar" x="2407" width="17" y="345" height="345"/><rect class="bar" x="2426" width="17" y="345" height="345"/><rect class="bar" x="2445" width="17" y="345" height="345"/><rect class="bar" x="2464" width="17" y="352.84090911600003" height="337.15909088399997"/><rect class="bar" x="2483" width="17" y="392.76923074800004" height="297.23076925199996"/><rect class="bar" x="2502" width="17" y="414" height="276"/><rect class="bar" x="2521" width="17" y="414" height="276"/><rect class="bar" x="2540" width="17" y="414" height="276"/><rect class="bar" x="2559" width="17" y="414" height="276"/><rect class="bar" x="2578" width="17" y="414" height="276"/><rect class="bar" x="2597" width="17" y="414" height="276"/><rect class="bar" x="2616" width="17" y="414" height="276"/><rect class="bar" x="2635" width="17" y="414" height="276"/><rect class="bar" x="2654" width="17" y="448.5" height="241.5"/><rect class="bar" x="2673" width="17" y="552" height="138"/><rect class="bar" x="2692" width="17" y="552" height="138"/><rect class="bar" x="2711" width="17" y="552" height="138"/><rect class="bar" x="2730" width="17" y="552" height="138"/></g></svg></svg>